<svg xmlns="http://www.w3.org/2000/svg" id="Layer_1" data-name="Layer 1" viewBox="0 0 1920 1080" width="3840px" height="2160px"><defs><style>.cls-1{fill:#cce8ee;}.cls-2{fill:#455521;}.cls-3{fill:#8aa022;}.cls-21,.cls-22,.cls-23,.cls-24,.cls-29,.cls-30,.cls-35,.cls-4,.cls-41,.cls-51,.cls-65,.cls-70,.cls-9{fill:none;}.cls-5{fill:#667247;}.cls-6{fill:#454f28;}.cls-7{fill:#d83030;}.cls-8{fill:#ccb88f;}.cls-9{stroke:#e27a24;stroke-width:5px;}.cls-21,.cls-22,.cls-23,.cls-24,.cls-29,.cls-30,.cls-35,.cls-41,.cls-51,.cls-65,.cls-70,.cls-9{stroke-miterlimit:10;}.cls-10{fill:#685c47;}.cls-11{fill:#353f1b;}.cls-12{fill:#84603d;}.cls-13{fill:#1e1e1e;}.cls-14{fill:#efb57b;}.cls-15{fill:#252b13;}.cls-16{fill:#b28559;}.cls-17,.cls-57,.cls-79,.cls-80{opacity:0.2;}.cls-18{fill:#5b4937;}.cls-19{fill:#547c35;}.cls-20{fill:#496332;}.cls-21,.cls-22,.cls-24,.cls-41,.cls-65,.cls-70{stroke:#fff;}.cls-21,.cls-22,.cls-23{stroke-linecap:round;}.cls-21{stroke-width:4px;}.cls-22{stroke-width:4.27px;}.cls-23{stroke:#ad7957;stroke-width:13px;}.cls-24{stroke-width:4.42px;}.cls-25{fill:#486029;}.cls-26{fill:#779b43;}.cls-27{fill:#37471f;}.cls-28{fill:#87c5f4;}.cls-29{stroke:#1e1e1e;}.cls-29,.cls-30{stroke-width:20px;}.cls-30{stroke:#2b2b2b;}.cls-31{fill:#3f3f3f;}.cls-32{fill:#a07558;}.cls-33{fill:#b28769;}.cls-34{fill:#7c604d;}.cls-35{stroke:#725947;}.cls-35,.cls-41{stroke-width:3px;}.cls-36{fill:#333;}.cls-37{opacity:0.3;}.cls-38{fill:#77bc28;}.cls-39{fill:#3d6da5;}.cls-40{fill:#7fa1c9;}.cls-42{fill:#5d95e8;}.cls-43{fill:#9fc3f7;}.cls-44{fill:#83d82a;}.cls-45{fill:#474747;}.cls-46{fill:#56704c;}.cls-47{fill:#cca489;}.cls-48{fill:#c1c1c1;}.cls-49{fill:#8e8e8e;}.cls-50{fill:#494949;}.cls-51{stroke:#c6c6c6;stroke-width:0.83px;}.cls-52{fill:#a5895d;}.cls-53{fill:#589942;}.cls-54{fill:#588431;}.cls-55{fill:#7a4731;}.cls-56{fill:#a36241;}.cls-57{fill:#cecece;}.cls-58{opacity:0.1;}.cls-59{fill:#659e23;}.cls-60{fill:#e5e5e5;}.cls-61{fill:#f4d208;}.cls-62,.cls-79,.cls-82,.cls-86,.cls-94{fill:#fff;}.cls-63{fill:#823636;}.cls-64{fill:#af4141;}.cls-65{stroke-width:4.21px;}.cls-66{fill:#c16827;}.cls-67{fill:#f29753;}.cls-68{fill:#4f4f4f;}.cls-69{fill:#e27a24;}.cls-70{stroke-width:5.28px;}.cls-71{fill:#ffb583;}.cls-72{fill:#919191;}.cls-73{fill:#2d2d2d;}.cls-74{fill:#966f51;}.cls-75{fill:#e07a1e;}.cls-76{fill:#5b3d27;}.cls-77{fill:#84766b;}.cls-78{fill:#5b544f;}.cls-80,.cls-81{fill:#f6b52b;}.cls-81{opacity:0.54;}.cls-82{opacity:0.39;}.cls-83{fill:#012021;opacity:0.14;}.cls-84{fill:#cf8d51;}.cls-85{fill:#bb7134;}.cls-86{opacity:0.41;}.cls-87{fill:#150b06;}.cls-88{fill:#787065;}.cls-89,.cls-92{fill:#e99c7c;}.cls-90{fill:#9f1f2d;opacity:0.23;}.cls-91{fill:#ae4c18;opacity:0.45;}.cls-92{opacity:0.58;}.cls-93{fill:#84471f;opacity:0.15;}.cls-94{opacity:0.5;}</style></defs><rect class="cls-1" width="1920" height="500"/><path class="cls-2" d="M944.73,89.36s0-40.72,21.8-28.1S988.34,25,999.24,38.46s28.34,27.6,41.42,22.95,19.63-5.94,24,6.76,4.36,12.7,24,10.83,13.08-6.68,28.35-.9,30.52,3.41,37.06,12.28,15.26,22.07,48,11.48,39.25-26.15,45.79-9.13,61,12.94,61,12.94l48,1.29s26.17-25.57,37.07-8.06,10.9,11.4,30.52,13.59l61,6.83s15.27-24.75,24-11.56S1540,129.49,1540,129.49s21.8,6.51,56.69,8.38,69.77-14.59,67.59,1.46,58.87,8.62,58.87,8.62l43.61.81s56.68-14,63.23,5,48,7.41,48,7.41l17.45,6,24,6.75V473.22s-28.34,9-34.89-5.94-45.78-1-45.78-1l-41.43-12.78L1758,440.92l-21.8,7.74s-15.26-3.75-26.16-11.07,6.54-9.45-10.9-7.33-621.4-69.53-621.4-69.53-41.43,11.66-43.61-.8-8.72-11.16-21.8-8.55-39.25,11.9-37.07,2-15.26-3.74-8.72-25.4-2.18-18.57-2.18-32.82,4.36-17.83,4.36-26-37.06-53-30.52-62.45,8.72-41.78,8.72-41.78l2.18-52.68S929.47,97.83,944.73,89.36Z"/><polygon class="cls-3" points="1009.08 56.1 979.39 62.02 1002.01 68.51 1006.25 90.11 1031.7 74.47 1059.97 88.2 1088.63 79 1055.73 70.56 1009.08 56.1"/><polygon class="cls-3" points="1112.28 83.49 1154.04 90.39 1161.76 100.91 1194.28 105.86 1232.45 89.02 1250.83 102.95 1274.87 100.36 1296.07 115.93 1352.62 115.66 1379.48 92.27 1413.41 123.78 1441.69 113.75 1469.97 124.83 1502.48 111.31 1530.76 126.35 1596.65 137.87 1628.31 139.91 1636.79 148.77 1658 131.35 1670.72 144.65 1723.11 147.95 1744.24 142.32 1756.96 150.34 1783.82 142.78 1830.48 145.37 1816.34 155.66 1847.44 161.78 1846.03 173.5 1888.44 158.45 1919.34 173.97 1862.99 184.64 1817.75 179.58 1813.51 165.91 1771.1 166.44 1771.1 155.88 1728.69 173.57 1706.07 157.84 1639.62 155.69 1592.96 153.11 1546.31 137.33 1550.55 162.88 1518.04 139.45 1489.76 158.72 1498.24 137.23 1465.72 141.51 1437.45 135.71 1409.17 145.75 1378.07 131.71 1379.48 117.34 1355.45 137.09 1342.73 123.79 1310.21 141.27 1269.21 124.81 1249.42 112.03 1235.28 119.69 1222.56 107.71 1198.52 123.5 1167.42 122.66 1134.9 105.82 1112.28 83.49"/><path class="cls-4" d="M441.82,130.37a10.91,10.91,0,0,1,1-2.51c-1.91.43-3.82.89-5.72,1.43Z"/><path class="cls-2" d="M518.29,115.53a3.21,3.21,0,0,0,.89,1.28,8.18,8.18,0,0,0,4.93,1.68,12.89,12.89,0,0,0,5.65-1.06l1.31-.69,1.61-1,3.1-1.9c-8.06,2.38-15,3.67-14.54.89.69-4.33,1.37-6.53-1.93-6.62l-.9,5.71A4,4,0,0,0,518.29,115.53Z"/><path class="cls-2" d="M492.45,115.8a101.79,101.79,0,0,0,17.84-6.07C503.47,111.45,499.12,113.39,492.45,115.8Z"/><path class="cls-2" d="M900.72,78.22A105.29,105.29,0,0,1,920.14,65.6c-1.17,0-2.45,0-3.9,0-10.32-.39-11.35,1.32-17.54-5.93a6,6,0,0,0-2.52-1.85A42.39,42.39,0,0,0,900.72,78.22Z"/><path class="cls-2" d="M633.56,100.51l-37.19,4c2.45,0,4.91-.07,7.37-.22C613.56,103.65,623.54,102.09,633.56,100.51Z"/><path class="cls-2" d="M563,97.18l1.35.65q2.16,1,4.37,1.91a19.23,19.23,0,0,1-3.17-4.5c-3.89-7.57-5.33-1.54-5.87,4L561.77,98Z"/><path class="cls-2" d="M984.3,175.53s-4.12-34.57-1-42.89,10.32-9.17,4.13-19.6-2.07-17.29,3.09-32.23-13.41-1.63-10.31-8.36,5.15-14.94,1-19.24-14.44,14.43-17.53,5.23c-1.6-4.74-6.49-3.59-12-1.24,1.62-.07,3.23-.11,4.84-.07h.5l.3.44c2.73,4.05,6.8,5.91,10.87,5.5s8.28-3,11.27-7.87l.66.89c-3,5.5-7.41,8.89-11.9,9.77-4.31.83-8.83-.63-12.26-4.76a78.26,78.26,0,0,0-28.08,7.61,103.41,103.41,0,0,0-26.69,18.22l-1.68,1.56-1.43-2c-3.89-5.39-6.54-12.74-7.58-20.87a49.91,49.91,0,0,1-16.06,10.46c-7.15,2.93-14.28,4.32-21.25,5.52l-41.6,6.79c-27.72,4.54-55.45,8.66-83.18,12.87l-41.59,5.94-41.61,5.57c-13.85,1.73-27.71,4.09-41.86,4.69a104.83,104.83,0,0,1-21.21-1.16,70.22,70.22,0,0,1-19.45-6.43L538,124l-3.25,1.86-1.63.93c-.62.32-1.33.68-2,1a16.53,16.53,0,0,1-7.85,1.13,12.74,12.74,0,0,1-7.81-3.47,12.28,12.28,0,0,1-3.23-6.32c0-.2-.05-.42-.08-.62a99.6,99.6,0,0,1-24.89,6.35,93.47,93.47,0,0,1-14.56.61,116.69,116.69,0,0,0-14.12.09,114.48,114.48,0,0,0-15.78,2.34,10.91,10.91,0,0,0-1,2.51l-4.74-1.08c-2.25.63-4.49,1.34-6.73,2.15a129.09,129.09,0,0,0-27.51,13.66l-.93.6-.63-1-6.62-11a15.93,15.93,0,0,1-.8,1.66,11.73,11.73,0,0,1-1.14,1.4,6.6,6.6,0,0,1-5,1.93,6.4,6.4,0,0,1-4.67-2.37,13,13,0,0,1-.95-1.51,17.81,17.81,0,0,1-.57-1.7c-5.75,7-12.59,11.59-19.5,13.61-7.79,2.61-15.62,2.75-23.27,2.3s-15.25-1.5-22.77-2.18a132.21,132.21,0,0,0-22.6,0c-15.14,1.19-30.34,4.33-45.63,7.2-7.64,1.49-15.28,2.79-22.92,4.14S209.6,160.78,202,162c-15.28,2.55-30.57,4.84-45.85,7.14s-30.58,4.57-45.86,6.72-30.58,4.24-45.87,6.29c-7.64,1.09-15.31,1.85-23,2.77s-15.31,1.78-23,2.54l-.13,0h0L0,186.26V393.83c13-9.75,84-19.44,84-19.44l201.11-26.61,9.28,5.29s11.35,9.84,22.69-4.23,14.44,1.5,14.44,1.5l19.6-11.84s13.41,16,22.69,6.92S384.07,341,384.07,341s5.16,16.93,13.41,4.81,16.5-5.1,16.5-5.1L518.14,330.2l18.57-5.35L547,334.8l13.41-14.31,235.14-9.85s8.25,3.82,10.31-2.8,20.63-5.59,24.76.31,2.06,4.54,15.47-5,15.47-3.4,24.75,5.08,15.47-5,17.53-11.6S908,296,908,296s7.21,8.72,16.5-1.92,18.56-5.35,24.75,3.49,19.59-11.84,25.78-23.71,4.13-16.42,4.13-16.42,7.22-20,2.06-32.1-4.13-17,7.22-35.9S984.3,175.53,984.3,175.53Z"/><path class="cls-2" d="M18.46,181.63c15.26-3,30.5-5.66,45.76-8.51s30.55-5.69,45.83-8.32l5.84-1-43.28,4.81-58.79,10s-6.18,7.09-10.31-5.18A6.11,6.11,0,0,0,0,169.62v12.49Z"/><path class="cls-2" d="M361.69,142.12c7.41-2,14.49-7.15,20.23-14.93l2.17-3c-5.9,3.9-11.36,11-11.36,11l-50.46,5.6c5.68,1,11.32,2.06,17,2.63C346.73,144.19,354.29,144.32,361.69,142.12Z"/><path class="cls-2" d="M384.91,132.85A4.3,4.3,0,0,0,388,134.4a4.34,4.34,0,0,0,4.57-4.87l-.14-6,2.59,4.24,7.75,12.71a146.47,146.47,0,0,1,25.1-13.22L414,124.05s-11.35,15.66-17.53,2c-2.55-5.61-7-5-11.41-2.44l-.87,5.49A4.39,4.39,0,0,0,384.91,132.85Z"/><path class="cls-3" d="M316.7,139.92a133.42,133.42,0,0,0-23-1.47c-15.42.25-30.8,2.52-46.07,4.45-7.65.94-15.29,2.08-22.94,3.16s-15.28,2.19-22.93,3.42c-15.28,2.31-30.56,4.88-45.84,7.45-13.34,2.18-26.67,4.49-40,6.84l206.38-22.94C320.42,140.51,318.57,140.2,316.7,139.92Z"/><path class="cls-3" d="M559.71,99.21l-23.8,14.56-.13.08c10.79-3.18,23.62-8.33,23.62-8.33S559.4,102.46,559.71,99.21Z"/><path class="cls-3" d="M951.7,57.2a77.63,77.63,0,0,0-24.63,5.29c-2.33.92-4.63,2-6.93,3.11,7.1-.16,9.64-1.62,16.72-2.44C940.86,62.69,946.55,59.41,951.7,57.2Z"/><path class="cls-3" d="M585.18,105.7l11.19-1.2a75.15,75.15,0,0,1-27.62-4.76C575.46,106.83,585.18,105.7,585.18,105.7Z"/><path class="cls-3" d="M772.88,87c4.13,9.08,11.35-6.1,14.44-6.46s5.16-5.38,13.41,1.63,9.28-1.09,19.59-5.47,13.41,9.59,38.16-1.26c15.67-6.87,25.14-14.29,31.55-17,0-.37,0-.74,0-1.11l1,.72a7.48,7.48,0,0,1,5.15-.33c0-.28,0-.55,0-.82l.35-9.47-5.2,6a42.86,42.86,0,0,1-18.1,12.17c-6.53,2.38-13.31,3.41-20.19,4.28l-41.59,5.2c-27.74,3.46-55.47,7.34-83.2,11.13l-41.6,6-41.59,6.43c-3.84.56-7.68,1.17-11.51,1.78l128-13.75S768.76,78,772.88,87Z"/><path class="cls-3" d="M442.8,127.86c1.46-2.76,4.89-6.67,12.43-5.43,11.35,1.87-6.19,5.5,16.5-.33a214.5,214.5,0,0,0,20.72-6.3c-1.76.42-3.53.8-5.29,1.11a87,87,0,0,1-14.06,1.33,119.66,119.66,0,0,0-14.47.82,121,121,0,0,0-28.81,7.39c-.64.24-1.28.5-1.91.76l9.17,2.08C439,128.75,440.89,128.29,442.8,127.86Z"/><path class="cls-3" d="M890,57.39c0,.37,0,.74,0,1.11l1-.39Z"/><path class="cls-3" d="M519.31,108.12l.46-3-4.88,2.44c-1.53.77-3.06,1.48-4.6,2.16l.63-.16C515,108.56,517.66,108.08,519.31,108.12Z"/><path class="cls-3" d="M385.19,122.76l-1.1,1.48,1-.59Z"/><path class="cls-3" d="M561.44,109.26c.42.23.85.43,1.27.64l1.34-.76Z"/><path class="cls-3" d="M955.57,60.62c.13.17.27.33.41.49l.4,0Z"/><path class="cls-3" d="M512.76,110.51c-.15.63-.3,1.28-.44,1.93a11.41,11.41,0,0,0-.3,2.09c0,.75-.09,1.5-.07,2.26.05.56.13,1.12.2,1.68,1.38-.55,2.76-1.11,4.13-1.71Z"/><path class="cls-3" d="M894.87,60.88,891,58.11l-1,.39a62,62,0,0,0,.49,7.15A54.34,54.34,0,0,0,894.87,60.88Z"/><path class="cls-3" d="M455.23,122.43c-7.54-1.24-11,2.67-12.43,5.43a114.48,114.48,0,0,1,15.78-2.34,116.69,116.69,0,0,1,14.12-.09,93.47,93.47,0,0,0,14.56-.61,99.6,99.6,0,0,0,24.89-6.35c-.07-.56-.15-1.12-.2-1.68,0-.76,0-1.51.07-2.26a11.41,11.41,0,0,1,.3-2.09c.14-.65.29-1.3.44-1.93l3.52,6.25c-1.37.6-2.75,1.16-4.13,1.71,0,.2.05.42.08.62a12.28,12.28,0,0,0,3.23,6.32,12.74,12.74,0,0,0,7.81,3.47,16.53,16.53,0,0,0,7.85-1.13c.66-.29,1.37-.65,2-1l1.63-.93L538,124l24.72-14.09c-.42-.21-.85-.41-1.27-.64l2.61-.12-1.34.76a70.22,70.22,0,0,0,19.45,6.43,104.83,104.83,0,0,0,21.21,1.16c14.15-.6,28-3,41.86-4.69l41.61-5.57,41.59-5.94c27.73-4.21,55.46-8.33,83.18-12.87l41.6-6.79c7-1.2,14.1-2.59,21.25-5.52a49.91,49.91,0,0,0,16.06-10.46A62,62,0,0,1,890,58.5c-6.41,2.68-15.88,10.1-31.55,17-24.75,10.85-27.84-3.13-38.16,1.26S809,89.2,800.73,82.2s-10.32-2-13.41-1.63S777,96.11,772.88,87s-11.34-.27-11.34-.27l-128,13.75c-10,1.58-20,3.14-29.82,3.77-2.46.15-4.92.23-7.37.22l-11.19,1.2s-9.72,1.13-16.43-6q-2.21-.85-4.37-1.91L563,97.18l-1.26.77-2.06,1.26c-.31,3.25-.31,6.31-.31,6.31s-12.83,5.15-23.62,8.33l-3.1,1.9-1.61,1-1.31.69a12.89,12.89,0,0,1-5.65,1.06,8.18,8.18,0,0,1-4.93-1.68,3.21,3.21,0,0,1-.89-1.28,4,4,0,0,1,.12-1.7l.9-5.71c-1.65,0-4.27.44-8.39,1.45l-.63.16a101.79,101.79,0,0,1-17.84,6.07,214.5,214.5,0,0,1-20.72,6.3C449,127.93,466.58,124.3,455.23,122.43Z"/><path class="cls-3" d="M395.28,131.18c.06-.73.1-1.46.12-2.2L393,130.8l1.71,2.85c0-.09.08-.17.11-.25A21.58,21.58,0,0,0,395.28,131.18Z"/><path class="cls-3" d="M403.44,141.48l-.63-1-.92.59Z"/><path class="cls-3" d="M381.47,128.34c-.08.73-.14,1.47-.19,2.2s.12,1.51.21,2.25a2.76,2.76,0,0,1,.08.27c.73-.89,1.45-1.8,2.14-2.76Z"/><path class="cls-3" d="M64.22,173.12C49,176,33.72,178.6,18.46,181.63h0L0,182.11v4.15l18.28,1.2h0l.13,0c7.65-.76,15.3-1.65,23-2.54s15.32-1.68,23-2.77c15.29-2,30.58-4,45.87-6.29s30.57-4.35,45.86-6.72S186.68,164.54,202,162q11.46-1.81,22.92-3.88c7.64-1.35,15.28-2.65,22.92-4.14,15.29-2.87,30.49-6,45.63-7.2a132.21,132.21,0,0,1,22.6,0c7.52.68,15.09,1.74,22.77,2.18s15.48.31,23.27-2.3c6.91-2,13.75-6.64,19.5-13.61a2.76,2.76,0,0,0-.08-.27c-.09-.74-.19-1.51-.21-2.25s.11-1.47.19-2.2l2.24,2c-.69,1-1.41,1.87-2.14,2.76a17.81,17.81,0,0,0,.57,1.7,13,13,0,0,0,.95,1.51,6.4,6.4,0,0,0,4.67,2.37,6.6,6.6,0,0,0,5-1.93,11.73,11.73,0,0,0,1.14-1.4,15.93,15.93,0,0,0,.8-1.66L393,130.8,395.4,129c0,.74-.06,1.47-.12,2.2a21.58,21.58,0,0,1-.51,2.22c0,.08-.07.16-.11.25l6.62,11,.63,1,.93-.6a129.09,129.09,0,0,1,27.51-13.66c2.24-.81,4.48-1.52,6.73-2.15l-9.17-2.08a146.47,146.47,0,0,0-25.1,13.22l.63,1-1.55-.46.92-.59-7.75-12.71-2.59-4.24.14,6A4.34,4.34,0,0,1,388,134.4a4.3,4.3,0,0,1-3.13-1.55,4.39,4.39,0,0,1-.74-3.71l.87-5.49-1,.59-2.17,3c-5.74,7.78-12.82,12.89-20.23,14.93-7.4,2.2-15,2.07-22.44,1.34-5.66-.57-11.3-1.64-17-2.63L115.89,163.77l-5.84,1C94.77,167.43,79.49,170.3,64.22,173.12Z"/><path class="cls-3" d="M18.61,181.62h0Z"/><path class="cls-3" d="M891,58.11l3.84,2.77a54.34,54.34,0,0,1-4.35,4.77c1,8.13,3.69,15.48,7.58,20.87l1.43,2,1.68-1.56A103.41,103.41,0,0,1,927.9,68.72,78.26,78.26,0,0,1,956,61.11c-.14-.16-.28-.32-.41-.49l.81.45-.4,0c3.43,4.13,7.95,5.59,12.26,4.76,4.49-.88,8.93-4.27,11.9-9.77l-.66-.89c-3,4.86-7.2,7.51-11.27,7.87s-8.14-1.45-10.87-5.5l-.3-.44h-.5c-1.61,0-3.22,0-4.84.07-5.15,2.21-10.84,5.49-14.84,6-7.08.82-9.62,2.28-16.72,2.44a105.29,105.29,0,0,0-19.42,12.62c.38.69.77,1.36,1.19,2l-3.1-.42c.63-.54,1.27-1.05,1.91-1.57a42.39,42.39,0,0,1-4.54-20.44A7.48,7.48,0,0,0,891,58.11Z"/><path class="cls-3" d="M901.91,80.21c-.42-.63-.81-1.3-1.19-2-.64.52-1.28,1-1.91,1.57Z"/><polygon class="cls-3" points="1919.34 505.3 959.34 385.3 -0.66 505.3 -0.66 1080 1919.34 1080 1919.34 505.3"/><path class="cls-5" d="M1572.69,1040s16.8-4.63,8.4-10.42-3.6-12.75-3.6-12.75l-6-12.75-9.61,1.16-6-24.33s-7.2-11.58-10.8-10.43-2.4-31.28-10.81-25.49-19.2,4.64-19.2,4.64l-8.4-2.32-4.81-15.06-8.4-5.79-10.8,5.79-12-5.79s-2.4-15.07-8.4-10.43-12,12.74-12,12.74-1.2-1.16-9.61,0-6,10.43-6,10.43l-9.6,8.11s-4.8-6.95-8.4-5.79-10.81-3.48-10.81,3.47-8.4,15.07-8.4,15.07l-8.4-4.64s-7.2,0-8.4,4.64-6,4.63-9.61,8.11a51.39,51.39,0,0,0-6,7s-6,6.95-8.4,12.74-6,2.32-4.8,12.75,8.4,19.7,8.4,19.7l-10.8,4.63-1.21,9.27,8.41,8.11s2.4,7-2.4,9.27-12-10.43-10.81,2.32l1.2,12.74,8.41,3.48-6,9.27a19.83,19.83,0,0,0,4.81,11.58c4.8,5.8,9.6,7,9.6,15.07s7.2-.09,7.2-.09l12,.68,1.2.68s160.85-1.16,157.25-1.16,3.6,2.2,3.6,2.2,15.6-3.47,12-5.79,0-13.9,0-13.9,4.8,0,6-5.8,0-9.27,0-9.27,3.6,3.48,7.21,0-2.41-11.58-2.41-11.58l7.21-5.8S1591.89,1052.73,1572.69,1040Z"/><path class="cls-6" d="M1566.74,1066.46l-13.23-7.52,6.22-13.52s.78,10.52-10.11,6.76-9.34-15.77-14-9.76,1.55,12,1.55,12l-10.89,2.25,6.22,6-13.23,2.25s4.67-13.52-.78-15-11.67,8.26-11.67,8.26l-9.34-5.26.77-17.28-16.34,5.26-3.89-18.78,17.9,3.76-.78-18.78s-10.12,7.51-14,3.75,12.45-5.26,6.23-9-13.23,1.5-13.23,1.5l-12.46-4.51,9.34-5.26-21-.75s3.89-14.27,7.78-10.52,14-6,11.68-7.51-15.57-11.27-15.57-11.27,2.33,14.27,0,14.27-17.9-2.25-17.9-2.25l3.11,4.51-11.68,6.76s-2.33,6.76,3.9,6.76,17.12,4.51,10.89,12-24.13,9.77-24.13,9.77l-2.33-20.29-8.56.76,3.11-18,7.78.76-6.22-6s-6.23,9.76-13.23,8.26-6.23-12-3.9-11.27,10.9-4.51,10.9-4.51l-10.9-3.75s-3.11-11.27-6.22-9.77S1376.82,962,1376.82,962l-11.67,4.51-.13,8.56s1.68,1.2-6.1,6.46-6.23,16.53-6.23,16.53,4.67,6,2.34,6.76-11.68,6.76-11.68,6.76l6.07,13.31s-9.18-.54-9.18,7.73,4.67,11.27,4.67,11.27l-7,8.26L1341,1062s5.45,7.51,2.33,10.52,7.79,8.26,7.79,8.26l-3.9,3.76,6.23,21,3.89,6h186s17.14-5.19,11.29-9,3.5-9.8,3.5-9.8l14-.75-8.56-6.76,10.11-8.26Z"/><polygon class="cls-3" points="1579.2 1035.57 1584.68 1034.25 1576.46 1022.35 1571.49 1004.07 1561.88 1005.22 1568.25 1017.07 1572.69 1039.98 1579.2 1035.57"/><polygon class="cls-3" points="1558.66 990.63 1554.95 981.07 1550.44 969.48 1545.08 970.46 1544.97 952.3 1534.28 944.97 1524.43 947.01 1503.89 939.08 1505.26 952.3 1521.69 952.3 1532.64 958.91 1535.38 977.41 1558.66 990.63"/><path class="cls-5" d="M1649.05,1054.37s9.86-4.55,4.12-7.43-3.47-7.77-3.47-7.77l-5-7.53-5.79,1.66-6.1-14.9s-5.57-6.68-7.67-5.6-4.58-19.67-9.16-15.18-11.33,4.79-11.33,4.79l-5.39-.67-4.45-9.12-5.73-2.88-6.06,4.72-7.94-2.53s-3-9.35-6.2-5.83a49.1,49.1,0,0,0-6.1,9.26s-.85-.62-5.9.92-2.65,7.21-2.65,7.21l-5.09,6.08s-3.64-4-5.73-2.88-7-1.18-6.29,3.24-3.66,10.39-3.66,10.39l-5.62-2.14s-4.43.69-4.7,3.75-3.23,3.52-5.09,6.08a33.12,33.12,0,0,0-3,5,38.6,38.6,0,0,0-3.89,8.91c-.9,3.92-3.46,2-1.68,8.57s7.11,11.72,7.11,11.72l-6.17,4,.18,6,6,4.35s2.16,4.19-.56,6.13-8.4-5.49-6.4,2.51l2,8,5.51,1.4-2.77,6.47a13.1,13.1,0,0,0,4.1,6.91c3.52,3.23,6.59,3.51,7.39,8.67s4.42-.75,4.42-.75l7.43-.72.81.32s98.64-16.16,96.43-15.81,2.43,1,2.43,1,9.24-3.7,6.8-4.83-1.38-8.85-1.38-8.85,2.94-.46,3.11-4.26a12.63,12.63,0,0,0-.92-5.89,3.1,3.1,0,0,0,4.42-.69c1.86-2.56-2.63-7.14-2.63-7.14l3.85-4.38S1662.11,1060.64,1649.05,1054.37Z"/><path class="cls-6" d="M1648,1071.78l-8.87-3.51,2.48-9.2s1.52,6.62-5.54,5.28-7.31-9.14-9.58-4.87,2.15,7.49,2.15,7.49l-6.46,2.48,4.42,3.23-7.9,2.7s1.52-9.05-2-9.48-6.35,6.37-6.35,6.37l-6.26-2.45-1.24-11.06-9.51,4.91-4.26-11.58,11.37.68-2.34-11.88s-5.47,5.75-8.23,3.74,7.12-4.54,2.92-6.33-8,2.22-8,2.22l-8.09-1.67,5.21-4.24-13,1.53s1-9.45,3.73-7.43,8-5.17,6.43-5.9-10.68-5.68-10.68-5.68,2.85,8.86,1.42,9.08-11.22.28-11.22.28l2.36,2.57-6.5,5.42s-.76,4.53,3.07,3.93,11,1.23,7.88,6.6-13.84,8.53-13.84,8.53l-3.45-12.68-5.19,1.3.13-11.77,4.85-.27-4.42-3.23s-2.85,6.81-7.3,6.53-5-7.05-3.51-6.8,6.24-3.91,6.24-3.91l-7.06-1.34s-3-6.87-4.8-5.62-6.12,7.81-6.12,7.81l-6.72,4,.77,5.46s1.15.6-3.1,4.69-2.18,11.11-2.18,11.11,3.46,3.38,2.1,4.08-6.5,5.42-6.5,5.42l5,7.88s-5.69.54-4.87,5.8,4,6.72,4,6.72l-3.48,5.93,2.88,5.91s4.09,4.26,2.48,6.47,5.6,4.51,5.6,4.51l-2,2.76,5.91,12.79,3,3.45,114.22-17.83s10-5,6-6.8,1.17-6.57,1.17-6.57l8.53-1.82L1648,1084l5.39-6.23Z"/><polygon class="cls-3" points="1652.61 1050.94 1655.84 1049.58 1649.62 1042.8 1644.74 1031.64 1638.96 1033.3 1644.05 1040.22 1649.05 1054.37 1652.61 1050.94"/><polygon class="cls-3" points="1635.54 1024.33 1632.31 1018.6 1628.39 1011.66 1625.19 1012.8 1623.32 1001.26 1616.03 997.62 1610.19 999.86 1596.79 996.79 1598.94 1005.06 1609.03 1003.49 1616.41 1006.64 1619.93 1018.15 1635.54 1024.33"/><circle class="cls-7" cx="1569.96" cy="1045.12" r="3.59"/><circle class="cls-7" cx="1603.11" cy="1015.86" r="3.59"/><circle class="cls-7" cx="1633.37" cy="1067.94" r="3.59"/><circle class="cls-7" cx="1498.88" cy="957.69" r="3.59"/><circle class="cls-7" cx="1461.56" cy="978.43" r="3.59"/><circle class="cls-7" cx="1505.42" cy="997.02" r="3.59"/><circle class="cls-7" cx="1429.35" cy="1015.6" r="3.59"/><polygon class="cls-8" points="801.57 649.07 638.4 592.51 727.77 578.11 218.5 401.59 0 509.53 0 789.22 801.57 649.07"/><polygon class="cls-8" points="663 653.05 1540.58 1111.9 1193.92 1202.72 318.33 722.49 663 653.05"/><path class="cls-9" d="M1178.78,590.11l4.1,105.3c.7,18,.08,39-14.29,49.93-10.78,8.18-74.59,43.88-181.18,43.88-44.21,0-117.35,0-177.37-18.36-42.28-12.94-142.3-118.8-186.5-118.2S417.67,627.29,387.05,595.4"/><polygon class="cls-10" points="849.44 648.36 990.7 721.89 898.22 759.32 727.78 672.57 849.44 648.36"/><polygon class="cls-11" points="0 518.56 960 398.56 960 149.61 0 269.61 0 518.56"/><polygon class="cls-12" points="0 538.56 960 418.56 960 169.61 0 289.61 0 538.56"/><polygon class="cls-13" points="611.65 399.61 611.65 462.1 588.56 464.99 586.82 414.37 611.65 399.61"/><polygon class="cls-14" points="0 538.56 31.08 534.67 31.08 285.72 15.54 277.67 0 289.61 0 538.56"/><polygon class="cls-14" points="232.23 509.53 263.31 505.64 263.31 256.69 247.77 248.64 232.23 260.58 232.23 509.53"/><polygon class="cls-14" points="464.46 480.5 495.54 476.62 495.54 227.67 480 219.61 464.46 231.55 464.46 480.5"/><polygon class="cls-14" points="696.69 451.47 727.77 447.59 727.77 198.64 712.23 190.58 696.69 202.52 696.69 451.47"/><polygon class="cls-14" points="928.92 422.44 960 418.56 960 169.61 944.46 161.55 928.92 173.49 928.92 422.44"/><polygon class="cls-14" points="38.7 533.72 69.78 529.84 69.78 280.88 54.24 272.83 38.7 284.77 38.7 533.72"/><polygon class="cls-14" points="77.41 528.88 108.49 525 108.49 276.05 92.95 267.99 77.41 279.93 77.41 528.88"/><polygon class="cls-14" points="116.11 524.04 147.19 520.16 147.19 271.21 131.65 263.15 116.11 275.09 116.11 524.04"/><polygon class="cls-14" points="154.82 519.21 185.9 515.32 185.9 266.37 170.36 258.31 154.82 270.26 154.82 519.21"/><polygon class="cls-14" points="193.53 514.37 224.6 510.48 224.6 261.53 209.06 253.47 193.53 265.42 193.53 514.37"/><polygon class="cls-14" points="270.94 504.69 302.01 500.81 302.01 251.86 286.47 243.8 270.94 255.74 270.94 504.69"/><polygon class="cls-14" points="309.64 499.85 340.72 495.97 340.72 247.02 325.18 238.96 309.64 250.9 309.64 499.85"/><polygon class="cls-14" points="348.35 495.01 379.42 491.13 379.42 242.18 363.88 234.12 348.35 246.06 348.35 495.01"/><polygon class="cls-14" points="387.05 490.18 418.13 486.29 418.13 237.34 402.59 229.28 387.05 241.23 387.05 490.18"/><polygon class="cls-14" points="425.76 485.34 456.83 481.45 456.83 232.5 441.3 224.45 425.76 236.39 425.76 485.34"/><polygon class="cls-14" points="503.17 475.66 534.24 471.78 534.24 222.83 518.71 214.77 503.17 226.71 503.17 475.66"/><polygon class="cls-14" points="541.87 470.82 572.95 466.94 572.95 217.99 557.41 209.93 541.87 221.87 541.87 470.82"/><polygon class="cls-14" points="580.58 465.99 593.3 464.4 592.1 447.73 594.53 430.12 603.99 427.28 600.69 405.97 604.09 415.76 611.65 399.61 611.65 213.15 596.12 205.09 580.58 217.04 580.58 465.99"/><polygon class="cls-14" points="619.28 461.15 650.36 457.26 650.36 208.31 634.82 200.26 619.28 212.2 619.28 461.15"/><polygon class="cls-14" points="657.99 456.31 689.06 452.43 689.06 203.47 673.53 195.42 657.99 207.36 657.99 456.31"/><polygon class="cls-14" points="735.4 446.63 766.47 442.75 766.47 193.8 750.94 185.74 735.4 197.68 735.4 446.63"/><polygon class="cls-14" points="774.1 441.8 805.18 437.91 805.18 188.96 789.64 180.9 774.1 192.84 774.1 441.8"/><polygon class="cls-14" points="812.81 436.96 843.88 433.07 843.88 184.12 828.35 176.06 812.81 188.01 812.81 436.96"/><polygon class="cls-14" points="851.51 432.12 882.59 428.24 882.59 179.28 867.05 171.23 851.51 183.17 851.51 432.12"/><polygon class="cls-14" points="890.22 427.28 921.29 423.4 921.29 174.45 905.76 166.39 890.22 178.33 890.22 427.28"/><polygon class="cls-15" points="1920 518.56 960 398.56 960 149.61 1920 269.61 1920 518.56"/><polygon class="cls-12" points="1920 538.56 960 418.56 960 169.61 1920 289.61 1920 538.56"/><polygon class="cls-16" points="1920 289.61 1904.46 277.67 1888.92 285.72 1888.92 534.67 1920 538.56 1920 289.61"/><polygon class="cls-16" points="1687.77 260.58 1672.23 248.64 1656.69 256.69 1656.69 505.64 1687.77 509.53 1687.77 260.58"/><polygon class="cls-16" points="1455.54 231.55 1440 219.61 1424.46 227.67 1424.46 476.62 1455.54 480.5 1455.54 231.55"/><polygon class="cls-16" points="1223.31 202.52 1207.77 190.58 1192.23 198.64 1192.23 447.59 1223.31 451.47 1223.31 202.52"/><polygon class="cls-16" points="991.08 173.49 975.54 161.55 960 169.61 960 418.56 991.08 422.44 991.08 173.49"/><polygon class="cls-16" points="1881.3 284.77 1865.76 272.83 1850.22 280.88 1850.22 529.84 1881.3 533.72 1881.3 284.77"/><polygon class="cls-16" points="1842.59 279.93 1827.05 267.99 1811.51 276.05 1811.51 525 1842.59 528.88 1842.59 279.93"/><polygon class="cls-16" points="1803.88 275.09 1788.35 263.15 1772.81 271.21 1772.81 520.16 1803.88 524.04 1803.88 275.09"/><polygon class="cls-16" points="1765.18 270.26 1749.64 258.31 1734.1 266.37 1734.1 515.32 1765.18 519.21 1765.18 270.26"/><polygon class="cls-16" points="1726.47 265.42 1710.94 253.47 1695.4 261.53 1695.4 510.48 1726.47 514.37 1726.47 265.42"/><polygon class="cls-16" points="1649.06 255.74 1633.53 243.8 1617.99 251.86 1617.99 500.81 1649.06 504.69 1649.06 255.74"/><polygon class="cls-16" points="1610.36 250.9 1594.82 238.96 1579.28 247.02 1579.28 495.97 1610.36 499.85 1610.36 250.9"/><polygon class="cls-16" points="1571.65 246.06 1556.12 234.12 1540.58 242.18 1540.58 491.13 1571.65 495.01 1571.65 246.06"/><polygon class="cls-16" points="1532.95 241.23 1517.41 229.28 1501.87 237.34 1501.87 486.29 1532.95 490.18 1532.95 241.23"/><polygon class="cls-16" points="1494.24 236.39 1478.7 224.45 1463.17 232.5 1463.17 481.45 1494.24 485.34 1494.24 236.39"/><polygon class="cls-16" points="1416.83 226.71 1401.3 214.77 1385.76 222.83 1385.76 471.78 1416.83 475.66 1416.83 226.71"/><polygon class="cls-16" points="1378.13 221.87 1362.59 209.93 1347.05 217.99 1347.05 466.94 1378.13 470.82 1378.13 221.87"/><polygon class="cls-16" points="1339.42 217.04 1323.88 205.09 1308.35 213.15 1308.35 462.1 1339.42 465.99 1339.42 217.04"/><polygon class="cls-16" points="1300.72 212.2 1285.18 200.26 1269.64 208.31 1269.64 457.26 1300.72 461.15 1300.72 212.2"/><polygon class="cls-16" points="1262.01 207.36 1246.47 195.42 1230.94 203.47 1230.94 452.43 1262.01 456.31 1262.01 207.36"/><polygon class="cls-16" points="1184.6 197.68 1169.06 185.74 1153.53 193.8 1153.53 442.75 1184.6 446.63 1184.6 197.68"/><polygon class="cls-16" points="1145.9 192.84 1130.36 180.9 1114.82 188.96 1114.82 437.91 1145.9 441.8 1145.9 192.84"/><polygon class="cls-16" points="1107.19 188.01 1091.65 176.06 1076.12 184.12 1076.12 433.07 1107.19 436.96 1107.19 188.01"/><polygon class="cls-16" points="1068.49 183.17 1052.95 171.23 1037.41 179.28 1037.41 428.24 1068.49 432.12 1068.49 183.17"/><polygon class="cls-16" points="1029.78 178.33 1014.24 166.39 998.71 174.45 998.71 423.4 1029.78 427.28 1029.78 178.33"/><path class="cls-5" d="M919.49,415.85s10.6-3,5.3-6.81-2.27-8.33-2.27-8.33l-3.79-8.33-6.05.76-3.79-15.9s-4.54-7.57-6.81-6.81-1.51-20.44-6.81-16.65-12.12,3-12.12,3l-5.29-1.52-3-9.84-5.3-3.78-6.81,3.78-7.57-3.78s-1.52-9.85-5.3-6.82a49.62,49.62,0,0,0-7.57,8.33s-.76-.76-6.06,0-3.78,6.81-3.78,6.81l-6.06,5.3s-3-4.54-5.3-3.78-6.81-2.27-6.81,2.27-5.3,9.84-5.3,9.84l-5.3-3s-4.54,0-5.3,3-3.78,3-6,5.3a33.92,33.92,0,0,0-3.79,4.54,39.36,39.36,0,0,0-5.3,8.33c-1.51,3.78-3.78,1.51-3,8.32S785.5,403,785.5,403l-6.81,3-.76,6.06,5.3,5.29s1.52,4.55-1.51,6.06-7.57-6.81-6.81,1.51l.75,8.33,5.3,2.27-3.78,6.06a13.3,13.3,0,0,0,3,7.57c3,3.78,6.06,4.54,6.06,9.84s4.54-.06,4.54-.06l7.57.45.76.44s101.44-.76,99.16-.76,2.28,1.44,2.28,1.44,9.84-2.27,7.57-3.78,0-9.09,0-9.09,3,0,3.78-3.78a12.78,12.78,0,0,0,0-6.06,3.14,3.14,0,0,0,4.54,0c2.27-2.27-1.51-7.57-1.51-7.57l4.54-3.78S931.6,424.18,919.49,415.85Z"/><path class="cls-6" d="M915.74,433.15l-8.34-4.91,3.92-8.84s.49,6.88-6.38,4.42-5.89-10.31-8.83-6.38,1,7.85,1,7.85l-6.87,1.48,3.92,3.92-8.34,1.48s2.94-8.84-.49-9.82-7.37,5.4-7.37,5.4l-5.89-3.44.5-11.29-10.31,3.44-2.46-12.27,11.29,2.45-.49-12.27s-6.38,4.91-8.83,2.45,7.85-3.43,3.92-5.89-8.34,1-8.34,1L849.48,389l5.89-3.43-13.26-.5s2.46-9.32,4.91-6.87,8.84-3.92,7.36-4.91-9.81-7.36-9.81-7.36,1.47,9.33,0,9.33-11.29-1.48-11.29-1.48l2,2.95-7.36,4.42s-1.47,4.42,2.45,4.42,10.8,2.94,6.87,7.85S822,399.77,822,399.77l-1.47-13.25-5.4.49,2-11.78,4.91.49-3.93-3.93s-3.93,6.38-8.34,5.4-3.93-7.85-2.46-7.36,6.87-2.95,6.87-2.95l-6.87-2.45s-2-7.36-3.92-6.38-7.37,6.87-7.37,6.87l-7.36,2.94-.08,5.6s1.06.79-3.85,4.22-3.92,10.8-3.92,10.8,2.94,3.93,1.47,4.42-7.36,4.42-7.36,4.42l3.82,8.69s-5.79-.35-5.79,5.05,3,7.36,3,7.36l-4.42,5.4,2,6.38s3.44,4.91,1.48,6.87,4.91,5.4,4.91,5.4l-2.46,2.46,3.93,13.74,2.45,3.93H901s10.81-3.4,7.13-5.87,2.2-6.4,2.2-6.4l8.84-.49-5.4-4.42,6.38-5.4Z"/><polygon class="cls-3" points="923.6 412.97 927.05 412.1 921.87 404.33 918.73 392.38 912.68 393.14 916.69 400.88 919.49 415.85 923.6 412.97"/><polygon class="cls-3" points="910.64 383.61 908.3 377.36 905.46 369.79 902.08 370.43 902.01 358.56 895.27 353.78 889.06 355.11 876.1 349.93 876.97 358.56 887.33 358.56 894.24 362.88 895.97 374.97 910.64 383.61"/><path class="cls-5" d="M817.76,442.1s6.64-1.17,3.44-3.18-1.21-4.13-1.21-4.13l-2.16-4.19-3.77.19-2-7.88s-2.64-3.83-4.07-3.53-.46-10-3.84-8.34a14.88,14.88,0,0,1-7.59,1.12l-3.25-.9-1.65-4.9-3.2-2L784.16,406l-4.61-2.07s-.71-4.86-3.13-3.49a27.43,27.43,0,0,0-4.89,3.85s-.46-.4-3.76-.18a2.47,2.47,0,0,0-2.51,3.21l-3.88,2.41s-1.78-2.31-3.21-2-4.17-1.31-4.28.91-3.52,4.65-3.52,4.65l-3.21-1.64s-2.82-.13-3.36,1.32-2.42,1.37-3.89,2.41a18.39,18.39,0,0,0-2.45,2.11,19.45,19.45,0,0,0-3.49,3.92c-1,1.8-2.38.62-2.07,4s3,6.44,3,6.44l-4.3,1.28-.61,2.94,3.16,2.75s.84,2.26-1.08,2.91-4.54-3.55-4.26.54l.27,4.09,3.24,1.27-2.49,2.85a5.69,5.69,0,0,0,1.7,3.79c1.79,1.94,3.65,2.4,3.53,5s2.82.11,2.82.11l4.69.44.46.23s63,2.64,61.57,2.57,1.38.78,1.38.78,6.16-.82,4.78-1.63.22-4.44.22-4.44a2.47,2.47,0,0,0,2.43-1.74,5,5,0,0,0,.14-3,2.33,2.33,0,0,0,2.82.14c1.47-1-.76-3.75-.76-3.75l2.91-1.71S825.08,446.53,817.76,442.1Z"/><path class="cls-6" d="M815,450.44,810,447.79l2.64-4.2s.15,3.38-4.06,2-3.42-5.21-5.34-3.38.43,3.87.43,3.87l-4.3.51,2.35,2-5.22.47s2-4.23-.07-4.81-4.7,2.42-4.7,2.42l-3.58-1.85.57-5.51-6.48,1.38L781,434.63l6.95,1.53,0-6s-4.08,2.21-5.54.93,4.95-1.44,2.57-2.76-5.2.23-5.2.23l-4.81-1.67,3.74-1.5-8.21-.64s1.74-4.48,3.2-3.21,5.58-1.66,4.69-2.18-5.92-3.89-5.92-3.89.69,4.6-.22,4.56-7-1.06-7-1.06l1.15,1.5-4.68,1.94a1.46,1.46,0,0,0,1.42,2.24c2.44.11,6.64,1.75,4.08,4s-9.59,2.67-9.59,2.67l-.6-6.53-3.37.08,1.5-5.7,3,.39-2.34-2s-2.59,3-5.31,2.39-2.25-3.95-1.35-3.67S753.5,415,753.5,415l-4.2-1.41s-1-3.65-2.29-3.23a31.16,31.16,0,0,0-4.73,3.14l-4.64,1.22-.18,2.73s.64.42-2.49,1.95-2.69,5.16-2.69,5.16,1.74,2,.81,2.21a47.16,47.16,0,0,0-4.67,1.94l2.17,4.36s-3.58-.34-3.71,2.3a4,4,0,0,0,1.66,3.68l-2.87,2.51,1.07,3.18s2,2.5.75,3.4,2.92,2.79,2.92,2.79l-1.58,1.12,2.12,6.84,1.43,2,72.82,3.48s6.78-1.34,4.55-2.66,1.52-3.06,1.52-3.06l5.5,0-3.25-2.32,4.09-2.45Z"/><polygon class="cls-3" points="820.37 440.81 822.54 440.49 819.5 436.54 817.83 430.6 814.06 430.79 816.37 434.69 817.76 442.1 820.37 440.81"/><polygon class="cls-3" points="813.02 426.07 811.71 422.95 810.13 419.17 808.01 419.38 808.24 413.58 804.17 411.04 800.28 411.5 792.36 408.59 792.7 412.83 799.13 413.14 803.32 415.46 804.11 421.42 813.02 426.07"/><path class="cls-5" d="M1022,360s10.6-5.12,5.3-11.52S1025,334.4,1025,334.4l-3.79-14.08-6.05,1.28-3.79-26.88s-4.54-12.79-6.81-11.51-1.51-34.56-6.81-28.16a13.39,13.39,0,0,1-12.11,5.12l-5.3-2.56-3-16.64-5.3-6.4-6.81,6.4-7.57-6.4s-1.52-16.64-5.3-11.52-7.57,14.08-7.57,14.08-.76-1.28-6.06,0-3.78,11.52-3.78,11.52l-6.06,9s-3-7.68-5.3-6.4-6.81-3.84-6.81,3.84-5.3,16.64-5.3,16.64l-5.3-5.12a5.55,5.55,0,0,0-5.3,5.12c-.75,5.12-3.78,5.12-6.05,9a61.76,61.76,0,0,0-3.79,7.68,81,81,0,0,0-5.3,14.07c-1.51,6.4-3.78,2.56-3,14.08a72.07,72.07,0,0,0,5.3,21.76l-6.82,5.12-.75,10.24,5.29,9s1.52,7.68-1.51,10.24-7.57-11.52-6.81,2.55l.75,14.08,5.3,3.84-3.78,10.24a33.4,33.4,0,0,0,3,12.8c3,6.4,6.05,7.68,6.05,16.64s4.54-.09,4.54-.09l7.57.74.76.75s101.44-1.28,99.17-1.28,2.27,2.44,2.27,2.44,9.84-3.84,7.57-6.4,0-15.36,0-15.36,3,0,3.78-6.4a36.11,36.11,0,0,0,0-10.24s2.27,3.84,4.54,0-1.51-12.8-1.51-12.8l4.54-6.4S1034.06,374.08,1022,360Z"/><path class="cls-6" d="M1018.2,389.24l-8.34-8.3,3.92-14.94s.49,11.62-6.38,7.47-5.89-17.42-8.83-10.79,1,13.28,1,13.28l-6.87,2.49,3.92,6.64-8.34,2.49s2.94-14.94-.49-16.6-7.36,9.13-7.36,9.13l-5.89-5.81.49-19.08L964.7,361l-2.46-20.74,11.29,4.15L973,323.68s-6.38,8.3-8.83,4.15,7.85-5.81,3.93-10-8.35,1.66-8.35,1.66l-7.85-5,5.89-5.81-13.26-.83s2.46-15.76,4.91-11.62,8.84-6.63,7.37-8.29S947,275.55,947,275.55s1.47,15.77,0,15.77-11.29-2.49-11.29-2.49l2,5-7.36,7.47s-1.47,7.47,2.45,7.47,10.8,5,6.88,13.28-15.22,10.79-15.22,10.79L923,310.4l-5.4.83,2-19.91,4.91.83-3.93-6.64s-3.92,10.78-8.34,9.12-3.93-13.27-2.46-12.44,6.88-5,6.88-5l-6.88-4.15s-2-12.45-3.92-10.79-7.36,11.62-7.36,11.62l-7.37,5-.08,9.46s1.06,1.33-3.84,7.13-3.93,18.26-3.93,18.26,2.94,6.64,1.47,7.47-7.36,7.47-7.36,7.47l3.82,14.7s-5.78-.59-5.78,8.54,2.94,12.44,2.94,12.44l-4.42,9.13,2,10.79s3.43,8.3,1.47,11.62,4.91,9.13,4.91,9.13l-2.46,4.15,3.93,23.23,2.45,6.64h117.32s10.8-5.74,7.12-9.92,2.2-10.82,2.2-10.82l8.84-.83-5.4-7.47,6.38-9.13Z"/><polygon class="cls-3" points="1026.06 355.12 1029.51 353.66 1024.33 340.52 1021.2 320.32 1015.14 321.6 1019.15 334.68 1021.95 360 1026.06 355.12"/><polygon class="cls-3" points="1013.11 305.48 1010.76 294.92 1007.93 282.12 1004.54 283.21 1004.47 263.14 997.73 255.05 991.52 257.3 978.57 248.54 979.43 263.14 989.79 263.14 996.7 270.44 998.43 290.88 1013.11 305.48"/><path class="cls-5" d="M1132.08,420.93s10.59-2.93,5.29-6.58-2.27-8-2.27-8l-3.78-8-6.06.73-3.78-15.35s-4.54-7.3-6.81-6.57-1.52-19.73-6.82-16.08-12.11,2.92-12.11,2.92l-5.3-1.46-3-9.5-5.3-3.65L1075.3,353l-7.57-3.65s-1.51-9.5-5.3-6.58a49.21,49.21,0,0,0-7.57,8s-.75-.73-6,0-3.79,6.58-3.79,6.58l-6,5.11s-3-4.38-5.3-3.65-6.82-2.19-6.82,2.19-5.29,9.5-5.29,9.5l-5.3-2.92s-4.55,0-5.3,2.92-3.79,2.92-6.06,5.11a32.84,32.84,0,0,0-3.78,4.39s-3.79,4.38-5.3,8-3.79,1.46-3,8,5.3,12.42,5.3,12.42l-6.81,2.93-.76,5.84,5.3,5.12s1.51,4.38-1.52,5.84-7.57-6.57-6.81,1.46l.76,8,5.3,2.19-3.79,5.85a12.55,12.55,0,0,0,3,7.31c3,3.65,6.06,4.38,6.06,9.49s4.54-.05,4.54-.05l7.57.43.75.42s101.44-.73,99.17-.73,2.27,1.4,2.27,1.4,9.84-2.2,7.57-3.66,0-8.77,0-8.77,3,0,3.79-3.65a12,12,0,0,0,0-5.84,3.22,3.22,0,0,0,4.54,0c2.27-2.2-1.52-7.31-1.52-7.31l4.55-3.65S1144.19,429,1132.08,420.93Z"/><path class="cls-6" d="M1128.33,437.62l-8.35-4.74,3.93-8.52s.49,6.63-6.38,4.26-5.89-9.95-8.84-6.16,1,7.58,1,7.58l-6.87,1.42,3.93,3.79-8.35,1.42s2.95-8.52-.49-9.47-7.36,5.21-7.36,5.21l-5.89-3.32.49-10.89-10.31,3.31-2.45-11.84,11.29,2.37-.49-11.85s-6.38,4.74-8.84,2.37,7.86-3.31,3.93-5.68-8.35.94-8.35.94l-7.85-2.84,5.89-3.32-13.25-.47s2.45-9,4.91-6.63,8.83-3.79,7.36-4.74-9.82-7.11-9.82-7.11,1.48,9,0,9-11.29-1.43-11.29-1.43l2,2.85-7.37,4.26s-1.47,4.26,2.46,4.26,10.8,2.85,6.87,7.59-15.22,6.15-15.22,6.15l-1.47-12.79-5.4.48,2-11.37,4.9.47-3.92-3.79s-3.93,6.16-8.35,5.21-3.92-7.58-2.45-7.11,6.87-2.84,6.87-2.84l-6.87-2.37s-2-7.1-3.93-6.16-7.36,6.64-7.36,6.64l-7.36,2.84-.08,5.4s1.06.76-3.85,4.07-3.93,10.43-3.93,10.43,2.95,3.79,1.48,4.26-7.37,4.27-7.37,4.27l3.83,8.39s-5.79-.34-5.79,4.87,2.94,7.11,2.94,7.11L984,428.62l2,6.16s3.44,4.74,1.47,6.63,4.91,5.21,4.91,5.21L989.91,449l3.92,13.27,2.46,3.79H1113.6s10.81-3.28,7.12-5.67,2.21-6.18,2.21-6.18l8.83-.47-5.4-4.26,6.38-5.22Z"/><polygon class="cls-3" points="1136.18 418.14 1139.64 417.31 1134.46 409.81 1131.32 398.27 1125.26 399.01 1129.28 406.47 1132.08 420.93 1136.18 418.14"/><polygon class="cls-3" points="1123.23 389.8 1120.89 383.77 1118.05 376.47 1114.66 377.09 1114.6 365.63 1107.85 361.01 1101.64 362.3 1088.69 357.3 1089.55 365.63 1099.91 365.63 1106.82 369.8 1108.55 381.47 1123.23 389.8"/><path class="cls-5" d="M1180.23,430s6.22-2.87,2.6-4.69-2.19-4.89-2.19-4.89l-3.12-4.75-3.65,1-3.85-9.4s-3.51-4.21-4.83-3.53-2.89-12.4-5.78-9.57a12.11,12.11,0,0,1-7.15,3l-3.4-.42-2.8-5.75-3.62-1.82-3.82,3-5-1.6s-1.87-5.9-3.9-3.67a30.61,30.61,0,0,0-3.85,5.83s-.54-.39-3.72.58-1.67,4.55-1.67,4.55l-3.21,3.83s-2.3-2.49-3.62-1.81-4.4-.74-4,2.05-2.31,6.55-2.31,6.55l-3.55-1.36s-2.79.44-3,2.37-2,2.22-3.21,3.84a20.52,20.52,0,0,0-1.89,3.15,24.1,24.1,0,0,0-2.45,5.62c-.57,2.47-2.18,1.29-1.07,5.4a18.79,18.79,0,0,0,4.49,7.39l-3.89,2.52.11,3.79,3.77,2.74s1.36,2.65-.35,3.87-5.3-3.46-4,1.58l1.26,5,3.47.88-1.74,4.09a8.21,8.21,0,0,0,2.58,4.35c2.23,2,4.16,2.21,4.67,5.46s2.78-.46,2.78-.46l4.69-.46.51.2,60.81-10c-1.39.22,1.53.67,1.53.67s5.83-2.34,4.29-3.05-.87-5.58-.87-5.58a2.57,2.57,0,0,0,2-2.69,8,8,0,0,0-.58-3.71,2,2,0,0,0,2.79-.44c1.17-1.61-1.66-4.5-1.66-4.5l2.43-2.76S1188.47,434,1180.23,430Z"/><path class="cls-6" d="M1179.59,441l-5.6-2.21,1.57-5.8s1,4.17-3.5,3.32-4.6-5.76-6-3.07,1.35,4.73,1.35,4.73l-4.08,1.56,2.79,2-5,1.71s1-5.71-1.24-6-4,4-4,4l-3.94-1.55-.78-7-6,3.09-2.69-7.3,7.17.43-1.48-7.49s-3.44,3.63-5.19,2.35,4.5-2.86,1.85-4-5,1.4-5,1.4l-5.1-1.05,3.28-2.67-8.18,1s.61-6,2.35-4.69,5.05-3.25,4.05-3.72-6.73-3.57-6.73-3.57,1.8,5.58.9,5.72-7.08.18-7.08.18l1.49,1.62-4.1,3.42s-.48,2.85,1.93,2.47,6.92.78,5,4.17-8.73,5.37-8.73,5.37l-2.18-8-3.27.82.08-7.42,3.06-.17-2.79-2s-1.8,4.3-4.6,4.12-3.17-4.45-2.22-4.29,3.94-2.46,3.94-2.46l-4.45-.85s-1.91-4.34-3-3.54-3.86,4.92-3.86,4.92l-4.24,2.51.49,3.45s.73.38-2,3-1.37,7-1.37,7,2.18,2.13,1.33,2.58a44,44,0,0,0-4.1,3.41l3.18,5s-3.59.34-3.07,3.65,2.51,4.24,2.51,4.24l-2.19,3.74,1.82,3.73s2.58,2.68,1.56,4.08,3.53,2.84,3.53,2.84l-1.27,1.74,3.73,8.06,1.88,2.18,72-11.25s6.31-3.12,3.81-4.28.74-4.14.74-4.14l5.38-1.15-3.74-2.2,3.4-3.92Z"/><polygon class="cls-3" points="1182.48 427.84 1184.52 426.98 1180.59 422.7 1177.52 415.67 1173.87 416.71 1177.08 421.08 1180.23 430 1182.48 427.84"/><polygon class="cls-3" points="1171.71 411.05 1169.67 407.44 1167.2 403.07 1165.19 403.78 1164.01 396.5 1159.41 394.21 1155.72 395.63 1147.27 393.69 1148.63 398.9 1154.99 397.91 1159.65 399.9 1161.87 407.16 1171.71 411.05"/><circle class="cls-7" cx="740.89" cy="426.82" r="2.26"/><circle class="cls-7" cx="771.43" cy="440.2" r="2.26"/><circle class="cls-7" cx="746.51" cy="448.37" r="2.26"/><circle class="cls-7" cx="794.63" cy="397.81" r="2.26"/><circle class="cls-7" cx="803.46" cy="380.96" r="2.26"/><circle class="cls-7" cx="1130.36" cy="424.16" r="2.26"/><circle class="cls-7" cx="1151.26" cy="405.71" r="2.26"/><circle class="cls-7" cx="1170.34" cy="438.55" r="2.26"/><circle class="cls-7" cx="1085.53" cy="369.03" r="2.26"/><circle class="cls-7" cx="1062" cy="382.11" r="2.26"/><circle class="cls-7" cx="1089.66" cy="393.83" r="2.26"/><circle class="cls-7" cx="1041.68" cy="405.55" r="2.26"/><circle class="cls-7" cx="830.61" cy="388.81" r="2.26"/><circle class="cls-7" cx="832.63" cy="413.29" r="2.26"/><path class="cls-17" d="M1989.29,730.24c0,10.86-15.43,17.67-26.49,27.15-8.09,6.93-15.29,17.19-28.27,23-10.44,4.69-21.47,11.72-34.56,15.52-11.39,3.31-23.48,8.83-36.55,11.34-11.9,2.29-24.54,6.79-37.58,8.34-12.17,1.44-25.45,1.37-38.44,2.11-12.35.7-25.47-8.58-38.39-8.58s-25.55,1.79-37.91,1.09c-13-.74-26.54,5.34-38.72,3.9-13-1.55-26-4.16-37.86-6.45-13.08-2.51-24.11-11.38-35.51-14.69-13.09-3.8-26.23-5.62-36.67-10.31-13-5.84-17.78-19.65-25.88-26.59-11.06-9.48-14.06-15-14.06-25.86s-7.43-27.18,3.63-36.66c8.09-6.93,21.56-13.45,34.54-19.28,10.45-4.7,27.5,3.51,40.59-.29,11.39-3.31,21.32-13.94,34.4-16.46,11.89-2.29,24.92-1.16,38-2.71,12.18-1.45,24.21-9.86,37.2-10.6,12.35-.7,25.38,0,38.29,0s25.82,1.33,38.17,2c13,.74,25.14,7.22,37.32,8.67,13,1.55,27.3-5.26,39.2-3,13.07,2.52,25.72,6.73,37.12,10a278.4,278.4,0,0,1,36,13.57c13,5.83,18.73,19.73,26.82,26.67C1974.72,711.69,1989.29,719.38,1989.29,730.24Z"/><path class="cls-18" d="M1770.07,740.3s25.07-28,29.31-53.61-.91-254.89-15-295.21-117.09-222.95-117.09-222.95,43.18,27.56,70.52,82.73,49.57,129.06,64.57,94.58,68.64-411,68.64-411l10.87,20s-52,424.91-57.43,491.37-1.18,279.34,11,296.06c7.77,10.63-15.38,11.77-33.27,11.2a49.7,49.7,0,0,1-31.5-12.61Z"/><path class="cls-19" d="M1678.9,247.17s39,14,53.89-1.81-4.36-15.15,14.89-15.79,61.93,8.11,61.93,8.11l33.87-24.08,68.61-22.69s31.13,9.15,38.4-3.84,17.63-49,17.37-56.67,24.47-74.74,24.47-74.74l-6.58-196.07L1429.39-68.2s-71.26,58.47-36,75.13,28.15,34.75,28.15,34.75-22.67,13.5,4.61,22.78a158,158,0,0,1,47.14,26.46s-49.45,19.51-29.6,36.69,62.71,29,62.71,29l20.26,31.91,42.09-9.06L1585,204.44s26.26-21.28,38.41-3.84-2.83,30.68-2.83,30.68Z"/><path class="cls-20" d="M1669.49,196.5s6.33-41,30-23.95,46.28,1,46.28,1-8.13-12.48,18.9-10.83,19.85,17.17,19.85,17.17l45.16-32.1L1809.61,123s22-33.88,30.2-18.86,27.2,6.74,27.2,6.74l-4.88-30.43,26.35-18.73,15.83,12.22,26.6-11.09,82.37,43.12-45.42,24.46s12.4,25.08,8.81,32.85-26.18,23.82-26.18,23.82l2.47,33.44s-33.17-29.86-48.23-19.16-61.25,12.25-61.25,12.25-7.78-2.28-11.2,10.58-22.67,13.5-22.67,13.5l-46.36-3.54L1706,251.36l-26.69,8.54-16-17.31-45.85,11.74-19.93-19.72,26.35-18.73Z"/><line class="cls-21" x1="1585.35" y1="90.51" x2="1585.35" y2="536.7"/><path class="cls-22" d="M1583.09,544c-3.77-.49-6.83-4.77-6.49-9.08s4-7.89,7.8-7.6"/><line class="cls-23" x1="1554.25" y1="549.65" x2="1617.62" y2="519.27"/><path class="cls-21" d="M1587.34,527.28a7.33,7.33,0,0,1-1.32,14.6"/><path class="cls-24" d="M1583.87,526.13c2.42.52,4.39,5.1,4.17,9.7s-2.59,8.43-5,8.12"/><path class="cls-20" d="M1410.48,57.34s56.8-29.95,69-12.51,23.69,17.05,23.69,17.05l11-15.67,30.62-6.12,24.07,28.81,34-20.56s7.79,2.28,27.12,4.18,59.26-17.16,59.26-17.16,51.68-6.95,36.89,11.39-64.42,32.75-64.42,32.75l62,10.66S1644,126,1643.66,115.79,1601,107,1601,107l-22.41,21.15L1517,130.24l-41.83,16.7s-46.37-3.54-46.71-13.72,37.47-31.85,37.47-31.85l-8.55-25.21-30.54,8.68S1368.48,69,1410.48,57.34Z"/><polygon class="cls-13" points="609.72 411.19 619.28 419.06 628.21 416.45 631.19 407.04 628.71 422.4 634.82 437.59 640.24 458.53 619.28 461.15 601.49 463.37 607.74 433.47 609.72 411.19"/><polygon class="cls-12" points="634.82 437.59 628.71 422.4 631.19 407.04 628.21 416.45 621.13 418.52 619.28 424.69 627.33 441.7 631.79 459.58 640.24 458.53 634.82 437.59"/><path class="cls-3" d="M1770.37,725.42a32.8,32.8,0,0,0,6.8,15.63,33.31,33.31,0,0,1,9.34-11.43,27,27,0,0,0,0,16.08,13.19,13.19,0,0,1,9-5.28c-.35,3.12,1.87,6.33,5.17,7.47,1.58-4.25,5.9-7.61,10.87-8.46l1.19,7a7.22,7.22,0,0,0,6.57-4.49c1-2.46.79-5.18.4-7.77s-.92-5.23-.47-7.82a27.78,27.78,0,0,0,9,16.17c.45-3.74,1.13-7.6,3.45-10.75s6.69-5.42,10.81-4.47a10.79,10.79,0,0,0-7,8.89,10.37,10.37,0,0,0,5.67,9.58,19.62,19.62,0,0,1,2.78,1.54,2.55,2.55,0,0,1,1.13,2.58c-.35,1.14-1.76,1.71-3,2.1a118.4,118.4,0,0,1-69.12-.11,49.71,49.71,0,0,1-9.36-3.79,17.53,17.53,0,0,1-3.92-2.65c-.45-.44-.3-.66.32-.76,1.75-.29,3.9.06,5.17-1.31a21.33,21.33,0,0,0,4.36-8,22,22,0,0,0,.94-8.88C1770.48,726.15,1770.43,725.79,1770.37,725.42Z"/><path class="cls-17" d="M1770.37,725.42a32.8,32.8,0,0,0,6.8,15.63,33.31,33.31,0,0,1,9.34-11.43,27,27,0,0,0,0,16.08,13.19,13.19,0,0,1,9-5.28c-.35,3.12,1.87,6.33,5.17,7.47,1.58-4.25,5.9-7.61,10.87-8.46l1.19,7a7.22,7.22,0,0,0,6.57-4.49c1-2.46.79-5.18.4-7.77s-.92-5.23-.47-7.82a27.78,27.78,0,0,0,9,16.17c.45-3.74,1.13-7.6,3.45-10.75s6.69-5.42,10.81-4.47a10.79,10.79,0,0,0-7,8.89,10.37,10.37,0,0,0,5.67,9.58,19.62,19.62,0,0,1,2.78,1.54,2.55,2.55,0,0,1,1.13,2.58c-.35,1.14-1.76,1.71-3,2.1a118.4,118.4,0,0,1-69.12-.11,49.71,49.71,0,0,1-9.36-3.79,17.53,17.53,0,0,1-3.92-2.65c-.45-.44-.3-.66.32-.76,1.75-.29,3.9.06,5.17-1.31a21.33,21.33,0,0,0,4.36-8,22,22,0,0,0,.94-8.88C1770.48,726.15,1770.43,725.79,1770.37,725.42Z"/><ellipse class="cls-17" cx="508.08" cy="570.22" rx="80.4" ry="22.05"/><path class="cls-25" d="M563.59,378.6c-13.08-4.43-33.08-7.27-55.51-7.27s-42.43,2.84-55.51,7.27H436.74V566.92c0,10.81,31.94,19.56,71.34,19.56s71.34-8.75,71.34-19.56V378.6Z"/><ellipse class="cls-26" cx="508.08" cy="378.6" rx="71.34" ry="19.56"/><path class="cls-27" d="M508.08,558.17c-39.4,0-71.34-8.76-71.34-19.57v18.32c0,10.81,31.94,19.56,71.34,19.56s71.34-8.75,71.34-19.56V538.6C579.42,549.41,547.48,558.17,508.08,558.17Z"/><path class="cls-27" d="M508.08,407.79c-39.4,0-71.34-8.76-71.34-19.56v18.31c0,10.81,31.94,19.57,71.34,19.57s71.34-8.76,71.34-19.57V388.23C579.42,399,547.48,407.79,508.08,407.79Z"/><path class="cls-27" d="M508.08,465.79c-39.4,0-71.34-8.76-71.34-19.56v48.31c0,10.81,31.94,19.57,71.34,19.57s71.34-8.76,71.34-19.57V446.23C579.42,457,547.48,465.79,508.08,465.79Z"/><ellipse class="cls-27" cx="508.08" cy="377.86" rx="67.85" ry="17.86"/><ellipse class="cls-28" cx="508.08" cy="387.86" rx="56.22" ry="7.86"/><line class="cls-29" x1="497.44" y1="364.92" x2="497.44" y2="196.46"/><line class="cls-30" x1="500.52" y1="199.72" x2="308.03" y2="163.77"/><path class="cls-13" d="M509.23,384.32A32.34,32.34,0,0,0,521,372.59l1.68-1.68L502.73,351c-1.15-1.14-5.45,1.31-9.61,5.48s-6.62,8.46-5.48,9.61L507.55,386Z"/><ellipse class="cls-31" cx="515.09" cy="378.45" rx="10.67" ry="2.93" transform="translate(-116.74 475.07) rotate(-45)"/><ellipse class="cls-13" cx="515.17" cy="378.53" rx="10.15" ry="2.67" transform="translate(-116.77 475.15) rotate(-45)"/><ellipse cx="514.12" cy="377.48" rx="8.41" ry="1.18" transform="translate(-116.33 474.09) rotate(-45)"/><polygon class="cls-17" points="-308.46 587.39 150.06 647.21 557.41 594.2 -45.6 482.06 -308.46 587.39"/><polygon class="cls-32" points="508.79 204.07 277.22 169.28 383.31 138.04 508.79 204.07"/><polygon class="cls-33" points="472.83 188.58 472.83 586.54 456.54 588.58 189.59 621.95 173.29 623.98 173.29 226.02 323.06 137.3 472.83 188.58"/><polygon class="cls-34" points="-222.6 174.03 173.29 225.4 173.29 623.98 -222.6 572.62 -222.6 174.03"/><line class="cls-35" x1="173.29" y1="623.98" x2="-222.6" y2="572.61"/><line class="cls-35" x1="173.29" y1="574.16" x2="-222.6" y2="522.79"/><line class="cls-35" x1="173.29" y1="524.34" x2="-222.6" y2="472.97"/><line class="cls-35" x1="173.29" y1="474.52" x2="-222.6" y2="423.15"/><line class="cls-35" x1="173.29" y1="424.69" x2="-222.6" y2="373.32"/><line class="cls-35" x1="173.29" y1="374.87" x2="-222.6" y2="323.5"/><line class="cls-35" x1="173.29" y1="325.05" x2="-222.6" y2="273.68"/><line class="cls-35" x1="173.29" y1="275.23" x2="-222.6" y2="223.86"/><line class="cls-35" x1="173.29" y1="225.4" x2="-222.6" y2="174.03"/><line class="cls-35" x1="173.29" y1="623.98" x2="472.83" y2="586.54"/><line class="cls-35" x1="173.29" y1="574.16" x2="472.83" y2="536.72"/><line class="cls-35" x1="173.29" y1="524.34" x2="472.83" y2="486.9"/><line class="cls-35" x1="173.29" y1="474.52" x2="472.83" y2="437.07"/><line class="cls-35" x1="173.29" y1="424.69" x2="472.83" y2="387.25"/><line class="cls-35" x1="173.29" y1="374.87" x2="472.83" y2="337.43"/><line class="cls-35" x1="173.29" y1="325.05" x2="472.83" y2="287.61"/><line class="cls-35" x1="173.29" y1="275.23" x2="472.83" y2="237.78"/><line class="cls-35" x1="173.29" y1="225.4" x2="472.83" y2="187.96"/><polygon class="cls-32" points="223.29 254.51 422.83 224.31 422.83 579.49 223.29 604.43 223.29 254.51"/><polygon class="cls-36" points="416.45 390.32 401.48 392.19 401.48 436.26 403.28 436.04 416.45 434.39 416.45 390.32"/><polygon class="cls-36" points="435.87 396.6 428.29 397.54 428.29 419.86 429.2 419.75 435.87 418.91 435.87 396.6"/><polygon class="cls-36" points="391.22 418.46 392.38 408.65 445.04 402.73 444.9 403.91 443.88 412.53 391.22 418.46"/><line class="cls-35" x1="223.29" y1="254.51" x2="223.29" y2="604.72"/><line class="cls-35" x1="273.18" y1="246.96" x2="273.18" y2="598.41"/><line class="cls-35" x1="323.06" y1="239.41" x2="323.06" y2="592.1"/><line class="cls-35" x1="372.95" y1="231.86" x2="372.95" y2="585.79"/><polygon class="cls-37" points="173.29 226.02 173.29 225.4 -222.6 174.03 -222.6 247.22 173.29 298.59 405.08 167.51 472.83 188.58 323.06 137.3 173.29 226.02"/><polygon class="cls-38" points="310.18 343.62 314.04 346.48 300.26 371.08 296.39 368.22 310.18 343.62"/><polygon class="cls-38" points="428.29 443.37 432.93 442.08 443.86 468.07 439.22 469.37 428.29 443.37"/><polygon class="cls-38" points="603.6 526.54 607.82 528.84 597.57 555.12 593.35 552.82 603.6 526.54"/><path class="cls-39" d="M595.34,541.26C584,536.87,584,544,584,544l1.2,1.74-132.9-83.7V640.48l154.47,87.78V559.33S607.52,547.5,595.34,541.26Z"/><polygon class="cls-40" points="606.72 698.2 452.25 609.99 452.25 625.13 606.72 712.91 606.72 698.2"/><polygon class="cls-40" points="606.72 672.63 452.25 584.42 452.25 599.57 606.72 687.35 606.72 672.63"/><path class="cls-41" d="M199.5,250s138,194.16,437.79,319.26"/><path class="cls-42" d="M452.25,462.05c-22.43-12.29-21.57,11.55-21.57,11.55V689.53L585.15,777.3V558.19h0s-1.2-22.38,10.19-16.94Z"/><polygon class="cls-43" points="585.15 744.6 430.68 656.39 430.68 671.54 585.15 759.32 585.15 744.6"/><polygon class="cls-43" points="585.15 719.04 430.68 630.83 430.68 645.97 585.15 733.75 585.15 719.04"/><rect class="cls-44" x="305.61" y="344.22" width="4.84" height="32.46" transform="translate(291.44 834.3) rotate(-137.48)"/><rect class="cls-44" x="437.2" y="438.4" width="4.84" height="32.46" transform="translate(948.56 830.04) rotate(170.45)"/><rect class="cls-44" x="601.47" y="526.28" width="4.84" height="32.46" transform="translate(793.34 1331.89) rotate(-145.43)"/><polygon class="cls-45" points="-80.55 97.92 383.31 159.84 207.82 263.07 -256.03 202.88 -80.55 97.92"/><polygon class="cls-46" points="-80.55 76.13 383.31 138.04 207.82 241.27 -256.03 181.08 -80.55 76.13"/><polygon class="cls-32" points="207.82 263.07 207.82 241.27 -256.03 181.08 -256.03 202.88 207.82 263.07"/><polygon class="cls-47" points="207.82 241.27 383.31 138.04 383.31 159.84 207.82 263.07 207.82 241.27"/><polygon class="cls-47" points="508.79 182.27 383.31 138.04 383.31 159.84 508.79 204.07 508.79 182.27"/><polygon class="cls-36" points="230.72 294.94 215.75 296.81 215.75 340.88 217.55 340.65 230.72 339 230.72 294.94"/><polygon class="cls-36" points="230.72 532.47 215.75 534.34 215.75 578.41 217.55 578.18 230.72 576.54 230.72 532.47"/><ellipse class="cls-17" cx="640.23" cy="1052.22" rx="23.17" ry="5.21"/><path class="cls-48" d="M646.72,545.7a28.37,28.37,0,0,0-14.71,0h-2.09v505.14c0,1.43,4.23,2.59,9.44,2.59s9.45-1.16,9.45-2.59V545.7Z"/><ellipse class="cls-49" cx="639.36" cy="545.7" rx="9.45" ry="2.59"/><path class="cls-50" d="M648.54,545.13a35.68,35.68,0,0,0-18.35,0h-2.62v9.74c0,1.79,5.28,3.24,11.79,3.24s11.8-1.45,11.8-3.24v-9.74Z"/><ellipse class="cls-49" cx="639.36" cy="545.13" rx="11.79" ry="3.23"/><path class="cls-17" d="M134.11,636.59l1.12-.48-.71-.37-1.09.47-2.33-1.3-.46.16,1.05.59a71.55,71.55,0,0,0-20.86-3.36l1-.41-.71-.37L110,632l-2.33-1.3-.46.16,2.36,1.32-.25.11h-.78c-1.79,0-3.57.06-5.3.1-1.54,0-3.1.08-4.7.1-1.88-3.07-6.41-7-14.5-9.92a44.15,44.15,0,0,0-7.35-2l1.1-.47-.71-.38-1.09.48-2.33-1.3-.46.16,2.37,1.32h0a30.22,30.22,0,0,0-7.89-.33c-2.71.34-3.94,1.27-3.45,2.65.42,1.18,2,2.53,4.53,3.91A49.84,49.84,0,0,0,77,630l-2.65,0,.47.41,3.24-.06,1.13,1.08h.7l-1-.92A61.91,61.91,0,0,0,86,632.09a80.17,80.17,0,0,0,12,.81,7.33,7.33,0,0,1,.56,1.35c1.5,5.43-5.34,9-16.73,9.2.32-1.53-.83-3.43-3.45-5.32a31.55,31.55,0,0,0-6.79-3.53l1.3,0-.47-.41-1.76,0-1.48-1.41h-.7l1.17,1.12a40.51,40.51,0,0,0-11.78-2.35c-3.46-.06-5.73.89-5.91,2.46a2.67,2.67,0,0,0,.66,1.87l-1.46-.61-.26.26,2.21.92.37.36-1,1.17.8.31.78-1a12.37,12.37,0,0,0,1.28.86c5.67,3.38,14.89,5.09,21.06,5.53,1.49.11,2.92.16,4.29.18a4.46,4.46,0,0,1-2.57,1.78,21.1,21.1,0,0,1-6.64.8l.26-.74-.82-.28-.28.82-2.76-1-.15.3,2.4.85a65.58,65.58,0,0,1-10.32-1.31c-9.77-2-20.15-6-26.44-10.29-.33-.23-.65-.45-1-.68l1.36.48.15-.3-2.15-.76.29-.83-.82-.27-.21.6c-4.41-3.67-5.67-7.29-3.15-9.56a8.83,8.83,0,0,1,1.3-.93c8.48,2.3,17,2.94,21.86,1.63,2.95-.79,4.41-2.32,4.32-4.21l1.41.76.43-.18-1.88-1a5,5,0,0,0-.11-.5l1.49-.73-.72-.37-1,.49a9.19,9.19,0,0,0-2-2.78c-3.73-3.66-10.91-7.11-18.86-9.84l2.85,0-.44-.42-3.35-.05-1-1.07-.72,0,.88.92a123.39,123.39,0,0,0-15.83-4q-3.16-.57-6.21-1L10,600.1l.81-1.41-.8-.3-.81,1.41L7.09,599l-.22.28,2,.78a222.47,222.47,0,0,0-29.58-1.24l.46.42a221.5,221.5,0,0,1,29,1.18l-.26.46.81.29.36-.63.63.08,2.16.84.21-.28-1-.37c1.62.24,3.27.5,4.94.8a122.92,122.92,0,0,1,15.09,3.79H30.67l.43.41,1.82,0,1.35,1.4.72,0-1.13-1.18c7.8,2.66,14.83,6,18.46,9.58a7.84,7.84,0,0,1,2.12,3.11l-.27.14-1.83-1-.43.18,1.86,1-1.05.52.72.37,1-.51.15.08c.21,1.91-1.19,3.47-4.14,4.26-4.57,1.23-12.8.63-20.79-1.47.61-.34,1.28-.66,1.93-1a20.42,20.42,0,0,0,3.15-1.73,3.91,3.91,0,0,0,1.5-1.82L37.2,619,38,619l-1.55-1.89v-.07l1.94.22-.29-.4-1.67-.19A5.36,5.36,0,0,0,34,613.44c-3.55-2.68-11-5-16.64-5.36l.19-.38-.81-.29-.32.63h-.56l-1.69-.55-.11.31.84.28c-5.15.34-6.61,2.93-3.38,6.09a28.75,28.75,0,0,0,7.7,4.81l-1.32-.11.34.41,2,.17,1,1.38.77.08-.79-1.08a65.63,65.63,0,0,0,7.18,2.5,8.28,8.28,0,0,0-1.16.85c-2.61,2.34-1.32,6.07,3.21,9.87l-2.12-.75-.15.3,2.8,1-.54,1.52.82.27.46-1.31c.39.28.79.57,1.21.85,5.23,3.55,13.19,6.94,21.35,9.19,1.93.53,3.88,1,5.8,1.39a67.58,67.58,0,0,0,10.48,1.34l-.43,1.25.81.27.53-1.49h0l2.09.74.15-.3-1.23-.43a21.69,21.69,0,0,0,6.43-.83,4.38,4.38,0,0,0,2.85-2.17c12-.09,19.24-3.79,17.67-9.44a7.19,7.19,0,0,0-.64-1.55c1.67,0,3.31,0,4.94-.09s3.05-.08,4.61-.09l-.81.35.71.37,1.69-.73h.6l1.51.84.46-.16-1.19-.67c5.47.13,13.89.87,21.6,3.72l-1,.45.71.37,1.13-.48,1.78,1,.46-.16Zm-48.33-4.9a57.61,57.61,0,0,1-6.34-1.35l1,0L80,629.9l-1.76,0-1.48-1.42h-.7l1.28,1.22a46.79,46.79,0,0,1-8.19-3.29c-2.34-1.26-3.78-2.49-4.16-3.57-.44-1.24.7-2.09,3.21-2.4a27,27,0,0,1,6.68.2l-1.4.6.71.37,1.87-.8.4.07,1.53.85.46-.16-.88-.49c1,.21,2.09.45,3.12.73s2.13.64,3.14,1c7.84,2.89,12.19,6.67,14,9.63A78.38,78.38,0,0,1,85.78,631.69ZM21.37,619.55l3.22.28-.33-.41-3.61-.31-.77-1.06-.77-.09.65.89a27.51,27.51,0,0,1-7.53-4.66c-3.06-3-1.61-5.46,3.39-5.72h.44l.12,0-.51,1,.81.29.52-1,4,1.32.11-.32-3.91-1.3h0a35.17,35.17,0,0,1,7.62,1.28,27.25,27.25,0,0,1,8.6,3.75,5.53,5.53,0,0,1,2,2.45l-.32-.39-.75-.07.87,1.07-2.62-.3.3.4,2.65.31A3.49,3.49,0,0,1,34,619.3,21.17,21.17,0,0,1,30.9,621c-.73.35-1.47.7-2.14,1.08l-.3-.08A66.13,66.13,0,0,1,21.37,619.55ZM81,643.46c-1.54,0-3.16-.05-4.84-.17-6-.42-14.83-2-20.2-5.25A10.71,10.71,0,0,1,54.42,637h0l2,.85.26-.26-2.07-.86.58-.73-.8-.31-.57.71-.15-.06a2.71,2.71,0,0,1-.89-2.06c.18-1.47,2.29-2.35,5.52-2.3a34.76,34.76,0,0,1,8.33,1.37c1,.26,1.94.57,2.89.89l-2.81,0,.47.42,3.24-.06,1.13,1.08h.7l-.84-.81a29.68,29.68,0,0,1,6.37,3.3C80.42,640.08,81.48,642,81,643.46Z"/><path class="cls-51" d="M-19.57,583.72c11.43-7.64,23.32-15.49,37.07-18.58s29.91,0,36.06,10.3c3.79,6.34,3,14.71-1.87,21.07s-13.8,10.43-22.36,10.27c-6.86-.14-13.53-3.09-16.56-8.17a12.7,12.7,0,0,1,3.48-16.35c5.3-4.13,14.35-4.16,18.33.38,3.25,3.71,2.66,9.16.7,13.81s-5.12,8.95-6.81,13.66a22.33,22.33,0,0,0,5.59,23.75c6.41,6.14,16.85,9,26.8,7.26,7.43-1.27,14.64-5.15,18.57-10.85s4.07-13.21-.42-18-13.71-6-20-2.17-7.82,12.64-2.45,16.72,14,2.52,20.63-.68c15-7.27,24.47-22.58,22.7-36.6-1-7.93-6.15-15.85-15.07-17.82s-20.63,5-19.33,12.85c1.24,7.52,12.61,10.29,21.29,7.7s15.48-8.62,22.85-13.52,16.88-9,25.19-6.59"/><line class="cls-51" x1="31.77" y1="565.73" x2="37.69" y2="562.06"/><line class="cls-51" x1="32.72" y1="562.11" x2="35.52" y2="567.22"/><line class="cls-51" x1="9.83" y1="569.22" x2="11.26" y2="562.41"/><line class="cls-51" x1="7.87" y1="566.04" x2="13.49" y2="567.53"/><line class="cls-51" x1="53.97" y1="585.01" x2="57.31" y2="578.9"/><line class="cls-51" x1="53.01" y1="581.39" x2="57.96" y2="584.46"/><line class="cls-51" x1="18.95" y1="606.18" x2="25.31" y2="603.34"/><line class="cls-51" x1="20.38" y1="602.72" x2="22.47" y2="608.15"/><line class="cls-51" x1="15" y1="581.6" x2="21.9" y2="582.51"/><line class="cls-51" x1="18.03" y1="579.4" x2="16.96" y2="585.12"/><line class="cls-51" x1="35.62" y1="586.85" x2="38.46" y2="593.21"/><line class="cls-51" x1="39.08" y1="588.28" x2="33.64" y2="590.36"/><line class="cls-51" x1="32.63" y1="629.39" x2="31.7" y2="636.29"/><line class="cls-51" x1="34.82" y1="632.43" x2="29.1" y2="631.34"/><line class="cls-51" x1="72.31" y1="634.28" x2="71.38" y2="641.18"/><line class="cls-51" x1="74.5" y1="637.31" x2="68.78" y2="636.23"/><line class="cls-51" x1="55.72" y1="621.93" x2="53.86" y2="628.64"/><line class="cls-51" x1="57.48" y1="625.23" x2="51.96" y2="623.38"/><line class="cls-51" x1="73.58" y1="606.79" x2="67.87" y2="610.77"/><line class="cls-51" x1="72.82" y1="610.46" x2="69.76" y2="605.51"/><line class="cls-51" x1="81.14" y1="591.73" x2="75.43" y2="595.71"/><line class="cls-51" x1="80.39" y1="595.4" x2="77.32" y2="590.45"/><line class="cls-51" x1="78.3" y1="569.36" x2="74.74" y2="575.34"/><line class="cls-51" x1="79.13" y1="573.01" x2="74.29" y2="569.77"/><line class="cls-51" x1="112.31" y1="575.12" x2="108.75" y2="581.1"/><line class="cls-51" x1="113.14" y1="578.77" x2="108.3" y2="575.53"/><line class="cls-51" x1="135.76" y1="569.81" x2="133.09" y2="574.29"/><line class="cls-51" x1="136.59" y1="573.46" x2="131.75" y2="570.22"/><path class="cls-3" d="M60.74,758.53A14.62,14.62,0,0,0,66.52,771a39,39,0,0,1,13.56-29.69,33.1,33.1,0,0,0-.88,28.4l5.67-7.5c-1.66,3,.59,6.76,3.17,9.06s5.78,4.39,6.66,7.73c1,3.57-1.25,7.38-4.34,9.39-4.27,2.8-9.86,3-14.8,3.46-4.41.38-9.33,1.12-13.63-.32-6.94-2.31-8.81-9.33-7-15.87.79-2.86,1.9-5.65,2.86-8.46C58.66,764.62,60.56,761.23,60.74,758.53Z"/><path class="cls-3" d="M672.26,578.39a8,8,0,0,0,3.15,6.8,21.24,21.24,0,0,1,7.4-16.19,18.06,18.06,0,0,0-.49,15.48l3.09-4.08c-.9,1.66.33,3.68,1.73,4.94s3.15,2.39,3.64,4.21a5,5,0,0,1-2.37,5.12c-2.33,1.52-5.38,1.66-8.07,1.88-2.4.21-5.09.61-7.43-.17-3.78-1.26-4.8-5.09-3.82-8.65.43-1.56,1-3.08,1.56-4.61S672.17,579.86,672.26,578.39Z"/><path class="cls-3" d="M722,637.15c-1.44,14.62,4.63,29.6,15.3,39.59a60,60,0,0,0,10,7.18c-6.84,2-15.29,3-21.9-.33-6-3-9.84-9.11-13.1-14.77-2.82-4.88-5.34-9.9-8.26-14.72,5.43,5.33,10.32,11.47,16.06,16.46.92-5.44.67-11.37,1-16.89S722,642.63,722,637.15Z"/><path class="cls-52" d="M800.1,680.59a12,12,0,1,0-24,0c0,6.62,5.36,5,12,5S800.1,687.21,800.1,680.59Z"/><path class="cls-53" d="M790.93,653.77c.3-.8.74-1.69,1.57-1.87,1-.21,1.92.92,1.91,2a6,6,0,0,1-1.14,2.88,30.26,30.26,0,0,0-4.12,13.66c0,.39,0,1.94-.65,1.22a4.06,4.06,0,0,1-.57-2.21,36.07,36.07,0,0,1,.76-7.47A49.15,49.15,0,0,1,790.93,653.77Z"/><path class="cls-54" d="M782.24,658.29a3.68,3.68,0,0,0-2.76-1.87c-1.8-.21-3.37.91-3.35,2s1.07,2,2,2.88c4.31,4.15,6.76,8.85,7.25,13.66,0,.39,0,1.94,1.14,1.21a2.84,2.84,0,0,0,1-2.2,21.45,21.45,0,0,0-1.34-7.48A33.44,33.44,0,0,0,782.24,658.29Z"/><path class="cls-52" d="M834,671.16a12,12,0,1,0-24,0c0,6.62,5.36,5,12,5S834,677.78,834,671.16Z"/><path class="cls-53" d="M824.84,644.34c.3-.8.74-1.69,1.57-1.87,1-.21,1.92.92,1.91,2a6,6,0,0,1-1.14,2.88A30.26,30.26,0,0,0,823.06,661c0,.4,0,1.94-.65,1.22a4.06,4.06,0,0,1-.57-2.21,36.07,36.07,0,0,1,.76-7.47A48.2,48.2,0,0,1,824.84,644.34Z"/><path class="cls-54" d="M816.15,648.86a3.68,3.68,0,0,0-2.76-1.87c-1.8-.21-3.37.91-3.35,2s1.07,2,2,2.88c4.31,4.15,6.76,8.85,7.25,13.66,0,.39,0,1.94,1.14,1.21a2.79,2.79,0,0,0,1-2.2,21.21,21.21,0,0,0-1.33-7.48A33.8,33.8,0,0,0,816.15,648.86Z"/><path class="cls-52" d="M869.68,675.68a12,12,0,1,0-24,0c0,6.62,5.36,5,12,5S869.68,682.3,869.68,675.68Z"/><path class="cls-53" d="M860.51,648.86c.3-.8.74-1.7,1.57-1.87,1-.21,1.92.91,1.91,2a6.08,6.08,0,0,1-1.14,2.88,30.22,30.22,0,0,0-4.12,13.66c0,.39,0,1.94-.65,1.21a4,4,0,0,1-.57-2.2,36.17,36.17,0,0,1,.76-7.48A48.09,48.09,0,0,1,860.51,648.86Z"/><path class="cls-54" d="M851.82,653.38a3.68,3.68,0,0,0-2.76-1.87c-1.8-.22-3.37.91-3.35,2s1.07,2,2,2.88c4.31,4.14,6.76,8.85,7.25,13.65,0,.4,0,2,1.14,1.22a2.8,2.8,0,0,0,1-2.21,21.19,21.19,0,0,0-1.33-7.47A33.63,33.63,0,0,0,851.82,653.38Z"/><path class="cls-52" d="M846,694.06a12,12,0,0,0-24,0c0,6.62,5.37,5,12,5S846,700.68,846,694.06Z"/><path class="cls-53" d="M836.83,667.25c.29-.8.73-1.7,1.57-1.87,1-.22,1.92.91,1.91,2a6,6,0,0,1-1.15,2.88A30.3,30.3,0,0,0,835,683.87c0,.4,0,2-.65,1.22a4.08,4.08,0,0,1-.56-2.2,35.5,35.5,0,0,1,.76-7.48A46.93,46.93,0,0,1,836.83,667.25Z"/><path class="cls-54" d="M828.14,671.76a3.73,3.73,0,0,0-2.76-1.87c-1.8-.21-3.38.92-3.36,2s1.07,2,2,2.88c4.31,4.15,6.76,8.86,7.24,13.66,0,.39,0,1.94,1.14,1.22a2.87,2.87,0,0,0,1-2.21,20.94,20.94,0,0,0-1.34-7.47A33.46,33.46,0,0,0,828.14,671.76Z"/><path class="cls-52" d="M882.62,701.57a12,12,0,0,0-24,0c0,6.62,5.37,5,12,5S882.62,708.19,882.62,701.57Z"/><path class="cls-53" d="M873.45,674.76c.3-.8.74-1.7,1.58-1.87,1-.22,1.91.91,1.9,2a6,6,0,0,1-1.14,2.88,30.3,30.3,0,0,0-4.12,13.65c0,.4,0,2-.65,1.22a4,4,0,0,1-.56-2.21,35.46,35.46,0,0,1,.75-7.47A48.77,48.77,0,0,1,873.45,674.76Z"/><path class="cls-54" d="M864.77,679.27A3.72,3.72,0,0,0,862,677.4c-1.8-.21-3.37.92-3.35,2s1.07,2,2,2.88c4.31,4.15,6.76,8.86,7.24,13.66,0,.39,0,1.94,1.14,1.22a2.87,2.87,0,0,0,1-2.21,21.17,21.17,0,0,0-1.34-7.47A33.82,33.82,0,0,0,864.77,679.27Z"/><path class="cls-52" d="M911.68,689.15a12,12,0,1,0-24,0c0,6.62,5.37,5,12,5S911.68,695.77,911.68,689.15Z"/><path class="cls-53" d="M902.52,662.33c.3-.8.74-1.69,1.57-1.87,1-.21,1.92.92,1.91,2a6,6,0,0,1-1.14,2.88A30.27,30.27,0,0,0,900.73,679c0,.4,0,1.94-.64,1.22a4.06,4.06,0,0,1-.57-2.21,36.07,36.07,0,0,1,.76-7.47A47.28,47.28,0,0,1,902.52,662.33Z"/><path class="cls-54" d="M893.83,666.85a3.7,3.7,0,0,0-2.76-1.87c-1.8-.21-3.37.91-3.36,2s1.07,2,2,2.88c4.31,4.15,6.76,8.85,7.25,13.66,0,.39,0,1.94,1.14,1.21a2.83,2.83,0,0,0,1-2.2,21.21,21.21,0,0,0-1.33-7.48A33.8,33.8,0,0,0,893.83,666.85Z"/><path class="cls-52" d="M944.13,719.61a12,12,0,1,0-24,0c0,6.62,5.37,5,12,5S944.13,726.23,944.13,719.61Z"/><path class="cls-53" d="M935,692.79c.29-.8.73-1.7,1.57-1.87,1-.21,1.91.91,1.91,2a6,6,0,0,1-1.15,2.88,30.34,30.34,0,0,0-4.12,13.66c0,.39,0,1.94-.65,1.21a4,4,0,0,1-.56-2.2,35.5,35.5,0,0,1,.76-7.48A47.18,47.18,0,0,1,935,692.79Z"/><path class="cls-54" d="M926.28,697.31a3.7,3.7,0,0,0-2.77-1.87c-1.8-.22-3.37.91-3.35,1.95s1.07,2,2,2.89c4.31,4.14,6.76,8.85,7.24,13.65,0,.4,0,2,1.14,1.22a2.84,2.84,0,0,0,1-2.21,21,21,0,0,0-1.34-7.47A33.22,33.22,0,0,0,926.28,697.31Z"/><path class="cls-52" d="M897.66,733a12,12,0,1,0-24,0c0,6.62,5.37,5,12,5S897.66,739.59,897.66,733Z"/><path class="cls-53" d="M888.49,706.15c.3-.8.74-1.7,1.58-1.87,1-.21,1.91.91,1.9,2a6,6,0,0,1-1.14,2.88,30.34,30.34,0,0,0-4.12,13.66c0,.39,0,1.94-.65,1.21a4.09,4.09,0,0,1-.57-2.2,36.17,36.17,0,0,1,.76-7.48A49,49,0,0,1,888.49,706.15Z"/><path class="cls-54" d="M879.81,710.67A3.72,3.72,0,0,0,877,708.8c-1.8-.22-3.37.91-3.35,2s1.07,2,2,2.88c4.31,4.14,6.75,8.85,7.24,13.65,0,.4,0,2,1.14,1.22a2.84,2.84,0,0,0,1-2.21,21.21,21.21,0,0,0-1.34-7.47A33.59,33.59,0,0,0,879.81,710.67Z"/><path class="cls-5" d="M942,1033s16.91-4.83,8.46-10.87-3.63-13.29-3.63-13.29l-6-13.29-9.66,1.21-6-25.37s-7.25-12.08-10.88-10.87-2.41-32.62-10.87-26.58S884,938.78,884,938.78l-8.46-2.42-4.83-15.7-8.46-6-10.87,6-12.08-6s-2.42-15.71-8.46-10.88S818.74,917,818.74,917s-1.21-1.21-9.66,0-6,10.88-6,10.88l-9.67,8.45s-4.83-7.25-8.46-6S774,926.7,774,934s-8.46,15.7-8.46,15.7l-8.45-4.83s-7.25,0-8.46,4.83-6,4.83-9.66,8.46a52.67,52.67,0,0,0-6,7.25s-6.05,7.25-8.46,13.29-6,2.41-4.83,13.29,8.45,20.53,8.45,20.53l-10.87,4.84-1.21,9.66,8.46,8.46s2.41,7.25-2.42,9.66-12.08-10.87-10.87,2.42l1.21,13.29,8.45,3.62-6,9.67a21.15,21.15,0,0,0,4.84,12.08c4.83,6,9.66,7.25,9.66,15.71s7.25-.09,7.25-.09l12.08.7,1.21.71S911.77,1102,908.14,1102s3.63,2.3,3.63,2.3,15.7-3.62,12.08-6,0-14.5,0-14.5,4.83,0,6-6,0-9.66,0-9.66,3.62,3.62,7.25,0-2.42-12.08-2.42-12.08l7.25-6S961.3,1046.3,942,1033Z"/><path class="cls-6" d="M936,1060.62l-13.32-7.84,6.27-14.1s.78,11-10.19,7-9.4-16.45-14.1-10.18,1.57,12.53,1.57,12.53l-11,2.35,6.27,6.27-13.32,2.35s4.7-14.1-.78-15.67-11.75,8.62-11.75,8.62l-9.4-5.48.78-18L850.6,1034l-3.92-19.58,18,3.92-.78-19.59s-10.19,7.83-14.11,3.92,12.54-5.49,6.27-9.4-13.32,1.56-13.32,1.56l-12.53-4.7,9.4-5.48-21.15-.78s3.92-14.89,7.83-11,14.1-6.27,11.75-7.83S822.4,953.3,822.4,953.3s2.35,14.88,0,14.88-18-2.35-18-2.35l3.13,4.7-11.75,7.05s-2.35,7,3.92,7,17.23,4.7,11,12.53-24.29,10.19-24.29,10.19L784,986.2l-8.62.78,3.14-18.8,7.83.78-6.27-6.26s-6.26,10.18-13.31,8.61-6.27-12.53-3.92-11.75,11-4.7,11-4.7l-11-3.91s-3.13-11.76-6.27-10.19-11.75,11-11.75,11l-11.75,4.7-.12,8.93s1.69,1.25-6.14,6.74-6.27,17.23-6.27,17.23,4.7,6.27,2.35,7-11.75,7-11.75,7l6.1,13.88s-9.24-.56-9.24,8.06,4.7,11.75,4.7,11.75l-7.05,8.61,3.14,10.19s5.48,7.83,2.35,11,7.83,8.62,7.83,8.62l-3.92,3.92,6.27,21.93,3.92,6.27H912.48s17.25-5.42,11.37-9.37,3.52-10.21,3.52-10.21l14.1-.79-8.62-7,10.19-8.62Z"/><polygon class="cls-3" points="948.53 1028.41 954.04 1027.03 945.77 1014.63 940.76 995.56 931.1 996.77 937.5 1009.12 941.97 1033.01 948.53 1028.41"/><polygon class="cls-3" points="927.86 981.55 924.12 971.59 919.59 959.5 914.18 960.52 914.07 941.59 903.31 933.95 893.4 936.07 872.73 927.8 874.11 941.59 890.64 941.59 901.67 948.48 904.43 967.77 927.86 981.55"/><path class="cls-5" d="M779.61,1074.9s10.61-1.86,5.5-5.06-1.94-6.61-1.94-6.61l-3.44-6.67-6,.3-3.15-12.58s-4.22-6.12-6.5-5.63-.74-16-6.13-13.32-12.11,1.79-12.11,1.79l-5.19-1.43-2.63-7.82-5.11-3.21-6.89,2.63-7.36-3.31s-1.13-7.74-5-5.56a43.51,43.51,0,0,0-7.8,6.14s-.73-.63-6-.29-4,5.14-4,5.14l-6.19,3.84s-2.83-3.68-5.11-3.2-6.67-2.1-6.84,1.45-5.61,7.42-5.61,7.42l-5.14-2.61s-4.5-.21-5.36,2.11-3.86,2.19-6.2,3.85a28.83,28.83,0,0,0-3.92,3.36s-3.91,3.37-5.56,6.25-3.8,1-3.31,6.35,4.77,10.29,4.77,10.29l-6.86,2-1,4.69,5.05,4.38s1.33,3.62-1.73,4.66-7.24-5.68-6.8.86l.44,6.53,5.16,2-4,4.54a9.1,9.1,0,0,0,2.71,6c2.86,3.1,5.83,3.83,5.64,8s4.5.17,4.5.17l7.48.7.73.38,98.27,4.11c-2.25-.11,2.19,1.23,2.19,1.23s9.84-1.31,7.64-2.6.34-7.08.34-7.08a4,4,0,0,0,3.89-2.78,8,8,0,0,0,.23-4.72,3.7,3.7,0,0,0,4.5.21c2.33-1.66-1.22-6-1.22-6l4.64-2.74S791.29,1082,779.61,1074.9Z"/><path class="cls-6" d="M775.25,1088.22l-8.09-4.23,4.22-6.7s.23,5.38-6.48,3.14-5.45-8.32-8.52-5.4.68,6.18.68,6.18l-6.86.82,3.74,3.25-8.32.75s3.25-6.75-.12-7.68-7.49,3.87-7.49,3.87l-5.71-3,.91-8.79-10.34,2.2-2-9.69,11.1,2.45,0-9.6s-6.51,3.53-8.85,1.5,7.91-2.31,4.11-4.41-8.3.37-8.3.37l-7.67-2.67,6-2.4-13.11-1s2.78-7.16,5.12-5.13,8.9-2.65,7.48-3.48-9.45-6.21-9.45-6.21,1.11,7.34-.35,7.28-11.13-1.69-11.13-1.69l1.84,2.39-7.46,3.1s-1.63,3.38,2.26,3.56,10.59,2.81,6.52,6.45-15.31,4.26-15.31,4.26l-1-10.41-5.36.13,2.38-9.1,4.84.62-3.74-3.25s-4.13,4.79-8.47,3.82-3.6-6.31-2.15-5.86,6.91-2,6.91-2l-6.71-2.24s-1.67-5.84-3.66-5.17-7.55,5-7.55,5l-7.4,2-.29,4.36s1,.67-4,3.12-4.3,8.23-4.3,8.23,2.77,3.21,1.3,3.52a75.82,75.82,0,0,0-7.46,3.1l3.46,7s-5.72-.55-5.92,3.67a6.39,6.39,0,0,0,2.64,5.88l-4.57,4,1.7,5.07s3.22,4,1.21,5.43,4.66,4.45,4.66,4.45l-2.52,1.8,3.37,10.9,2.29,3.18,116.21,5.56s10.83-2.14,7.27-4.25,2.43-4.89,2.43-4.89l8.77,0-5.19-3.7,6.53-3.91Z"/><polygon class="cls-3" points="783.78 1072.85 787.24 1072.34 782.39 1066.03 779.73 1056.56 773.7 1056.86 777.39 1063.09 779.61 1074.9 783.78 1072.85"/><polygon class="cls-3" points="772.05 1049.33 769.96 1044.35 767.43 1038.31 764.05 1038.64 764.42 1029.38 757.92 1025.33 751.72 1026.08 739.08 1021.42 739.62 1028.2 749.88 1028.69 756.57 1032.38 757.83 1041.9 772.05 1049.33"/><circle class="cls-7" cx="656.93" cy="1050.52" r="3.61"/><circle class="cls-7" cx="705.67" cy="1071.87" r="3.61"/><circle class="cls-7" cx="742.69" cy="1004.22" r="3.61"/><circle class="cls-7" cx="756.79" cy="977.33" r="3.61"/><circle class="cls-7" cx="800.12" cy="989.85" r="3.61"/><circle class="cls-7" cx="803.34" cy="1028.93" r="3.61"/><path class="cls-3" d="M873.65,436.42c18.55-6.63,36.93-14.73,56.62-16.43,26.13-2.25,51.63,6.95,76.81,14.06a501,501,0,0,0,175.46,17.18c8-.64,16.46-1.43,23.92,1.57s13.37,11.21,10.6,18.55c-3.54,9.42-16.83,10.14-27.16,9.23q-35.76-3.16-71.6-5.36-36.09-2.22-72.24-3.47t-72-1.53q-36.16-.29-72.33.4T829.4,473q-36,1.64-71.94,4.24-18,1.31-35.91,2.85c-2.1.18-15.21,3.18-15.85-.93-.49-3.13,6.31-6.95,8.36-8.26a82.26,82.26,0,0,1,18.67-8.76c7.93-2.57,15.57-2.58,23.85-2.92q17.14-.72,34.18-2.91a398.26,398.26,0,0,0,66.9-14.51Q865.71,439.26,873.65,436.42Z"/><ellipse class="cls-17" cx="948.26" cy="507.47" rx="215.75" ry="59.16"/><path class="cls-55" d="M1110.16,501.67c-38.15-12.95-96.5-21.22-161.9-21.22s-123.76,8.27-161.91,21.22H740.18v5.84c0,31.51,93.16,57.06,208.08,57.06s208.08-25.55,208.08-57.06v-5.84Z"/><ellipse class="cls-56" cx="948.26" cy="501.67" rx="208.08" ry="57.06"/><path class="cls-57" d="M846.42,451.9l16.35,6.16,5.4-.83-16.29-6.14Q849.12,451.48,846.42,451.9Zm100.49-7.29v7.1h2.69v-7.1h-2.69Zm-65.06,3-4.51.44,11.16,6.68c1.49-.16,3-.3,4.49-.45Zm29.55-2.07,5.67,7,3.33-.16-5.66-7C913.63,445.4,912.51,445.44,911.4,445.5ZM800,475.77l-32.14-2.55c-1.61.77-3.15,1.54-4.63,2.33l32.37,2.56Q797.67,476.92,800,475.77Zm-9.64,5.69-34.8-1.34q-1.89,1.26-3.55,2.56L787.06,484C788.07,483.16,789.16,482.3,790.34,481.46Zm-6.79,6.06H746.62a33.76,33.76,0,0,0-2.25,2.69h37.21A22.46,22.46,0,0,1,783.55,487.52Zm44.34-22-25.22-4.61q-3,.81-5.91,1.66l25.38,4.63Q824.93,466.34,827.89,465.51Zm-15.43,4.93-28.93-3.64c-1.87.67-3.69,1.34-5.45,2l29.13,3.66C808.9,471.79,810.64,471.11,812.46,470.44Zm163.65-18.1,3.33.16,5.67-7c-1.11-.06-2.23-.1-3.34-.15Zm113.19,20.15,29.14-3.66c-1.77-.69-3.59-1.36-5.46-2l-28.93,3.64C1085.87,471.11,1087.61,471.79,1089.3,472.49ZM1109.45,484l35.07-1.34q-1.66-1.31-3.54-2.56l-34.81,1.34C1107.35,482.3,1108.44,483.16,1109.45,484Zm-35.07-16.83,25.37-4.63q-2.89-.85-5.91-1.66l-25.22,4.61Q1071.57,466.34,1074.38,467.19Zm26.55,10.92,32.37-2.56c-1.48-.79-3-1.56-4.63-2.33l-32.14,2.55C1098.08,476.54,1099.54,477.32,1100.93,478.11Zm-29.85-22.5-21,5.45q3,.62,5.84,1.26l21.1-5.48Q1074.09,456.21,1071.08,455.61Zm-67.56-1.37c1.5.15,3,.29,4.49.45l11.17-6.68-4.52-.44Zm46.57-2.34q-2.7-.42-5.46-.81l-16.29,6.14,5.4.83Zm-224.66,3.71q-3,.6-5.94,1.23l21.1,5.48q2.86-.65,5.84-1.26Zm259,70,34.16,8.87c1.43-.56,2.82-1.12,4.18-1.7l-34-8.83C1087.33,524.48,1085.89,525,1084.42,525.58Zm-23.7,7.13,28.78,10.85q2.28-.57,4.5-1.17l-28.72-10.83C1063.79,532,1062.27,532.33,1060.72,532.71Zm40.11-14.6,37.45,6.84c1.15-.71,2.24-1.42,3.29-2.14L1104.28,516C1103.19,516.71,1102,517.41,1100.83,518.11ZM779.8,494l-38.4,1.47a18.44,18.44,0,0,0-.83,2.72l38.65-1.48A14.24,14.24,0,0,1,779.8,494Zm249.35,44.83,21.06,12.6,4.13-.66-21-12.59Zm88.14-42.12,38.65,1.48a18.44,18.44,0,0,0-.83-2.72l-38.4-1.47A14.24,14.24,0,0,1,1117.29,496.7Zm-6.24,14,39,4.91c.74-.81,1.43-1.63,2-2.45l-38.85-4.89A29.24,29.24,0,0,1,1111.05,510.68Zm3.88-20.47h37.21a33.76,33.76,0,0,0-2.25-2.69H1113A21.42,21.42,0,0,1,1114.93,490.21Zm2.12,10.68a14.34,14.34,0,0,1-.84,2.63l39.33,3.12a16.63,16.63,0,0,0,.61-2.65ZM990.37,543l11.2,13.82,3.27-.24-11.2-13.82Zm-43.46,1.44v14.27h2.69V544.45h-2.69Zm-163.68-36.2-38.85,4.89c.62.82,1.3,1.64,2,2.45l39-4.91A29.24,29.24,0,0,1,783.23,508.25Zm24.57,15.67-34,8.83c1.36.58,2.75,1.14,4.18,1.7l34.16-8.87C810.62,525,809.19,524.48,807.8,523.92Zm-28.34-23-39.1,3.1a16.63,16.63,0,0,0,.61,2.65l39.33-3.12A14.34,14.34,0,0,1,779.46,500.89ZM792.23,516l-37.29,6.81c1,.72,2.15,1.43,3.29,2.14l37.45-6.84C794.47,517.41,793.32,516.71,792.23,516Zm10.29,26.39q2.21.6,4.5,1.17l28.77-10.85c-1.54-.38-3.07-.76-4.56-1.15Zm89.16,14.2,3.26.24L906.14,543l-3.27-.24Zm-49.51-5.83,4.13.66,21.07-12.6-4.16-.65Z"/><ellipse class="cls-55" cx="948.26" cy="498.08" rx="169.12" ry="46.37"/><ellipse class="cls-28" cx="948.26" cy="502.56" rx="168.33" ry="41.89"/><path class="cls-17" d="M794.76,517.56c26.84-15.88,85.47-26.89,153.5-26.89s126.65,11,153.49,26.89c7.84-4.63,13-9.68,14.83-15-8.22-23.51-80.44-41.89-168.32-41.89s-160.11,18.38-168.33,41.89C781.79,507.88,786.92,512.93,794.76,517.56Z"/><path class="cls-58" d="M873.1,539.63a541,541,0,0,0,57,4.56l7.84-.83c-5.7-4.05-20-6.93-36.85-6.93C890.17,536.43,880.25,537.65,873.1,539.63Zm194.31-9.44c-5.7-4.05-20.05-6.93-36.85-6.93-21.81,0-39.48,4.85-39.48,10.82,0,3.1,4.73,5.88,12.31,7.86a439.44,439.44,0,0,0,44.84-6.45l-17.67-1.41ZM997.52,512.8a18.31,18.31,0,0,0,12.56-3.46c-.05,0-.38-.08-.44-.09l-.46-.09-.92-.17c-.62-.11-1.23-.21-1.85-.3-1.24-.18-2.48-.33-3.73-.44s-2.48-.18-3.73-.22-2.5,0-3.75,0-2.5.11-3.75.22a8.13,8.13,0,0,0-2.43.57,9.08,9.08,0,0,1-2.53.55c-1.2.11-2.4.27-3.58.49s-2.37.48-3.53.8-2.33.69-3.47,1.12l-.82.31,9.54.41a11.14,11.14,0,0,0-5.23,6.88,21.33,21.33,0,0,0,10.79-5.44,22.74,22.74,0,0,0,12.79,4Zm-42.25-.38c-4.15-2.95-14.61-5-26.85-5-15.89,0-28.77,3.53-28.77,7.89,0,1,.76,2,2.11,3a4,4,0,0,1-.63-.14l-.73-.15-1.48-.27c-1-.17-2-.33-2.95-.48-2-.29-4-.52-6-.7s-4-.29-6-.35-4-.07-6,0-4,.17-6,.34a13.63,13.63,0,0,0-3.88.91,14.31,14.31,0,0,1-4,.88q-2.88.27-5.73.78c-1.89.35-3.77.77-5.63,1.28s-3.72,1.11-5.54,1.78l-1.31.5,15.24.65a17.8,17.8,0,0,0-8.35,11,34,34,0,0,0,17.23-8.7A36.2,36.2,0,0,0,890.5,532l-8.73-8.23a29.19,29.19,0,0,0,20-5.49c4.29,2.87,14.59,4.9,26.62,4.9,13.11,0,24.17-2.41,27.64-5.7l-27.64-2.19Z"/><path class="cls-59" d="M1030.56,495.08l36.85-3.89c-5.7-4.05-20.05-6.93-36.85-6.93-21.81,0-39.48,4.85-39.48,10.82s17.67,10.83,39.48,10.83c18,0,33.17-3.3,37.93-7.81Z"/><path class="cls-59" d="M901.13,508.25,938,504.36c-5.7-4.05-20-6.93-36.85-6.93-21.8,0-39.48,4.84-39.48,10.82s17.68,10.83,39.48,10.83c18,0,33.18-3.3,37.94-7.82Z"/><path class="cls-59" d="M928.42,476.26l26.85-2.84c-4.15-2.95-14.61-5.05-26.85-5.05-15.89,0-28.77,3.53-28.77,7.89s12.88,7.89,28.77,7.89c13.11,0,24.17-2.41,27.64-5.7Z"/><path class="cls-60" d="M861.38,476.76a19.62,19.62,0,0,1-.39-12.9l4.38,6.87a11.25,11.25,0,0,1,3.47-8.42,20.84,20.84,0,0,1,2.53,8.36,34.45,34.45,0,0,1,6.79-9.69l1.52,9.78a17.68,17.68,0,0,1,6.25-5.75,33.52,33.52,0,0,1-.37,6.72,11.78,11.78,0,0,1-2.83,6,9,9,0,0,1-4.87,2.66,17.58,17.58,0,0,1-6-.26l-9.1-1.42"/><path class="cls-59" d="M846,483.59l15.24.65a17.8,17.8,0,0,0-8.35,11,34,34,0,0,0,17.23-8.7A36.2,36.2,0,0,0,890.5,493l-8.73-8.23a29.17,29.17,0,0,0,20.06-5.52c-.07.06-.6-.12-.7-.14l-.73-.15-1.48-.27c-1-.17-2-.33-2.95-.48-2-.29-4-.52-6-.7s-4-.29-6-.35-4-.07-6,0-4,.17-6,.34a13.63,13.63,0,0,0-3.88.91,14.31,14.31,0,0,1-4,.88q-2.88.27-5.73.78c-1.89.35-3.77.77-5.63,1.28s-3.72,1.11-5.54,1.78Z"/><path class="cls-61" d="M864.84,470.74c-.15.59.66,1,1.22.81a2.53,2.53,0,0,0,1.15-1.35.64.64,0,1,0,1.25.22.94.94,0,0,0,1.3,1.06c0,.47.53.79,1,.68a2.12,2.12,0,0,0,1.08-.84l1.92-1.24a.9.9,0,0,0,1.52.29.84.84,0,0,0,.65.76.86.86,0,0,0,.91-.42,2.38,2.38,0,0,0,2,0,.49.49,0,0,0,.81.32,3.94,3.94,0,0,1,.49,3.19l1.52.12a5,5,0,0,1-3.51,4.05,14.84,14.84,0,0,1-5.6.47l-4.12-.18a12.18,12.18,0,0,1-3-.32A3.5,3.5,0,0,1,863,475.5a12.58,12.58,0,0,1-.22-1.39,18.47,18.47,0,0,1-.17-2c.6.43,1.08,1,1.69,1.45a11.1,11.1,0,0,0,.26-1.42Z"/><path class="cls-62" d="M852.47,466.8s-.33,17.5,18.82,17.5,18.83-17.5,18.83-17.5-8.92,4.27-10.24,8.75l-2.31-4.91-5,4.91-7.26-4.91-2,4.91A25.88,25.88,0,0,0,852.47,466.8Z"/><path class="cls-60" d="M1060.79,504.56a19.65,19.65,0,0,1-.39-12.91l4.38,6.87a11.28,11.28,0,0,1,3.47-8.42,20.89,20.89,0,0,1,2.53,8.37,34.45,34.45,0,0,1,6.79-9.69l1.52,9.77a17.83,17.83,0,0,1,6.25-5.74,33.56,33.56,0,0,1-.37,6.72,11.88,11.88,0,0,1-2.82,6,9,9,0,0,1-4.88,2.66,18.1,18.1,0,0,1-6-.26l-9.1-1.42"/><path class="cls-59" d="M1045.36,511.39l15.24.65a17.8,17.8,0,0,0-8.35,11,34.11,34.11,0,0,0,17.23-8.7,36.28,36.28,0,0,0,20.43,6.43l-8.73-8.23a29.17,29.17,0,0,0,20.06-5.52c-.07.05-.6-.13-.7-.15l-.73-.14-1.48-.27c-1-.18-2-.34-2.95-.48-2-.29-4-.53-6-.7s-4-.3-6-.36-4-.06-6,0-4,.16-6,.33a13.63,13.63,0,0,0-3.88.91,14,14,0,0,1-4,.89q-2.88.26-5.73.78t-5.63,1.28q-2.81.76-5.54,1.78Z"/><path class="cls-61" d="M1064.25,498.54c-.15.58.66,1,1.22.81a2.52,2.52,0,0,0,1.15-1.35.64.64,0,1,0,1.25.21.94.94,0,0,0,1.3,1.07c-.05.46.53.79,1,.68a2.21,2.21,0,0,0,1.09-.85l1.91-1.23a.91.91,0,0,0,1.52.29.83.83,0,0,0,1.56.33,2.38,2.38,0,0,0,2,0,.49.49,0,0,0,.81.32,3.94,3.94,0,0,1,.49,3.19l1.52.12a5,5,0,0,1-3.51,4,14.62,14.62,0,0,1-5.6.48l-4.12-.19a12.17,12.17,0,0,1-3-.31,3.5,3.5,0,0,1-2.36-2.84,13,13,0,0,1-.22-1.39,16.35,16.35,0,0,1-.16-2c.59.43,1.07,1,1.68,1.45A11.43,11.43,0,0,0,1064,500Z"/><path class="cls-62" d="M1051.88,494.59s-.33,17.51,18.82,17.51,18.83-17.51,18.83-17.51-8.92,4.27-10.24,8.76l-2.31-4.91-5,4.91-7.26-4.91-2,4.91A25.94,25.94,0,0,0,1051.88,494.59Z"/><path class="cls-60" d="M984.75,468.8a12.24,12.24,0,0,1-.24-8.08l2.74,4.3a7,7,0,0,1,2.17-5.27A13.08,13.08,0,0,1,991,465a21.82,21.82,0,0,1,4.26-6.07l1,6.12a11.16,11.16,0,0,1,3.91-3.6,21.12,21.12,0,0,1-.23,4.21,7.42,7.42,0,0,1-1.77,3.77,5.66,5.66,0,0,1-3,1.67,11.61,11.61,0,0,1-3.76-.16l-5.7-.9"/><path class="cls-59" d="M975.09,473.08l9.54.41a11.14,11.14,0,0,0-5.23,6.88,21.33,21.33,0,0,0,10.79-5.44,22.74,22.74,0,0,0,12.79,4l-5.46-5.15a18.31,18.31,0,0,0,12.56-3.46c-.05,0-.38-.08-.44-.09l-.46-.09-.92-.17c-.62-.11-1.23-.21-1.85-.3-1.24-.18-2.48-.33-3.73-.44s-2.48-.18-3.73-.22-2.5,0-3.75,0-2.5.11-3.75.22a8.13,8.13,0,0,0-2.43.57,9.08,9.08,0,0,1-2.53.55c-1.2.11-2.4.27-3.58.49s-2.37.48-3.53.8-2.33.69-3.47,1.12Z"/><path class="cls-61" d="M986.92,465c-.1.37.41.65.76.51a1.56,1.56,0,0,0,.72-.85.42.42,0,0,0,.31.52.41.41,0,0,0,.47-.38.6.6,0,0,0,.82.67c0,.29.33.49.61.42a1.36,1.36,0,0,0,.68-.53l1.2-.77a.56.56,0,0,0,1,.18.54.54,0,0,0,.41.48.55.55,0,0,0,.57-.27,1.47,1.47,0,0,0,1.23,0,.31.31,0,0,0,.51.2,2.43,2.43,0,0,1,.3,2l1,.07a3.14,3.14,0,0,1-2.2,2.54,9.39,9.39,0,0,1-3.51.29l-2.58-.11a7.42,7.42,0,0,1-1.88-.2,2.2,2.2,0,0,1-1.48-1.78c-.06-.28-.1-.58-.14-.87s-.1-.83-.1-1.23c.37.27.67.64,1.05.91a7,7,0,0,0,.17-.89Z"/><path class="cls-62" d="M979.17,462.56s-.21,11,11.79,11,11.78-11,11.78-11-5.58,2.68-6.41,5.48L994.89,465l-3.1,3.07L987.24,465,986,468A16.22,16.22,0,0,0,979.17,462.56Z"/><rect class="cls-17" x="55.93" y="878.94" width="88.05" height="12.77" rx="6.39"/><rect class="cls-63" x="70.59" y="786.65" width="22.24" height="6.83"/><path class="cls-63" d="M127.58,829.63l-9.67-18.76a14.92,14.92,0,0,0-13.33-8.13H90v-8h14.62A22.9,22.9,0,0,1,125,807.2L134.69,826Z"/><path class="cls-64" d="M128.4,886.83H71.59a8.46,8.46,0,0,1-8.46-8.46V796.29a5.6,5.6,0,0,1,5.6-5.6H92.05A5.61,5.61,0,0,1,97.17,794l11.07,24.79,22.81.17a5.86,5.86,0,0,1,5.81,5.85v53.55A8.46,8.46,0,0,1,128.4,886.83Z"/><path class="cls-62" d="M95.79,847.44a1.15,1.15,0,0,0,0-1.61,1.13,1.13,0,0,0-1.61,0,1.1,1.1,0,0,0-.31,1,1.13,1.13,0,1,0,.45,2l1.39,1.38a4.41,4.41,0,0,1,1.39-1.49l-1.32-1.33Zm7.47,2.82,1.39-1.38a1.14,1.14,0,1,0,.45-2,1.1,1.1,0,0,0-.31-1,1.13,1.13,0,0,0-1.61,0,1.15,1.15,0,0,0,0,1.61h0l-1.32,1.33A4.41,4.41,0,0,1,103.26,850.26Zm1.27,5.92h0l-1.43-1.42a3.8,3.8,0,0,1-.66.79V857l.65.64a1.14,1.14,0,0,0,.09,1.5,1.13,1.13,0,0,0,1.61,0,1.11,1.11,0,0,0,.31-1,1.1,1.1,0,0,0,1-.31,1.13,1.13,0,0,0,0-1.61A1.15,1.15,0,0,0,104.53,856.18Zm-10.08,0h0a1.15,1.15,0,0,0-1.61,0,1.13,1.13,0,0,0,0,1.61,1.1,1.1,0,0,0,1,.31,1.11,1.11,0,0,0,.31,1,1.13,1.13,0,0,0,1.61,0,1.14,1.14,0,0,0,.09-1.5l.65-.64v-1.44a3.8,3.8,0,0,1-.66-.79Z"/><path class="cls-62" d="M103.35,852.39a3.87,3.87,0,1,0-6.35,3v1.87h5v-1.87A3.83,3.83,0,0,0,103.35,852.39Z"/><path class="cls-65" d="M95.93,834.67,82.36,859.1A4,4,0,0,0,85.91,865h27.15a4,4,0,0,0,3.55-5.88L103,834.67A4,4,0,0,0,95.93,834.67Z"/><path class="cls-17" d="M1151.18,788l284.93,140,120.27-49.38s-284.67-143.46-292.62-140.74S1151.18,788,1151.18,788Z"/><path class="cls-66" d="M1339.74,803.52l-65.4,29.81a5.68,5.68,0,0,0-.29,10.19L1430,925.63a27.75,27.75,0,0,0,23.9.94L1552.94,884a5.68,5.68,0,0,0,.48-10.2l-119-65.06Z"/><path class="cls-36" d="M1207.26,700.72,1298,775.21l50,85.06-128.21-96.6a31.33,31.33,0,0,1-12.48-25Z"/><polygon class="cls-67" points="1297.98 775.21 1384.49 737.87 1434.45 822.93 1347.95 860.27 1297.98 775.21"/><polygon class="cls-68" points="1207.26 700.72 1293.77 663.38 1384.49 737.87 1297.98 775.21 1207.26 700.72"/><polygon class="cls-69" points="1284.81 775.03 1388.73 822.08 1445.97 919.51 1284.81 836.36 1284.81 775.03"/><polygon class="cls-67" points="1388.73 822.08 1487.83 779.3 1545.06 876.74 1445.97 919.51 1388.73 822.08"/><path class="cls-70" d="M1313.14,822.66,1169.48,617a23,23,0,0,1,12.41-31.18l63.35-24.9a23,23,0,0,1,28.9,11l144.59,190.08"/><polygon class="cls-71" points="1284.81 775.03 1383.91 732.26 1487.83 779.3 1388.73 822.08 1284.81 775.03"/><polygon class="cls-67" points="1320.46 840.63 1308.96 833.58 1308.96 803.52 1320.46 810.58 1320.46 840.63"/><ellipse class="cls-68" cx="1386.32" cy="775.21" rx="25.38" ry="49.79" transform="translate(588.99 2148.92) rotate(-89.08)"/><ellipse class="cls-72" cx="1386.32" cy="759.53" rx="22.01" ry="43.16" transform="translate(604.67 2133.49) rotate(-89.08)"/><polygon class="cls-73" points="512.87 960.54 506.45 975.08 494.8 985.29 482.14 993.85 468.95 1001.91 453.93 1006.7 438.28 1009.49 423.12 1013.2 408.24 1018.09 392.49 1019.6 377.36 1024.23 362.18 1029.67 346.53 1032.94 330.33 1030.75 314.67 1035.28 298.68 1034.89 282.72 1029.9 266.72 1036.58 251 1031.03 234.84 1034.05 219.19 1030.39 203.78 1026.01 188.05 1024.36 171.44 1026.58 157.25 1017.85 140.95 1017.62 127.13 1009.54 110.52 1008.9 95.59 1003.5 84.12 992.68 70.04 985.86 60.08 974.52 60.08 960.54 62.44 947.75 71.69 936.8 80.34 923.13 96.22 918.69 110.09 911.18 125.94 908.29 140.58 902.21 155.58 896.71 172.83 900.9 188.01 896.46 203.07 890.14 218.86 887.77 234.82 886.73 251.14 892.74 266.89 891.12 282.72 887.16 298.58 889.55 314.68 885.51 330.22 891.61 346.1 892.02 361.55 895.87 378.4 891.02 393.17 898.3 409.01 900.03 423.14 907.84 439.27 908.94 455.6 910.66 468.7 919.64 484.47 924.02 497.03 933.65 501.65 948.43 512.87 960.54"/><path class="cls-74" d="M300.92,876.65q11.59,4.88,22.36,10l-74.71,122.07L204,1041.28l0-16.89-31.32,20.74,5.71-15.9,11.47-26-12.79,17.54,4.38-36.08,84.44-121.3C277.19,867.2,289,871.63,300.92,876.65Z"/><polygon class="cls-75" points="109.69 960.26 108.25 967.98 116.74 969.23 121.86 973.41 128.4 975.34 133.08 982.26 141.68 978.3 146.37 986.89 153.7 986.45 160.66 987.19 168.17 984.83 175.09 985.08 180.57 994.71 187.5 995.86 194.81 993.79 201.59 995.93 208.57 996.29 215.32 999.49 222.43 998.33 229.64 994.59 236.26 1002.19 243.6 992.66 250.32 1001.99 257.32 1004.01 264.37 994.43 271.32 996.27 278.25 994.91 285.45 1002.81 292.12 994.37 298.9 991.32 305.87 991.98 313.29 998.18 320.24 997.3 327.08 995.42 334.25 996.51 340.67 991.72 348.5 997.01 355.12 993.83 360.61 985.07 367.6 984.91 376.31 991.76 380.82 981.22 390.11 988.1 393.65 976.73 403.12 981.71 407.29 974.17 416.71 975.42 423.15 969.89 420.47 960.26 415.65 956.03 413.24 949.66 407.38 946.17 402.56 940.06 394.68 940.95 389.98 932.83 382.7 932.4 374.09 938.01 367.35 936.76 360.35 936.81 353.71 935.02 347.12 932.68 340.07 933.33 333.56 929.78 327.59 920.35 320.08 925.13 313 926.21 306.33 921.78 299.04 926.83 292.08 927.36 285.26 923.94 278.33 922.23 271.38 919.53 264.37 923.49 257.4 923.44 250.51 927.27 243.25 916.77 236.25 917.82 229.79 928.6 222.23 919.08 215.19 919.26 208.86 927.28 202.28 931.16 194.66 925.48 187.63 925.64 181.6 932.58 174.04 929.25 167.45 931.93 161.68 938.18 153.7 934.11 148.04 939.8 138.9 933.32 135.17 944.05 125.87 939.41 120.71 945.02 118.25 953.3 108.3 952.59 109.69 960.26"/><path class="cls-76" d="M71.13,1015.53A64.92,64.92,0,0,1,73.71,989l427-109.32,10.5,9.23L467.49,899l-42,13,3.62,7.94-57.94,11.74,28.76-4.17-32.4,15.37-296,75.78Q71.29,1017.11,71.13,1015.53Z"/><path class="cls-74" d="M108.39,909.43a122.57,122.57,0,0,1,5.76-14.74L358.25,967l77.42,37.13-28.58-2.47,50.77,25.79-29.78-6.5-49.8-12.18,36.11,11.88-63.3-8.52-247.66-79.2A119.55,119.55,0,0,1,108.39,909.43Z"/><path class="cls-77" d="M92.54,936.63,416.12,985.3s18.24,24.16,15.88,23.07S74.29,960.53,74.29,960.53Z"/><path class="cls-78" d="M132.1,1010.48l267.14-189s29.89,4.8,27.44,5.64-291.19,213.21-291.19,213.21Z"/><path class="cls-79" d="M391.36,844.82c-.85-25.29-14.94-46.84-31.07-61s-34.69-23-51.34-36.06c-8.26-6.5-17-16.84-15.32-29.21,1.58-11.8,11.91-18.45,14.87-29.79,2.86-10.91-1.91-22.72-7.71-31.44s-12.93-16.45-16.2-27.16c-5.86-19.18,2.52-40.35,11-57.78S313.43,535,309.36,515s-20.13-31.76-27.71-50c-11.32-27.17-2.24-59.24-2.19-88,0-9.29-.36-19.47-4.88-27.33-3.34-5.8-7.83-10-10.27-16.62-3.94-10.67-4.79-23.62-5.53-35.16-.81-12.68-.79-25.41-.74-38.11l.69-179.65L250.3,193.75c-2.44,32.88-5,66.24-14.53,97.12-5.08,16.4-12.09,31.9-16.18,48.7-2.91,12-4.25,24.93-2.16,37.27a47.86,47.86,0,0,0,4.72,14,21.31,21.31,0,0,1,1.91,5.39c2.45,11.42,3.49,22.62,7.29,33.67,5.29,15.41,13.14,31.34,10.25,47.8-5.34,30.49-43.1,38.9-44.55,70.12-1.25,26.8,26.87,46.48,22.42,72.7-2.67,15.79-15.87,23.93-27.58,29.36s-25,12.29-29,27.6c-4.63,17.78,6.27,36.06,18.08,46.86s25.95,19.28,32.83,35.78c7.6,18.2,3.9,41.17-3.7,59.37S191.35,853,183.15,870.72s-13.39,39.81-7.68,59.14a53,53,0,0,0,29.62,33.37c12.79,5.58,26.51,6.16,40,6.7l51.37,2,25.68,1c7.23.29,14.95,1.11,21.87-2.23,11.89-5.73,15.27-18,15.38-33.11,0-6.54.27-13.06,2.2-19.19,2.64-8.36,8-14,12.48-20.55C384.11,883.19,392,865.07,391.36,844.82Z"/><path class="cls-80" d="M156.62,985.56a20.75,20.75,0,0,0,5.06-5.47c5-5.12,5.79-15.31,2.18-21.62-12.41-25.85-43.5-35.87-39.87-70.54-20.93,29-6.09,65.24,10.06,90.65a21.59,21.59,0,0,0,5.51,7.06C143.84,989,149.44,989.5,156.62,985.56Z"/><path class="cls-81" d="M120.87,905.19A49.82,49.82,0,0,0,131,931.65c13,14.51,31.61,26,31.12,48.29a13.47,13.47,0,0,1-5.17,7.15c-6.5,4.32-15.89.8-18.31-4.85a25,25,0,0,1-1-5.57c-2.11-16.65-12.29-28.32-18-43.88-1.08-4.62-2.43-10.4-1-15.84A92.77,92.77,0,0,1,120.87,905.19Z"/><path class="cls-82" d="M152.8,987.92a7.32,7.32,0,0,0,4.48-2.4,10.71,10.71,0,0,0,2.48-5.18c1.85-22.39-20-34.08-30-49.53-3.33-5.16-6.66-10.31-8-16.09-3.36,22.17,13.13,38,17.55,57.25,1.4,6.22,2.84,10.1,5,12.47S149.22,987.68,152.8,987.92Z"/><path class="cls-62" d="M154.75,986.24s3.27-2.58,2.2-9.81c-4.08-19.44-18.49-31-29.21-45,5.49,14.4,14,27.86,16.13,44.86.68,1.58,1.59,5,3.25,7.5S151.15,988,154.75,986.24Z"/><path class="cls-80" d="M208.33,979.91a12.71,12.71,0,0,1-2.46-3.51c-2.43-3.31-2.21-9.07.21-12.27,8.65-13.32,26.67-16.12,26.94-35.8,9.77,18.06-.92,37-11.62,49.71a11.43,11.43,0,0,1-3.54,3.45C215.24,983,212.08,982.75,208.33,979.91Z"/><path class="cls-81" d="M233.62,938.24a26.78,26.78,0,0,1-7.4,13.87c-8.2,6.94-19.38,11.66-20.58,24.16a8,8,0,0,0,2.42,4.46c3.34,3,8.82,1.88,10.54-1.06a13,13,0,0,0,1-3c2.29-9.11,8.74-14.71,13-22.88.9-2.49,2-5.59,1.59-8.76A53.52,53.52,0,0,0,233.62,938.24Z"/><path class="cls-82" d="M210.31,981.57a4.35,4.35,0,0,1-2.34-1.75,6.28,6.28,0,0,1-1-3.11c.45-12.67,13.45-17.23,20-25,2.2-2.57,4.4-5.15,5.54-8.26.4,12.68-9.85,20.07-13.6,30.39-1.19,3.34-2.25,5.38-3.6,6.52A6.39,6.39,0,0,1,210.31,981.57Z"/><path class="cls-62" d="M209.33,980.45s-1.65-1.73-.57-5.67c3.56-10.49,12.38-15.65,19.29-22.5-4,7.55-9.64,14.3-12,23.6a22.9,22.9,0,0,1-2.31,3.89C212.67,981,211.22,981.78,209.33,980.45Z"/><path class="cls-80" d="M202.39,986.83A20,20,0,0,0,217.14,974c4.08-11.25-11.61-61.1-11.61-61.1s-11.44,17.94-18.06,36.35S180.36,988.53,202.39,986.83Z"/><path class="cls-81" d="M204.88,925.21s11.29,51.63,3.78,59.43-20.4.73-21.37-5.28S204.88,925.21,204.88,925.21Z"/><path class="cls-82" d="M198.42,987.31s8.72,2.38,10.39-9.69-3-45.27-3-45.27-13.23,31.5-14.91,40.41S192.18,984.9,198.42,987.31Z"/><path class="cls-62" d="M200.57,986.74s3.54-.78,4.41-6,1.42-35.2,1.42-35.2-13.33,28.8-13,31.3S193.3,987.06,200.57,986.74Z"/><path class="cls-80" d="M137.13,980.81s8.78-5.07,7.88-14.15-34.71-36.72-34.71-36.72-2.93,16.32-1.41,31.16S118.35,990.17,137.13,980.81Z"/><path class="cls-81" d="M114.66,938.48S145.3,969,141.79,977s-17.73,8.1-21,4.42S114.66,938.48,114.66,938.48Z"/><path class="cls-82" d="M133.81,982.61s8.65-1.65,5.3-10.38-20.73-29.31-20.73-29.31.92,26.1,3,32.71S127.34,983.32,133.81,982.61Z"/><path class="cls-62" d="M135.48,981.43a4.76,4.76,0,0,0,1.52-5.65c-1.3-3.81-12.84-24.18-12.84-24.18s-.24,24.32,1.08,25.87S129.19,984.36,135.48,981.43Z"/><path class="cls-80" d="M184.35,991.34c6.26-.07,12.83-6.75,12.16-12.8.78-13.15-7.74-25.84-8-39.07,0-16.81,6.07-33.13,1.93-50.28-19.58,17.65-46.41,35.91-47.22,67.06-.24,21.6,17.44,36.22,35.11,35.08A52.3,52.3,0,0,0,184.35,991.34Z"/><path class="cls-81" d="M182.67,907.38c-10.28,26,.48,53.27,10.41,76.89,1.77,4.94-2.47,7-5.62,8-11.56,3.88-23.65-.7-30.12-13.22-11.85-26.17,4.13-52.51,21.91-68.14C181.44,908.62,182.67,907.38,182.67,907.38Z"/><path class="cls-82" d="M178.33,991.93c4-.12,9.06,1.49,10.44-4.41,2-16.65-12.8-27.44-13.86-44.34-.54-8.45,2-16.65,3.53-24.93a94.12,94.12,0,0,0-16.86,23.86c-7.14,16.24-6.43,39.11,9.58,47.07A61,61,0,0,0,178.33,991.93Z"/><path class="cls-62" d="M181.48,991.17c4.29-5.09,2.59-11.23.82-16.17-4.49-11.17-11-23.7-9.16-36.76-10.08,13.6-12.58,38.61,1.45,51.44A13.84,13.84,0,0,0,181.48,991.17Z"/><path class="cls-80" d="M394.09,991.43a12.54,12.54,0,0,1-2.46-3.5c-2.44-3.31-2.22-9.07.21-12.27,8.65-13.32,26.67-16.12,26.94-35.8,9.77,18.06-.92,37-11.62,49.71a11.57,11.57,0,0,1-3.55,3.45C401,994.52,397.84,994.28,394.09,991.43Z"/><path class="cls-81" d="M419.38,949.77a26.92,26.92,0,0,1-7.4,13.87c-8.21,6.93-19.38,11.66-20.58,24.16a8.07,8.07,0,0,0,2.41,4.46c3.35,3,8.82,1.88,10.55-1.06a14,14,0,0,0,.95-3c2.28-9.1,8.74-14.7,13-22.87.91-2.49,2-5.59,1.6-8.76A53.52,53.52,0,0,0,419.38,949.77Z"/><path class="cls-82" d="M396.07,993.1a4.35,4.35,0,0,1-2.34-1.75,6.28,6.28,0,0,1-1.05-3.11c.45-12.67,13.45-17.23,20.06-25,2.2-2.58,4.4-5.15,5.53-8.26.41,12.68-9.85,20.07-13.59,30.39-1.19,3.34-2.26,5.38-3.61,6.51A6.33,6.33,0,0,1,396.07,993.1Z"/><path class="cls-62" d="M395.09,992s-1.66-1.73-.58-5.67c3.57-10.49,12.38-15.65,19.29-22.5-4,7.55-9.63,14.3-12,23.6a24,24,0,0,1-2.31,3.89C398.43,992.57,397,993.31,395.09,992Z"/><path class="cls-80" d="M309.06,954.81s2.53-3.06,5.05-9.88c5-9.25,5.79-27.67,2.19-39.07-12.42-46.74-43.51-64.84-39.88-127.5-20.93,52.38-6.09,117.92,10.06,163.83,1.55,5.34,3.37,9.72,5.51,12.78C296.28,961.09,301.88,961.94,309.06,954.81Z"/><path class="cls-81" d="M273.31,809.55c.84,17.23,4,33.38,10.11,47.82,13,26.23,31.62,47,31.13,87.29-1.16,6.14-3,10.32-5.18,12.92-6.5,7.81-15.89,1.44-18.31-8.77a76.72,76.72,0,0,1-1-10.06c-2.12-30.1-12.29-51.19-18-79.31-1.08-8.36-2.42-18.8-1-28.63C272,818.09,273.31,809.55,273.31,809.55Z"/><path class="cls-82" d="M305.24,959.08s2.41-.29,4.48-4.34a27.68,27.68,0,0,0,2.47-9.35c1.85-40.48-20-61.6-30-89.54-3.33-9.31-6.66-18.62-8-29.07-3.35,40.06,13.13,68.77,17.56,103.47,1.39,11.24,2.84,18.25,5,22.54S301.65,958.65,305.24,959.08Z"/><path class="cls-62" d="M307.19,956s3.27-4.65,2.19-17.73c-4.08-35.13-18.49-56-29.21-81.32,5.49,26,13.95,50.35,16.13,81.07.68,2.85,1.6,9,3.25,13.55S303.59,959.28,307.19,956Z"/><path class="cls-80" d="M360.77,944.59a26.25,26.25,0,0,1-2.46-6.34c-2.44-6-2.22-16.39.21-22.17,8.64-24.08,26.67-29.13,26.93-64.7,9.78,32.64-.92,66.83-11.61,89.84a19.32,19.32,0,0,1-3.55,6.24C367.67,950.18,364.51,949.74,360.77,944.59Z"/><path class="cls-81" d="M386.05,869.29c-1.1,9.49-3.45,18-7.4,25.07-8.2,12.53-19.37,21.08-20.58,43.67a19.84,19.84,0,0,0,2.42,8.06c3.34,5.42,8.82,3.39,10.54-1.92a39.19,39.19,0,0,0,1-5.45c2.28-16.46,8.73-26.58,13-41.35.91-4.49,2-10.1,1.59-15.82C386.49,874.29,386.05,869.29,386.05,869.29Z"/><path class="cls-82" d="M362.74,947.6s-1.34-.56-2.34-3.16a18.06,18.06,0,0,1-1-5.62c.45-22.9,13.45-31.14,20.05-45.11,2.2-4.66,4.41-9.31,5.54-14.93.4,22.92-9.85,36.27-13.6,54.92-1.19,6-2.25,9.73-3.6,11.78A4.46,4.46,0,0,1,362.74,947.6Z"/><path class="cls-62" d="M361.77,945.59s-1.66-3.13-.58-10.26c3.56-19,12.38-28.29,19.29-40.66-4,13.64-9.64,25.84-12,42.64a55.48,55.48,0,0,1-2.31,7C365.1,946.65,363.66,948,361.77,945.59Z"/><path class="cls-80" d="M354.83,957.11s10.67-2.92,14.75-23.26S358,823.41,358,823.41s-11.44,32.43-18.06,65.7S332.79,960.18,354.83,957.11Z"/><path class="cls-81" d="M357.31,845.73s11.29,93.32,3.78,107.42-20.4,1.33-21.37-9.55S357.31,845.73,357.31,845.73Z"/><path class="cls-82" d="M350.85,958s8.72,4.32,10.39-17.51-3-81.81-3-81.81-13.23,56.93-14.9,73S344.62,953.63,350.85,958Z"/><path class="cls-62" d="M353,957s3.54-1.42,4.42-10.77,1.42-63.63,1.42-63.63-13.33,52.06-13,56.58S345.73,957.53,353,957Z"/><path class="cls-80" d="M289.56,946.22s8.78-9.15,7.88-25.57-34.71-66.37-34.71-66.37-2.93,29.5-1.41,56.32S270.78,963.15,289.56,946.22Z"/><path class="cls-81" d="M267.1,869.71s30.63,55.09,27.12,69.63-17.73,14.65-21,8S267.1,869.71,267.1,869.71Z"/><path class="cls-82" d="M286.24,949.48s8.66-3,5.3-18.76-20.73-53-20.73-53,.92,47.17,3,59.12S279.77,950.77,286.24,949.48Z"/><path class="cls-62" d="M287.91,947.35s2.82-3.34,1.52-10.22-12.83-43.7-12.83-43.7-.25,44,1.07,46.75S281.62,952.64,287.91,947.35Z"/><path class="cls-80" d="M336.78,965.25c6.26-.11,12.84-12.18,12.17-23.13.77-23.76-7.75-46.7-8-70.61,0-30.39,6.08-59.88,1.94-90.87-19.59,31.89-46.42,64.89-47.23,121.2-.24,39,17.44,65.47,35.12,63.41A28,28,0,0,0,336.78,965.25Z"/><path class="cls-81" d="M335.11,813.52c-10.28,47,.47,96.28,10.41,139,1.76,8.94-2.48,12.67-5.62,14.38-11.56,7-23.66-1.26-30.13-23.9-11.84-47.29,4.13-94.89,21.92-123.15C333.87,815.76,335.11,813.52,335.11,813.52Z"/><path class="cls-82" d="M330.76,966.33c4-.22,9.07,2.68,10.44-8,2-30.09-12.8-49.6-13.86-80.14-.53-15.27,2-30.09,3.53-45.06Q321,851.27,314,876.29c-7.14,29.35-6.43,70.69,9.59,85.06A48.59,48.59,0,0,0,330.76,966.33Z"/><path class="cls-62" d="M333.91,965c4.29-9.2,2.59-20.29.82-29.23-4.49-20.18-11-42.82-9.16-66.44-10.07,24.59-12.58,69.8,1.45,93A9.1,9.1,0,0,0,333.91,965Z"/><path class="cls-80" d="M287.1,997a20.8,20.8,0,0,0,5.06-5.46c5-5.12,5.79-15.31,2.19-21.62C281.93,944,250.84,934,254.47,899.35c-20.93,29-6.09,65.24,10.06,90.64a21.77,21.77,0,0,0,5.51,7.07C274.32,1000.45,279.92,1000.92,287.1,997Z"/><path class="cls-81" d="M251.35,916.6a49.79,49.79,0,0,0,10.12,26.46c13,14.52,31.61,26,31.12,48.3a13.51,13.51,0,0,1-5.17,7.15c-6.5,4.32-15.89.8-18.31-4.86a24.85,24.85,0,0,1-1.05-5.56c-2.11-16.65-12.29-28.33-18-43.88-1.08-4.63-2.43-10.41-1-15.84A93.21,93.21,0,0,1,251.35,916.6Z"/><path class="cls-82" d="M283.28,999.33a7.25,7.25,0,0,0,4.48-2.4,10.62,10.62,0,0,0,2.48-5.17c1.85-22.4-20-34.08-30-49.54-3.34-5.15-6.67-10.3-8-16.08-3.36,22.16,13.13,38.05,17.55,57.24,1.4,6.22,2.84,10.1,5,12.48S279.7,999.1,283.28,999.33Z"/><path class="cls-62" d="M285.23,997.66s3.27-2.58,2.2-9.81c-4.08-19.44-18.49-31-29.21-45,5.49,14.4,13.95,27.86,16.13,44.85.68,1.58,1.59,5,3.25,7.5S281.64,999.44,285.23,997.66Z"/><path class="cls-83" d="M480.79,1003.11s2.94.8,6.57,2l3-1.67s12.74,2.67,17.18,2.64,31.83-6.76,31.83-6.76,14.45-1.44,13.69.39,12,1.88,12,1.88c8.65.12,6.93,5.56,3.64,8.48s-12.3-.14-20.8.89-5.83,3.54-11.28,3.83-26.69,2.86-29.17,5-7.29,5.48-13.16,2.13-2.62-8.29,1.54-9.85c.58-.22.69-.44.47-.66-6,2.5-23.18,4.55-26.57.22C465.19,1005.88,480.79,1003.11,480.79,1003.11Z"/><path class="cls-84" d="M462,979.41s13.17,4.74,18.53,9.65,10.15,5.74,10.15,5.74l-11-17.24Z"/><path class="cls-84" d="M560.82,966.11s-7.16-9.46-8-13-3.08-12.45,3.65-21.34,4.4-26.75-10.3-31.37-15.45,3.1-11.85,5.06,10.54-1.75,14.61,3.24,5.33,10.16,2.51,14.34A41.1,41.1,0,0,0,545,940.82c-.69,6.9-1.53,12.09-1.53,12.09Z"/><path class="cls-85" d="M488.91,988.26s2.25,9.67-4.42,12-8.12.75-5.81,5.92,7.18,4.22,10.83,2.82,10.51-7.32,9.28-13.75S488.91,988.26,488.91,988.26Z"/><path class="cls-85" d="M555,984.5s4.37,8.4-1.89,15.17-13.74,5.12-13.89,1.42,7.37-7.29,5.66-15.6S555,984.5,555,984.5Z"/><path class="cls-84" d="M483.14,969s5.65-1.64,7.9-3.94,12.15-12.46,22.27-13.45,24.25-.47,31.25,1.3a23.73,23.73,0,0,1,16.88,14.8c3,8.24,3.81,10.28,9.13,12.46s8.09,2.5,8.93,11.27-2.43,15.8-7.52,17.55-9.37-.44-9.7-2.6,5.45-6.82,4-11.71-6.43-7.64-10.86-7.55-34.4,8.7-40.74,9.26-5.81,1.92-3.2,6.52-6.47,19.53-13.47,19.76-7.22-5-6.65-6.84,6.8-5.41,7.36-11.29-5.21-9.19-10.5-10.63S467.75,981.24,483.14,969Z"/><path class="cls-84" d="M461.29,954c6.16-3.07,16.93,5.21,16.93,5.21a23.35,23.35,0,0,1,4.64,3.84l.77-.75,3,6.17s-1.24.74-2.38,4S480,981.21,475.8,982c-3.18.61-7.79-.52-9.88-1.12-4.41-.7-9.51-3.1-14.07-6.3-6.88-4.85-4.93-14.8-4.93-14.8A132.78,132.78,0,0,0,461.29,954Z"/><path class="cls-86" d="M449.16,961.17s5.74,6.91,4.24,8.24-4.9,1-4.9,1-2.72-5.14-1.85-8.17Z"/><path class="cls-87" d="M463.73,961s-.65-1.3-1.79-.72-.07,2.1.77,2.07S464.38,961.81,463.73,961Z"/><path class="cls-88" d="M446.65,962.23s0,3.81,2.12,4.65,3,1.33,2.55,1.37a24.33,24.33,0,0,1-3.49-1.22l-.61.32a7,7,0,0,1-.36-4.73Z"/><path class="cls-89" d="M448.27,959.12s1.74,1.49.89,2-1.38.18-1.38.18-.72,1.29-1.13.88a3.55,3.55,0,0,1,.07-2.83A4,4,0,0,1,448.27,959.12Z"/><path class="cls-90" d="M446.72,959.4l1.06,2s-1,1.41-1.13.88A5.27,5.27,0,0,1,446.72,959.4Z"/><ellipse class="cls-62" cx="447.51" cy="960.54" rx="0.26" ry="0.54" transform="translate(-610.8 906.78) rotate(-62.11)"/><path class="cls-91" d="M478,960.26s-8.48-3.36-12-1.94c0,0-1.19.43-.78-.3s2.71-2.44,9.5-1.17l3.46,2.36Z"/><path class="cls-91" d="M472.81,955.7s-7.67-1.64-12,1.33c0,0-1,.15-.79-.3a10.16,10.16,0,0,1,5.09-3.53S471.08,954.65,472.81,955.7Z"/><path class="cls-84" d="M475.47,961.67l4.69-9.64,1.19-.14A21.43,21.43,0,0,1,484,962.6a14,14,0,0,1-.83,4.14"/><path class="cls-92" d="M480.16,952l-4,8.3s1,2.65,1.22,1.43S480.15,956.46,480.16,952Z"/><path class="cls-93" d="M447,964.75s1.75-.44,2.65.51a38.36,38.36,0,0,0,8.92,5.28c2.4.75,12.15.18,12.73,2.53s2.62,7.5,6.67,10.66,14.85,8.32,14.15,7S489,985.5,491,987.16s7.5,14.11,7.5,14.11-4.45-5.06-7.81-6.47-6.46-2.16-9.09-4.83A46.41,46.41,0,0,0,465,980.6c-1.58-.44-13-2.79-16.46-10.2C446.6,966.31,447,964.75,447,964.75Z"/><path class="cls-93" d="M484.13,963.09s-.59,3.8-.06,5.17a1.49,1.49,0,0,0,2.3.93c.9-.39,3.89-3.45,3.89-3.45l-3.79,1.93S484,964.61,484.13,963.09Z"/><path class="cls-93" d="M509,998.87s-7.38-11.15-6.27-10.09,5.29,5.84,9.82,6.23,38-7,37.24-8.15-13.41-7.34-10.6-6.87,21.51,8.34,21.51,8.34-5.28-1.86-9.51-.15c-3.16,1.27-21,4.78-24.77,5.58C515.09,996.2,508.88,998.23,509,998.87Z"/><path class="cls-91" d="M493.35,962.49a96.5,96.5,0,0,1,7.33,7c3.09,3.39,5.49,6.79,4.27,4.6s-6-16-6-16Z"/><path class="cls-91" d="M502.27,955.81a28.49,28.49,0,0,1,9.84-3.91,8.09,8.09,0,0,1,1.48,3.29c.52,2.2,1.83,10.85,2.55,14s-5.57-8.77-8.26-10.27S503,956.79,502.27,955.81Z"/><path class="cls-91" d="M519,951.05l9.73.26s1.84,4.21,1.08,6.72,4.29,10.41,2.62,10.16-5.35-4.67-7.31-7.85-5.11-4.06-5.51-6S519,951.05,519,951.05Z"/><path class="cls-91" d="M533.74,951.24a6.08,6.08,0,0,0,2.16,4.12c2,1.5,7.44,11.3,7.1,9.56s.24-12.69.24-12.69Z"/><path class="cls-94" d="M578.05,1000.84s-.2-2.27-.94-.6-2.56,3.29-2.66,2.15-.67-2.16-2-.67a4,4,0,0,1-3.39,1.17l-1.16-3.37-2.87,2s-8.09,6.14.69,8S577.31,1005.18,578.05,1000.84Z"/><path class="cls-94" d="M554.34,998l-2.3.39s-.63-2.5-2.43-1.72A19.11,19.11,0,0,0,547,998l-2-2.49-2.53-.21s-6.35,5.21-1.62,7.87S553.56,1001.38,554.34,998Z"/><path class="cls-94" d="M506.77,1016.36s-.78-2-2.18-.63-3.73.75-3.73.75l-1-1.58-2.69-.17-1.4-2.65-2.27.89s-6.19,5.18.73,9S506.77,1016.36,506.77,1016.36Z"/><path class="cls-94" d="M493.36,1006.36s-5.05.08-4.53-.38-.08-2-.08-2l-3.42-2,0-2.17s-7.34,1.81-7.46,2.83.36,3.57,2.77,6.13S492,1009.52,493.36,1006.36Z"/></svg>