<svg xmlns="http://www.w3.org/2000/svg" xmlns:xlink="http://www.w3.org/1999/xlink" version="1.1" id="Layer_1" x="0px" y="0px" viewBox="0 0 1920 1080" style="enable-background:new 0 0 1920 1080;" xml:space="preserve" width="3840px" height="2160px">
<style type="text/css">
	.st0{fill:#85B5C9;}
	.st1{fill:#FFFFFF;}
	.st2{fill:#759DEF;}
	.st3{fill:#5580CE;}
	.st4{fill:#EA9939;}
	.st5{fill:#777777;}
	.st6{fill:#565656;}
	.st7{fill:#AAAAAA;}
	.st8{opacity:0.3;}
	.st9{fill:#D3D3D3;}
	.st10{fill:#FC77D6;}
	.st11{opacity:0.4;fill:#FFFFFF;}
	.st12{fill:#E24DBF;}
	.st13{fill:#A8A8A8;}
	.st14{fill:#E8E8E8;}
	.st15{fill:#7C7C7C;}
	.st16{fill:#78BEF9;}
	.st17{fill:#54A8E2;}
	.st18{fill:#92D2F4;}
	.st19{opacity:0.2;}
	.st20{fill:#823636;}
	.st21{fill:#AF4141;}
	.st22{fill:none;stroke:#FFFFFF;stroke-width:4.5646;stroke-miterlimit:10;}
	.st23{fill:none;stroke:#C4C4C4;stroke-miterlimit:10;}
	.st24{fill:#383838;}
	.st25{fill:#C4C4C4;}
	.st26{fill:none;stroke:#C4C4C4;stroke-width:0.7145;stroke-miterlimit:10;}
	.st27{fill:none;stroke:#D1862C;stroke-width:2;stroke-miterlimit:10;}
	.st28{fill:#BF762E;}
	.st29{fill:#FFAE43;}
	.st30{fill:#4C4C4C;}
	.st31{fill:#666666;}
	.st32{fill:none;stroke:#3D3D3D;stroke-width:7;stroke-miterlimit:10;}
	.st33{fill:none;stroke:#4C4C4C;stroke-width:44;stroke-miterlimit:10;}
	.st34{fill:none;stroke:#191919;stroke-width:4;stroke-miterlimit:10;}
	.st35{fill:#D1D1D1;}
	.st36{fill:#969696;}
	.st37{fill:#DDDDDD;}
	.st38{fill:#BFBFBF;}
	.st39{fill:#C9C9C9;}
	.st40{fill:#E5E5E5;}
	.st41{fill:#8FE2FF;}
	.st42{fill:#32191A;}
	.st43{fill:#454F28;}
	.st44{fill:#2B301A;}
	.st45{fill:none;stroke:#FFFFFF;stroke-width:39;stroke-miterlimit:10;}
	.st46{fill:#D6D6D6;}
	.st47{fill:#FFE6C7;}
	.st48{fill:#AFAFAF;}
	.st49{fill:#BABABA;}
	.st50{fill:none;stroke:#DBDBDB;stroke-width:5.4018;stroke-linejoin:round;stroke-miterlimit:10;}
	.st51{fill:#9B9B9B;}
	.st52{fill:#A0A0A0;}
	.st53{fill:#333333;}
	.st54{fill:none;stroke:#272424;stroke-width:1.8747;stroke-linejoin:round;stroke-miterlimit:10;}
	.st55{fill:none;stroke:#272424;stroke-width:1.8747;stroke-linecap:round;stroke-linejoin:round;stroke-miterlimit:10;}
	.st56{fill:#272424;}
	.st57{fill:#4D4C4C;}
	.st58{fill:#D38733;}
	.st59{fill:none;stroke:#C1BFBF;stroke-width:7.2651;stroke-miterlimit:10;}
	.st60{fill:#AAA9A9;}
	.st61{fill:none;stroke:#A0A0A0;stroke-width:21;stroke-miterlimit:10;}
	.st62{fill:none;stroke:#C1BFBF;stroke-width:7.2651;stroke-linecap:round;stroke-miterlimit:10;}
	.st63{fill:#E63B11;}
	.st64{opacity:0.2;fill:#FFFFFF;}
	.st65{fill:#BCBCBC;}
	.st66{fill:#D6D6D8;}
	.st67{fill:#8E8E8E;}
	.st68{fill:none;stroke:#8E8E8E;stroke-width:1.1582;stroke-miterlimit:10;}
	.st69{fill:none;stroke:#2B2B2B;stroke-width:0.9745;stroke-miterlimit:10;}
	.st70{fill:#303030;}
	.st71{fill:none;stroke:#303030;stroke-width:3;stroke-miterlimit:10;}
	.st72{fill:none;stroke:#666666;stroke-width:6;stroke-linecap:round;stroke-miterlimit:10;}
	.st73{fill:#EAEAEA;}
	.st74{fill:#6D6D6D;}
	.st75{opacity:0.39;fill:#272424;}
	.st76{fill:#1D1D1B;}
	.st77{fill:#991D15;}
	.st78{fill:#7C2818;}
	.st79{opacity:0.55;fill:#FFFFFF;}
	.st80{opacity:0.32;fill:#FFFFFF;}
	.st81{opacity:0.15;fill:#FFFFFF;}
	.st82{opacity:0.14;fill:#FFFFFF;}
	.st83{opacity:0.3;fill:#A0A0A0;}
	.st84{fill:#FF5900;}
	.st85{fill:#FF6100;}
	.st86{fill:#FF4B00;}
	.st87{fill:none;stroke:#FFFFFF;stroke-width:1.7646;stroke-miterlimit:10;}
	.st88{fill:#FFD300;}
	.st89{fill:#FFDB00;}
	.st90{fill:#FFC500;}
	.st91{fill:#FFA5A8;}
	.st92{fill:#FFADA8;}
	.st93{fill:#FF97A8;}
	.st94{fill:#686868;}
	.st95{fill:none;stroke:#333333;stroke-width:2.3342;stroke-linecap:round;stroke-miterlimit:10;}
	.st96{fill:none;stroke:#E5E5E5;stroke-width:2.3342;stroke-linecap:round;stroke-miterlimit:10;}
	.st97{fill:#936C4A;}
	.st98{fill:#B58A5E;}
	.st99{opacity:0.5;}
	.st100{fill:#F4A72C;stroke:#FFFFFF;stroke-width:7.6047;stroke-miterlimit:10;}
	.st101{fill:#EAEAE8;}
	.st102{fill:#E2BF29;}
	.st103{fill:none;}
	.st104{fill:#818282;}
	.st105{opacity:0.42;fill:#004B68;}
	.st106{fill:#8AA022;}
	.st107{fill:#606C25;}
	.st108{opacity:0.42;fill:#FFFFFF;}
	.st109{fill:#505A21;}
	.st110{fill:#4E6727;}
	.st111{fill:#E4032E;}
	.st112{fill:#701818;}
	.st113{fill:#C10230;}
	.st114{fill:#A30027;}
	.st115{fill:none;stroke:#B29846;stroke-width:2;stroke-miterlimit:10;}
	.st116{fill:#3A4933;}
	.st117{fill:#F6B52B;}
	.st118{fill:#5A6D50;}
	.st119{fill:#283023;}
	.st120{fill:#C9151A;}
	.st121{fill:#A57034;}
	.st122{opacity:0.54;fill:#FFFFFF;}
	.st123{fill:#352215;}
	.st124{fill:#B9874C;}
	.st125{opacity:0.1;fill:#FFFFFF;}
	.st126{fill:#A7182B;}
	.st127{fill:#D1862C;}
	.st128{fill:#C6C6C6;}
	.st129{fill:#282828;}
	.st130{opacity:0.75;fill:#AAE4F9;}
	.st131{opacity:0.2;fill:#A1BBE5;}
	.st132{opacity:0.35;fill:#B5C9EA;}
	.st133{fill:#CCE0FF;}
	.st134{fill:#E0E1E2;}
	.st135{fill:#172A54;}
	.st136{fill:#D8D6D6;}
	.st137{fill:#962514;}
	.st138{fill:#29429B;}
	.st139{fill:#1F377A;}
	.st140{fill:#F9856E;}
	.st141{opacity:0.1;}
	.st142{fill:#00A8CA;}
	.st143{opacity:0.35;fill:#008193;}
	.st144{fill:#C62618;}
	.st145{opacity:0.24;fill:#E7E7E8;}
	.st146{opacity:0.36;fill:#606C25;}
	.st147{fill:none;stroke:#C9C9C9;stroke-width:5;stroke-miterlimit:10;}
	.st148{fill:#E4E4E4;}
	.st149{fill:#CCCBCB;}
	.st150{opacity:0.44;fill:#FFFFFF;}
	.st151{fill:#9ACCE8;}
	.st152{fill:#4A88A3;}
	.st153{fill:#BDE6F9;}
	.st154{fill:#AAE4F9;}
	.st155{fill:#E89736;}
	.st156{fill:#D8BFB8;}
	.st157{fill:#F9DCD2;}
	.st158{fill:#A7D9EA;}
	.st159{fill:none;stroke:#FFFFFF;stroke-width:1.0861;stroke-linecap:round;stroke-miterlimit:10;}
	.st160{opacity:0.31;fill:#8B9FBC;}
</style>
<g>
	<polygon class="st0" points="1920,840.3 959.3,720.3 0,840.3 0,1080 1920,1080  "/>
	<polygon class="st1" points="1920,790.3 960,670.3 960,0 1920,0  "/>
	<polygon class="st2" points="1920,790.3 958.7,670.3 958.7,0 1920,0  "/>
	<polygon class="st3" points="960,720.3 0,840.3 0,0 960,0  "/>
	<g>
		<polygon class="st4" points="1152.2,432.2 1152.2,753.3 0,951.7 0,577.4   "/>
	</g>
	<polygon class="st5" points="865.5,520.6 865.5,757.2 947.7,744.3 947.7,506.9  "/>
	<polygon class="st6" points="473.7,570.7 473.7,835 631.5,808.8 631.5,544.9  "/>
	<polygon class="st7" points="473.7,771.1 631.5,808.8 473.7,835  "/>
	<g>
		<ellipse class="st8" cx="496.2" cy="785" rx="19.5" ry="4.5"/>
		<path class="st9" d="M513.8,721V784c0,2.2-7.9,4-17.6,4s-17.6-1.8-17.6-4V721H513.8z"/>
		<path class="st10" d="M513.8,719V782c0,2.2-7.9,4-17.6,4s-17.6-1.8-17.6-4V719H513.8z"/>
		<g>
			<g>
				<ellipse class="st1" cx="506.6" cy="730.4" rx="0.7" ry="2.9"/>
				<ellipse class="st1" cx="506.6" cy="737.6" rx="0.7" ry="2.9"/>
			</g>
			<g>
				
					<ellipse transform="matrix(0.3253 -0.9456 0.9456 0.3253 -348.5875 973.2911)" class="st1" cx="507.8" cy="730.9" rx="2.7" ry="0.8"/>
				
					<ellipse transform="matrix(0.3253 -0.9456 0.9456 0.3253 -355.988 975.2259)" class="st1" cx="505.4" cy="737.1" rx="2.7" ry="0.8"/>
			</g>
			<g>
				
					<ellipse transform="matrix(0.698 -0.7161 0.7161 0.698 -370.7385 585.3198)" class="st1" cx="508.6" cy="732.2" rx="2.2" ry="0.9"/>
				
					<ellipse transform="matrix(0.698 -0.7161 0.7161 0.698 -374.5087 583.4849)" class="st1" cx="504.5" cy="735.8" rx="2.2" ry="0.9"/>
			</g>
			<g>
				<ellipse class="st1" cx="508.9" cy="734" rx="1.9" ry="1.1"/>
				<ellipse class="st1" cx="504.2" cy="734" rx="1.9" ry="1.1"/>
			</g>
			<g>
				
					<ellipse transform="matrix(0.7161 -0.698 0.698 0.7161 -369.1809 563.9246)" class="st1" cx="508.6" cy="735.8" rx="0.9" ry="2.2"/>
				
					<ellipse transform="matrix(0.7161 -0.698 0.698 0.7161 -367.854 560.0816)" class="st1" cx="504.5" cy="732.2" rx="0.9" ry="2.2"/>
			</g>
			<g>
				
					<ellipse transform="matrix(0.9456 -0.3253 0.3253 0.9456 -212.1537 205.2595)" class="st1" cx="507.8" cy="737.1" rx="0.8" ry="2.7"/>
				
					<ellipse transform="matrix(0.9456 -0.3253 0.3253 0.9456 -210.2795 204.1622)" class="st1" cx="505.4" cy="730.9" rx="0.8" ry="2.7"/>
			</g>
			<ellipse class="st10" cx="506.6" cy="734" rx="1.1" ry="1.7"/>
		</g>
		<g>
			<g>
				<ellipse class="st1" cx="487.2" cy="730.4" rx="0.4" ry="1.6"/>
				<ellipse class="st1" cx="487.2" cy="734.3" rx="0.4" ry="1.6"/>
			</g>
			<g>
				
					<ellipse transform="matrix(0.3253 -0.9456 0.9456 0.3253 -361.7749 954.2455)" class="st1" cx="487.8" cy="730.6" rx="1.5" ry="0.4"/>
				
					<ellipse transform="matrix(0.3253 -0.9456 0.9456 0.3253 -365.875 955.3174)" class="st1" cx="486.5" cy="734.1" rx="1.5" ry="0.4"/>
			</g>
			<g>
				
					<ellipse transform="matrix(0.698 -0.7161 0.7161 0.698 -376.2587 570.5069)" class="st1" cx="488.3" cy="731.4" rx="1.2" ry="0.5"/>
				
					<ellipse transform="matrix(0.698 -0.7161 0.7161 0.698 -378.3475 569.4904)" class="st1" cx="486" cy="733.3" rx="1.2" ry="0.5"/>
			</g>
			<g>
				<ellipse class="st1" cx="488.5" cy="732.3" rx="1" ry="0.6"/>
				<ellipse class="st1" cx="485.9" cy="732.3" rx="1" ry="0.6"/>
			</g>
			<g>
				
					<ellipse transform="matrix(0.7161 -0.698 0.698 0.7161 -373.2438 549.0444)" class="st1" cx="488.3" cy="733.3" rx="0.5" ry="1.2"/>
				
					<ellipse transform="matrix(0.7161 -0.698 0.698 0.7161 -372.5086 546.9153)" class="st1" cx="486" cy="731.4" rx="0.5" ry="1.2"/>
			</g>
			<g>
				
					<ellipse transform="matrix(0.9456 -0.3253 0.3253 0.9456 -212.2539 198.6084)" class="st1" cx="487.8" cy="734.1" rx="0.4" ry="1.5"/>
				
					<ellipse transform="matrix(0.9456 -0.3253 0.3253 0.9456 -211.2155 198.0005)" class="st1" cx="486.5" cy="730.6" rx="0.4" ry="1.5"/>
			</g>
			<ellipse class="st10" cx="487.2" cy="732.3" rx="0.6" ry="0.9"/>
		</g>
		<g>
			<g>
				<ellipse class="st1" cx="486.6" cy="772.3" rx="0.4" ry="1.6"/>
				<ellipse class="st1" cx="486.6" cy="776.2" rx="0.4" ry="1.6"/>
			</g>
			<g>
				
					<ellipse transform="matrix(0.3253 -0.9456 0.9456 0.3253 -401.7863 981.9312)" class="st1" cx="487.2" cy="772.5" rx="1.5" ry="0.4"/>
				
					<ellipse transform="matrix(0.3253 -0.9456 0.9456 0.3253 -405.8864 983.0032)" class="st1" cx="485.9" cy="775.9" rx="1.5" ry="0.4"/>
			</g>
			<g>
				
					<ellipse transform="matrix(0.698 -0.7161 0.7161 0.698 -406.4315 582.7213)" class="st1" cx="487.7" cy="773.2" rx="1.2" ry="0.5"/>
				
					<ellipse transform="matrix(0.698 -0.7161 0.7161 0.698 -408.5204 581.7047)" class="st1" cx="485.4" cy="775.2" rx="1.2" ry="0.5"/>
			</g>
			<g>
				<ellipse class="st1" cx="487.9" cy="774.2" rx="1" ry="0.6"/>
				<ellipse class="st1" cx="485.3" cy="774.2" rx="1" ry="0.6"/>
			</g>
			<g>
				
					<ellipse transform="matrix(0.7161 -0.698 0.698 0.7161 -402.6495 560.5135)" class="st1" cx="487.7" cy="775.2" rx="0.5" ry="1.2"/>
				
					<ellipse transform="matrix(0.7161 -0.698 0.698 0.7161 -401.9144 558.3843)" class="st1" cx="485.4" cy="773.2" rx="0.5" ry="1.2"/>
			</g>
			<g>
				
					<ellipse transform="matrix(0.9456 -0.3253 0.3253 0.9456 -225.9107 200.6896)" class="st1" cx="487.2" cy="775.9" rx="0.4" ry="1.5"/>
				
					<ellipse transform="matrix(0.9456 -0.3253 0.3253 0.9456 -224.8724 200.0816)" class="st1" cx="485.9" cy="772.5" rx="0.4" ry="1.5"/>
			</g>
			<ellipse class="st10" cx="486.6" cy="774.2" rx="0.6" ry="0.9"/>
		</g>
		<g>
			<g>
				<ellipse class="st1" cx="497.3" cy="746.8" rx="1.7" ry="7"/>
				<ellipse class="st1" cx="497.3" cy="764.1" rx="1.7" ry="7"/>
			</g>
			<g>
				
					<ellipse transform="matrix(0.3253 -0.9456 0.9456 0.3253 -369.7844 977.6199)" class="st1" cx="500.2" cy="747.9" rx="6.5" ry="1.8"/>
				
					<ellipse transform="matrix(0.3253 -0.9456 0.9456 0.3253 -387.8286 982.3376)" class="st1" cx="494.5" cy="762.9" rx="6.5" ry="1.8"/>
			</g>
			<g>
				
					<ellipse transform="matrix(0.698 -0.7161 0.7161 0.698 -386.176 586.4904)" class="st1" cx="502.3" cy="751.1" rx="5.4" ry="2.2"/>
				
					<ellipse transform="matrix(0.698 -0.7161 0.7161 0.698 -395.3687 582.0166)" class="st1" cx="492.4" cy="759.8" rx="5.4" ry="2.2"/>
			</g>
			<g>
				<ellipse class="st1" cx="503" cy="755.4" rx="4.6" ry="2.6"/>
				<ellipse class="st1" cx="491.6" cy="755.4" rx="4.6" ry="2.6"/>
			</g>
			<g>
				
					<ellipse transform="matrix(0.7161 -0.698 0.698 0.7161 -387.7297 566.3193)" class="st1" cx="502.3" cy="759.8" rx="2.2" ry="5.4"/>
				
					<ellipse transform="matrix(0.7161 -0.698 0.698 0.7161 -384.4943 556.949)" class="st1" cx="492.4" cy="751.1" rx="2.2" ry="5.4"/>
			</g>
			<g>
				
					<ellipse transform="matrix(0.9456 -0.3253 0.3253 0.9456 -220.9801 204.2056)" class="st1" cx="500.2" cy="762.9" rx="1.8" ry="6.5"/>
				
					<ellipse transform="matrix(0.9456 -0.3253 0.3253 0.9456 -216.4104 201.5301)" class="st1" cx="494.5" cy="747.9" rx="1.8" ry="6.5"/>
			</g>
			<ellipse class="st10" cx="497.3" cy="755.4" rx="2.7" ry="4"/>
		</g>
		<path class="st11" d="M510.8,784.3c-2,0.7-4.8,1.2-8.1,1.5V719h8.1V784.3z"/>
		<ellipse class="st12" cx="496.2" cy="719" rx="17.6" ry="4"/>
		<path class="st9" d="M480.4,717.4c0,3.1,7.1,4.2,15.8,4.2c8.7,0,15.8-1.1,15.8-4.2s-7.1-5.6-15.8-5.6    C487.5,711.7,480.4,714.3,480.4,717.4z"/>
		<path class="st13" d="M509.8,709.8v5.9c0,1.7-6.1,3.1-13.7,3.1s-13.7-1.4-13.7-3.1v-5.9H509.8z"/>
		<path class="st9" d="M482.5,709.8c0,1.7,6.1,3.1,13.7,3.1s13.7-1.4,13.7-3.1s-6.1-3.1-13.7-3.1S482.5,708.1,482.5,709.8z     M484.1,709.5c0-1.4,5.4-2.5,12.1-2.5c6.7,0,12.1,1.1,12.1,2.5c0,1.4-5.4,2.5-12.1,2.5C489.5,712,484.1,710.9,484.1,709.5z"/>
		<ellipse class="st13" cx="496.2" cy="709.5" rx="12.1" ry="2.5"/>
		<path class="st14" d="M496.2,712c3.6,0,6.8-0.3,9-0.8c-1.6-0.7-5-1.2-9-1.2s-7.5,0.5-9,1.2C489.4,711.7,492.6,712,496.2,712z"/>
		<g>
			<path class="st15" d="M496.9,709.7v1.6c0,0.1-0.3,0.2-0.7,0.2s-0.7-0.1-0.7-0.2v-1.6H496.9z"/>
		</g>
		<g>
			<path class="st10" d="M499.6,701.8v7.8c0,0.4-1.5,0.8-3.4,0.8s-3.4-0.4-3.4-0.8v-7.8H499.6z"/>
			<ellipse class="st12" cx="496.2" cy="701.8" rx="3.4" ry="0.8"/>
		</g>
		<circle class="st1" cx="496.2" cy="706.2" r="1.9"/>
		<circle class="st15" cx="496.2" cy="706.2" r="0.4"/>
	</g>
	<g>
		<ellipse class="st8" cx="535.6" cy="788.8" rx="19.5" ry="4.5"/>
		<path class="st9" d="M553.2,704.8v83.1c0,2.2-7.9,4-17.6,4s-17.6-1.8-17.6-4v-83.1H553.2z"/>
		<path class="st16" d="M553.2,702.8v83.1c0,2.2-7.9,4-17.6,4s-17.6-1.8-17.6-4v-83.1H553.2z"/>
		<path class="st11" d="M550.2,788.2c-2,0.7-4.8,1.2-8.1,1.5v-86.8h8.1V788.2z"/>
		<ellipse class="st17" cx="535.6" cy="702.8" rx="17.6" ry="4"/>
		<path class="st18" d="M519.8,701.3c0,3.1,7.1,4.2,15.8,4.2s15.8-1.1,15.8-4.2s-7.1-5.6-15.8-5.6S519.8,698.1,519.8,701.3z"/>
		<path class="st16" d="M549.2,683.7v15.9c0,1.7-6.1,3.1-13.7,3.1s-13.7-1.4-13.7-3.1v-15.9H549.2z"/>
		<path class="st18" d="M521.9,683.7c0,1.7,6.1,3.1,13.7,3.1s13.7-1.4,13.7-3.1s-6.1-3.1-13.7-3.1S521.9,682,521.9,683.7z"/>
	</g>
	<g>
		<g>
			<path class="st19" d="M580.1,816.7h-81.5c-3.8,0-6.9-3.1-6.9-6.9v0c0-3.8,3.1-6.9,6.9-6.9h81.5c3.8,0,6.9,3.1,6.9,6.9v0     C587,813.6,583.9,816.7,580.1,816.7z"/>
			<g>
				<rect x="507.5" y="702.9" class="st20" width="24.1" height="7.4"/>
				<g>
					<path class="st20" d="M569.2,749.4l-10.5-20.3c-2.8-5.4-8.3-8.8-14.4-8.8h-15.8v-8.7h15.8c9.4,0,17.9,5.2,22.1,13.5l10.5,20.3       L569.2,749.4z"/>
				</g>
				<path class="st21" d="M570.1,811.4h-61.5c-5.1,0-9.2-4.1-9.2-9.2v-88.9c0-3.4,2.7-6.1,6.1-6.1h25.3c2.4,0,4.6,1.4,5.5,3.6      l12,26.9l24.7,0.2c3.5,0,6.3,2.9,6.3,6.3v58C579.3,807.3,575.2,811.4,570.1,811.4z"/>
			</g>
		</g>
		<g>
			<g>
				<path class="st1" d="M534.8,768.7c0.5-0.5,0.5-1.3,0-1.7c-0.5-0.5-1.3-0.5-1.7,0c-0.3,0.3-0.4,0.7-0.3,1.1      c-0.4-0.1-0.8,0-1.1,0.3c-0.5,0.5-0.5,1.3,0,1.7c0.4,0.4,1.1,0.5,1.6,0.1l1.5,1.5c0.4-0.7,0.9-1.2,1.5-1.6L534.8,768.7      C534.8,768.7,534.8,768.7,534.8,768.7z M542.9,771.8l1.5-1.5c0.5,0.4,1.2,0.3,1.6-0.1c0.5-0.5,0.5-1.3,0-1.7      c-0.3-0.3-0.7-0.4-1.1-0.3c0.1-0.4,0-0.8-0.3-1.1c-0.5-0.5-1.3-0.5-1.7,0c-0.5,0.5-0.5,1.3,0,1.7c0,0,0,0,0,0l-1.4,1.4      C542,770.6,542.5,771.1,542.9,771.8z M544.2,778.2C544.2,778.2,544.2,778.2,544.2,778.2l-1.5-1.5c-0.2,0.3-0.4,0.6-0.7,0.9v1.6      l0.7,0.7c-0.4,0.5-0.3,1.2,0.1,1.6c0.5,0.5,1.3,0.5,1.7,0c0.3-0.3,0.4-0.7,0.3-1.1c0.4,0.1,0.8,0,1.1-0.3c0.5-0.5,0.5-1.3,0-1.7      S544.7,777.7,544.2,778.2z M533.3,778.2C533.3,778.2,533.3,778.2,533.3,778.2c-0.5-0.5-1.3-0.5-1.8,0s-0.5,1.3,0,1.7      c0.3,0.3,0.7,0.4,1.1,0.3c-0.1,0.4,0,0.8,0.3,1.1c0.5,0.5,1.3,0.5,1.7,0c0.4-0.4,0.5-1.1,0.1-1.6l0.7-0.7v-1.6      c-0.3-0.3-0.5-0.5-0.7-0.9L533.3,778.2z"/>
				<path class="st1" d="M543,774.1c0-2.3-1.9-4.2-4.2-4.2s-4.2,1.9-4.2,4.2c0,1.3,0.6,2.4,1.5,3.2v2h5.4v-2      C542.4,776.5,543,775.4,543,774.1z"/>
			</g>
			<path class="st22" d="M534.9,754.9l-14.7,26.5c-1.5,2.9,0.6,6.4,3.9,6.4h29.4c3.3,0,5.4-3.5,3.9-6.4l-14.7-26.5     C541,751.8,536.6,751.8,534.9,754.9z"/>
		</g>
	</g>
	<polygon class="st1" points="631.5,813.4 631.5,523.4 845,487.2 845,777.2  "/>
	<g>
		<polygon class="st23" points="712.3,568.1 763.4,559.5 763.4,531.1 712.3,539.6   "/>
		<polygon class="st24" points="717.3,543.8 758.4,537 758.4,555.3 717.3,562.2   "/>
	</g>
	<g>
		<polygon class="st23" points="646.6,579.1 707,569 707,540.5 646.6,550.6   "/>
		<polygon class="st25" points="664.6,547.6 701,541.5 698.3,546.7 670.6,551.2   "/>
	</g>
	<path class="st26" d="M795.1,775.7l38.5-6.4c1.1-0.2,1.9-1.2,1.9-2.3v-15.7c0-1.4-1.3-2.5-2.7-2.3l-38.5,6.4   c-1.1,0.2-1.9,1.2-1.9,2.3v15.7C792.4,774.8,793.7,775.9,795.1,775.7z"/>
	<line class="st27" x1="305.9" y1="597.7" x2="305.9" y2="898.8"/>
	<g>
		<polygon class="st28" points="1152.2,722.2 1639.4,665.6 0,954.6 0,911.4   "/>
	</g>
	<polygon class="st29" points="959.3,458.1 959.3,788.5 1920,964 1920,589.7  "/>
	<line class="st27" x1="960" y1="559.3" x2="1920" y2="713.6"/>
	<polygon class="st8" points="0,663.9 473.7,589.1 473.7,570.7 631.5,546.2 631.5,562.2 960,511.1 1920,665.6 1920,645.5 959.3,490    0,643.9  "/>
	<polygon class="st19" points="853.2,772.3 845,773.3 845,512.1 853.2,510.8  "/>
	<polygon class="st8" points="639.8,807.8 631.5,808.8 631.5,544.9 639.8,543.6  "/>
	<g>
		<g>
			<polygon class="st30" points="1525.1,857.8 1525.1,581.6 1236.4,535.9 1236.4,804.6    "/>
			<polygon class="st31" points="1256.4,787.9 1256.4,559.3 1505.1,598.6 1505.1,833.8    "/>
			<polygon class="st32" points="1256.4,787.9 1256.4,559.3 1505.1,598.6 1505.1,833.8    "/>
			<line class="st33" x1="1245" y1="674.2" x2="1516.3" y2="719.2"/>
			<line class="st34" x1="1236.4" y1="672.8" x2="1525.1" y2="720.6"/>
		</g>
		<g>
			<g>
				<polygon class="st19" points="1304.8,721.2 1318.1,730 1420.3,748.3 1420.3,737.2 1319.4,716.4     "/>
				<g>
					<polygon class="st1" points="1319,712 1420.4,729.5 1406.2,730.7 1304.8,713.2      "/>
					<polygon class="st35" points="1406.1,738.7 1406.2,730.7 1304.8,713.2 1304.8,721.2      "/>
					<polygon class="st36" points="1420.3,737.5 1420.4,729.5 1406.2,730.7 1406.1,738.7      "/>
				</g>
			</g>
			<g>
				<polygon class="st19" points="1304.8,584.4 1318.1,593.2 1420.3,611.5 1420.3,600.4 1319.4,579.7     "/>
				<g>
					<polygon class="st1" points="1319,575.3 1420.4,592.7 1406.2,593.9 1304.8,576.4      "/>
					<polygon class="st35" points="1406.1,601.9 1406.2,593.9 1304.8,576.4 1304.8,584.4      "/>
					<polygon class="st36" points="1420.3,600.7 1420.4,592.7 1406.2,593.9 1406.1,601.9      "/>
				</g>
			</g>
		</g>
	</g>
	<line class="st27" x1="1102.1" y1="503.1" x2="1102.1" y2="793.1"/>
	<line class="st27" x1="1722.3" y1="610.4" x2="1722.3" y2="900.4"/>
	<g>
		<polygon class="st37" points="1152.2,436.2 1152.2,463.8 0,643.9 0,615.7   "/>
	</g>
	<polygon class="st38" points="959.3,463.1 959.3,495 1920,650.5 1920,594.7  "/>
	<polygon class="st1" points="1081.4,410.8 1083.2,410.6 976.3,396.6 960.2,394.4 959.9,394.5 959.6,394.4 943.4,396.6 836.5,410.6    838.3,410.8 0,535.3 0,617.1 959.9,466.9 1920,614.9 1920,529.6  "/>
	<g>
		<polygon class="st39" points="687,0 0,40.5 0,475.3 687,387   "/>
	</g>
	<g>
		<polygon class="st40" points="687,387 609.8,359.1 0,433 0,475.3   "/>
	</g>
	<polygon class="st41" points="609.8,5 0,41.5 0,433.2 609.8,359.1  "/>
	<g>
		<path class="st42" d="M576.8,175.2c-1.8,1.8-4.2,3.2-7,4.4c-12.5,62.9-24.1,115.8-29.5,127.2c-15.1,31.7-33.5-37.9-57.3-90.3    c-1.7-3.7-3.5-7.3-5.3-10.8l-6.4,2.6c-0.4,0.8-1,1.6-1.5,2.5c-2.4,3.6-5.6,5.3-9.2,6c25.7,51,55.1,111.4,61.5,132    c1.4,4.5,2.6,11.5,3.7,20.4l36.9-4.5c6.3-44.3,17.1-115.8,28-187.3C585.7,173.6,580.5,171.6,576.8,175.2z"/>
		<polygon class="st43" points="426.6,206.3 427.2,206.6 427,206.2   "/>
		<path class="st43" d="M532.4,191.1l6.4-6.4C538.8,184.7,534.9,182.8,532.4,191.1z"/>
		<path class="st43" d="M432.1,160.9c-7.5-14.6-12.3-23.7-12.3-23.7s6.1,4.2,14.9,12.4c2.8-8.9,7.9-17.2,16-7.7    c14.3,16.7,28.5,2.4,28.5,2.4s-4.8-11.9,11.9-9.5s11.9,16.7,11.9,16.7l28.5-28.5l-11.9-23.8c0,0,14.3-30.9,19-16.7    c4.8,14.3,16.7,7.1,16.7,7.1L553,61l16.7-16.7l9.5,11.9l16-9.1c2.7-14.7,5.3-28.7,7.7-41.8l-138.2,8.3c5.5,1.3,9.3,4.4,5.1,11.7    c-9.5,16.7-40.4,28.5-40.4,28.5l38.1,11.9c0,0-50,30.9-50,21.4s-26.2-9.5-26.2-9.5l-14.3,19h-38.1l-25.1,13.7    c9.5,6.6,18.1,10.6,18.1,10.6l11.8,30.4l26.2-7.1l9.5,23.8c0,0,16.7-19,23.8-2.4c2,4.7,2.7,9,2.7,12.7l25.9-15.1    C431.7,163.3,431.8,162.4,432.1,160.9z"/>
		<path class="st43" d="M331.8,32.5l5.6-11.2l-16.7,1C326.6,32.5,331.8,32.5,331.8,32.5z"/>
		<path class="st43" d="M300.9,45.3c1.1,1.1,2.2,2.1,3.2,3.2l-0.8-4L300.9,45.3z"/>
		<path class="st43" d="M393.6,23c0,0,4.8,2.4,16.7,4.8c9.9,2,28.8-9.1,35-12.9l-84,5l11,21.3L393.6,23z"/>
		<path class="st43" d="M308,68.2l-1.2-5.8c-6.5,4.6-16.1,12.9-15.8,22C298,76.1,308,68.2,308,68.2z"/>
		<path class="st43" d="M453.1,215.7l-2.1,0.9c3.2,0.7,6.5,0.9,9.6,0.3c-0.6-1.2-1.2-2.4-1.8-3.5L453.1,215.7z"/>
		<path class="st43" d="M609.8,58.7v-5c-0.2,1.5-0.5,3-0.7,4.5L609.8,58.7z"/>
		<path class="st43" d="M595.9,46.8l13.2,11.3c0.2-1.5,0.5-3,0.7-4.5V5l-6.9,0.4c-2.4,13-5,27.1-7.7,41.8L595.9,46.8z"/>
		<path class="st43" d="M432.1,160.9c0.4-2.6,1.3-7,2.7-11.3c-8.8-8.2-14.9-12.4-14.9-12.4S424.6,146.3,432.1,160.9z"/>
		<path class="st43" d="M460.6,216.9c3.6-0.7,6.8-2.5,9.2-6c0.6-0.9,1.1-1.7,1.5-2.5l-12.5,5C459.4,214.6,460,215.8,460.6,216.9z"/>
		<path class="st44" d="M538.8,184.7c0,0,18.9,0,31.1-5.1c0.6-3.1,1.3-6.3,1.9-9.5L538.8,184.7z"/>
		<path class="st44" d="M517.4,206.2c0,0-26.2-9.5-38.1-9.5c-5.9,0-5.9,0-5.7,1.7c1.4,2.4,2.8,4.9,4.1,7.4l11.1-4.4L517.4,206.2z"/>
		<path class="st44" d="M605.4,163.3c0,0,1.9-1.9,4.4-4.6v-9.6C608.3,154.9,606.7,160,605.4,163.3z"/>
		<path class="st44" d="M592,169c-0.4,2.8-0.9,5.6-1.3,8.5c8,6.2,15.5,17.1,15.5,17.1l-0.8-31.3C603,169.2,597.3,169.9,592,169z"/>
		<path class="st44" d="M405.8,178.4l-2.7,1.5l-16.7,16.7l11.9,19l28.2-9.4l-25.8-12C400.8,194.3,405.7,188.1,405.8,178.4z"/>
		<path class="st44" d="M531.6,194.3c0.2-1.2,0.5-2.2,0.8-3.2l-15.1,15.1C517.4,206.2,529.2,206.2,531.6,194.3z"/>
		<path class="st44" d="M427.2,206.6l9.3,16.2l14.5-6.2c-7.8-1.6-14.5-5.7-14.5-5.7L427.2,206.6z"/>
		<path class="st44" d="M471.3,208.4l6.4-2.6c-1.3-2.5-2.7-5-4.1-7.4C473.9,199.9,474.4,202.9,471.3,208.4z"/>
		<path class="st44" d="M581.6,165.7l-9.9,4.4c-0.6,3.2-1.3,6.4-1.9,9.5c2.8-1.2,5.2-2.6,7-4.4c3.7-3.7,8.9-1.6,13.9,2.3    c0.4-2.8,0.9-5.6,1.3-8.5C586.5,168.2,581.6,165.7,581.6,165.7z"/>
		<path class="st44" d="M609.1,58.1c-5.2,33.8-11.2,72.2-17.1,110.9c5.3,0.8,11,0.1,13.4-5.7c1.4-3.4,2.9-8.5,4.4-14.2V58.7    L609.1,58.1z"/>
		<path class="st44" d="M579.2,56.3l-9.5-11.9L553,61l2.4,28.5c0,0-11.9,7.1-16.7-7.1c-4.8-14.3-19,16.7-19,16.7l11.9,23.8    l-28.5,28.5c0,0,4.8-14.3-11.9-16.7s-11.9,9.5-11.9,9.5s-14.3,14.3-28.5-2.4c-8.1-9.5-13.2-1.2-16,7.7    c10.9,10.2,25.9,26.5,38.9,48.8c-0.3-1.7-0.2-1.7,5.7-1.7c11.9,0,38.1,9.5,38.1,9.5l15.1-15.1c2.5-8.3,6.4-6.4,6.4-6.4l33-14.7    c7.9-40.2,16.2-83.8,23.4-122.9L579.2,56.3z"/>
		<path class="st44" d="M458.8,213.4c-10.2-20.2-19.7-38.8-26.7-52.5c-0.3,1.5-0.4,2.4-0.4,2.4l-25.9,15.1c-0.1,9.7-5,15.8-5,15.8    l25.8,12l0.4-0.1l0.2,0.4l9.3,4.3c0,0,6.8,4.1,14.5,5.7l2.1-0.9L458.8,213.4z"/>
		<path class="st44" d="M473.6,198.4c-13-22.3-28-38.6-38.9-48.8c-1.4,4.3-2.2,8.7-2.7,11.3c7.1,13.7,16.5,32.3,26.7,52.5l12.5-5    C474.4,202.9,473.9,199.9,473.6,198.4z"/>
		<path class="st44" d="M595.2,47.2c-7.2,39.1-15.5,82.7-23.4,122.9l9.9-4.4c0,0,4.9,2.5,10.4,3.3c5.9-38.7,11.9-77.1,17.1-110.9    l-13.2-11.3L595.2,47.2z"/>
		<path class="st44" d="M276.5,24.1c-0.5,0.4-1,0.7-1.3,0.9l1.5-0.1C276.6,24.6,276.5,24.4,276.5,24.1z"/>
		<path class="st44" d="M284.2,51.5l16.7-6.3c-4.6-4.4-10.3-9.1-16.7-12.8c-4.3-2.5-6.5-5.1-7.5-7.6l-1.5,0.1    c-0.3,0.2-0.5,0.4-0.5,0.4C248.5,34.9,284.2,51.5,284.2,51.5z"/>
		<path class="st44" d="M304.1,48.4l2.8,14c3.4-2.4,5.9-3.7,5.9-3.7S309.5,54.1,304.1,48.4z"/>
		<path class="st44" d="M293.7,92c-1.8-2.6-2.6-5.1-2.7-7.6c-3.8,4.5-6.8,9-6.8,12.4c0,9.5,28.5,14.3,28.5,14.3l1-0.6    C306.6,105.5,298.8,99.1,293.7,92z"/>
		<path class="st44" d="M447.2,13.6c0,0-0.7,0.5-2,1.3l19.4-1.2C457.5,12,447.2,13.6,447.2,13.6z"/>
		<path class="st44" d="M377,96.7l14.3-19c0,0,26.2,0,26.2,9.5s50-21.4,50-21.4l-38.1-11.9c0,0,30.9-11.9,40.4-28.5    c4.1-7.2,0.4-10.4-5.1-11.7l-19.4,1.2c-6.1,3.8-25.1,14.9-35,12.9c-11.9-2.4-16.7-4.8-16.7-4.8l-21.4,18.1l-11-21.3l-23.9,1.4    l-5.6,11.2c0,0-5.2,0-11.1-10.2l-44,2.6c1,2.5,3.2,5.1,7.5,7.6c6.4,3.7,12.1,8.4,16.7,12.8l2.4-0.9l0.8,4    c5.5,5.7,8.7,10.2,8.7,10.2s-2.6,1.4-5.9,3.7l1.2,5.8c0,0-10,8-17,16.2c0.1,2.5,0.9,5.1,2.7,7.6c5.1,7.2,12.9,13.5,20.1,18.5    l25.1-13.7H377z"/>
	</g>
	<g>
		<polygon class="st1" points="0,442.9 0,430 603.3,353.4 603.3,5 616.3,5 616.3,364.9   "/>
	</g>
	<line class="st45" x1="213.1" y1="25.2" x2="213.1" y2="150.1"/>
	<polygon class="st46" points="0,0 0,41 673.7,2.3 683.8,0  "/>
	<g>
		<polygon class="st8" points="978.3,273.9 1066.2,331.2 1326.1,368.2 1326.1,294.7 1069.4,254.1   "/>
		<g>
			<polygon class="st47" points="1068.4,242.3 1326.1,274.8 1236,286.6 978.3,254.1    "/>
			<polygon class="st1" points="1236,306.4 1236,286.6 978.3,254.1 978.3,273.9    "/>
			<polygon class="st37" points="1326.1,294.7 1326.1,274.8 1236,286.6 1236,306.4    "/>
		</g>
	</g>
	<g>
		<g>
			<polygon class="st48" points="1525.1,158.9 1803.2,178.4 1807.4,514.2 1525.1,475.1    "/>
		</g>
		<g>
			<path class="st46" d="M1532.7,407.7c9.5-10.5,19.2-20.7,29-31l14.7-15.2l14.9-15.1c19.8-20.1,40-39.9,60.3-59.5l15.3-14.7     c5.1-4.9,10.2-9.8,15.3-14.6l15.4-14.6c5.1-4.9,10.3-9.6,15.5-14.5c20.7-19.2,41.5-38.3,62.9-56.8l0.6,0.7     c-19.2,20.8-38.9,41.1-58.7,61.2c-5,5-9.9,10.1-14.9,15l-15,14.9c-5,5-10,10-15.1,14.9l-15.1,14.8     c-20.2,19.7-40.6,39.3-61.3,58.5l-15.5,14.4l-15.7,14.3c-10.5,9.4-21,18.9-31.8,28L1532.7,407.7z"/>
		</g>
		<g>
			<path class="st46" d="M1551.8,357c8.4-9.3,17.1-18.3,25.8-27.4l13.1-13.4l13.2-13.3c17.7-17.7,35.7-35.1,53.9-52.3     c4.5-4.3,9.1-8.6,13.7-12.9c4.6-4.3,9.1-8.5,13.7-12.8l13.8-12.7c4.6-4.2,9.3-8.4,13.9-12.6c18.5-16.8,37.2-33.4,56.4-49.5     l0.6,0.7c-17,18.4-34.6,36.2-52.3,53.9c-4.4,4.4-8.8,8.9-13.3,13.2l-13.4,13.1c-4.5,4.4-8.9,8.7-13.5,13.1     c-4.5,4.3-9,8.7-13.5,13c-18.1,17.3-36.3,34.4-54.9,51.2l-13.9,12.6l-14.1,12.4c-9.4,8.2-18.9,16.4-28.6,24.4L1551.8,357z"/>
		</g>
		<g>
			<path class="st46" d="M1666.2,459.3c10.5-11.2,21.3-22.1,32.3-32.8c10.9-10.8,22-21.4,33.1-32c11.1-10.5,22.3-21,33.6-31.4     c11.3-10.4,22.7-20.6,34.3-30.7l0.3,0.3c-10.6,11.1-21.4,22-32.3,32.8c-10.9,10.8-21.9,21.4-33,32     c-11.1,10.6-22.3,21.1-33.6,31.5c-11.3,10.4-22.7,20.6-34.4,30.6L1666.2,459.3z"/>
		</g>
		<g>
			<path class="st46" d="M1526.6,232.7c8.8-11,17.9-21.8,27.1-32.5c9.2-10.7,18.5-21.2,28-31.6c9.4-10.4,18.9-20.8,28.6-31.1     c9.6-10.3,19.3-20.5,29.3-30.4l0.3,0.3c-8.9,11-18,21.7-27.2,32.4c-9.2,10.7-18.5,21.2-27.9,31.7c-9.4,10.5-18.9,20.9-28.5,31.2     c-9.6,10.3-19.4,20.5-29.4,30.4L1526.6,232.7z"/>
		</g>
		<g>
			<path class="st46" d="M1698.4,461.9c5.5-5.8,11.1-11.5,16.7-17c5.7-5.6,11.4-11.1,17.2-16.6c11.6-10.9,23.2-21.7,35.3-32.2     l0.2,0.2c-11,11.5-22.4,22.6-33.9,33.6c-5.7,5.5-11.5,10.9-17.4,16.3c-5.8,5.4-11.8,10.7-17.8,15.9L1698.4,461.9z"/>
		</g>
		<g>
			<polygon class="st40" points="1525.1,452.9 1807.4,489.5 1807.4,514.2 1525.1,475.1    "/>
		</g>
		<g>
			<polygon class="st8" points="1449.4,160.8 1511.9,226.5 1812.1,271.6 1812.1,186.7 1520.5,143    "/>
			<polygon class="st40" points="1449.4,159.2 1731.3,199.7 1731.3,174.9 1449.4,134.4    "/>
			<polygon class="st49" points="1812.1,163.3 1731.3,174.9 1731.3,199.7 1812.1,188    "/>
			<polygon class="st40" points="1731.3,174.9 1698.7,58.2 1812.1,163.3    "/>
			<polygon class="st46" points="1449.4,134.4 1609.4,56.3 1698.7,58.2 1731.3,174.9    "/>
			<g>
				<g>
					<polygon class="st1" points="1632.5,25.5 1698.7,25.5 1675.5,25.5 1609.4,25.5      "/>
					<polygon class="st35" points="1675.5,89.6 1675.5,0 1609.4,0 1609.4,80      "/>
					<polygon class="st36" points="1698.7,59.8 1698.7,0 1675.5,0 1675.5,89.6      "/>
				</g>
			</g>
		</g>
	</g>
	<g>
		<g>
			<polygon class="st50" points="358.6,499.4 157.5,526.1 297.9,546.8 499,520.1    "/>
			<g>
				<polygon class="st51" points="358.6,499.4 157.5,526.1 297.9,546.8 499,520.1     "/>
				<polygon class="st39" points="358,538.8 499,520.1 358.6,499.4     "/>
			</g>
		</g>
		<g>
			<polygon class="st50" points="474.8,482.4 362.1,498.2 502.5,518.9 615.2,503.1    "/>
			<g>
				<polygon class="st52" points="474.8,482.4 362.1,498.2 502.5,518.9 615.2,503.1     "/>
			</g>
		</g>
	</g>
	<g>
		<polygon class="st30" points="1519.3,473.9 1806.8,513.2 1524.1,550.1 1236.6,510.8   "/>
		<g>
			<polygon class="st53" points="1373.5,496.7 1459.2,508.4 1375,519.4 1289.3,507.7    "/>
			<g>
				<polygon class="st54" points="1373.9,490.3 1459.5,502 1375.3,513 1289.7,501.3     "/>
				<line class="st55" x1="1331.1" y1="495.8" x2="1416.7" y2="507.5"/>
				<line class="st55" x1="1416.7" y1="495.8" x2="1332.5" y2="506.8"/>
				<ellipse class="st56" cx="1374.6" cy="501.6" rx="13.9" ry="3.1"/>
				<line class="st55" x1="1373.9" y1="490.3" x2="1375.3" y2="513"/>
				<line class="st55" x1="1289.7" y1="501.3" x2="1458.9" y2="502"/>
			</g>
		</g>
		<g>
			<polygon class="st53" points="1483.1,513.2 1568.8,524.9 1484.6,535.9 1398.9,524.2    "/>
			<g>
				<polygon class="st54" points="1483.5,506.8 1569.1,518.4 1484.9,529.4 1399.3,517.7     "/>
				<line class="st55" x1="1440.7" y1="512.2" x2="1526.3" y2="523.9"/>
				<line class="st55" x1="1526.3" y1="512.2" x2="1442.1" y2="523.2"/>
				<ellipse class="st56" cx="1484.2" cy="518.1" rx="13.9" ry="3.1"/>
				<line class="st55" x1="1483.5" y1="506.8" x2="1484.9" y2="529.4"/>
				<line class="st55" x1="1399.3" y1="517.7" x2="1568.5" y2="518.5"/>
			</g>
		</g>
		<g>
			<polygon class="st53" points="1490.8,480.3 1576.4,492 1492.2,503 1406.6,491.3    "/>
			<g>
				<polygon class="st54" points="1491.1,473.9 1576.8,485.6 1492.6,496.6 1406.9,484.9     "/>
				<line class="st55" x1="1448.3" y1="479.4" x2="1534" y2="491.1"/>
				<line class="st55" x1="1534" y1="479.4" x2="1449.7" y2="490.4"/>
				<ellipse class="st56" cx="1491.8" cy="485.3" rx="13.9" ry="3.1"/>
				<line class="st55" x1="1491.1" y1="473.9" x2="1492.6" y2="496.6"/>
				<line class="st55" x1="1406.9" y1="484.9" x2="1576.2" y2="485.7"/>
			</g>
		</g>
		<g>
			<g>
				<ellipse class="st53" cx="1530.8" cy="537.4" rx="13.9" ry="3.1"/>
			</g>
		</g>
		<g>
			<g>
				<ellipse class="st53" cx="1586.5" cy="529.3" rx="13.9" ry="3.1"/>
			</g>
		</g>
		<g>
			<g>
				<ellipse class="st57" cx="1644.6" cy="521.2" rx="13.9" ry="3.1"/>
			</g>
		</g>
		<g>
			<g>
				<ellipse class="st57" cx="1702.1" cy="513.2" rx="13.9" ry="3.1"/>
			</g>
		</g>
		<g>
			<polygon class="st53" points="1590.7,494.9 1676.3,506.6 1592.1,517.6 1506.5,505.9    "/>
			<g>
				<polygon class="st54" points="1591,488.5 1676.7,500.2 1592.5,511.2 1506.8,499.5     "/>
				<line class="st55" x1="1548.2" y1="494" x2="1633.9" y2="505.7"/>
				<line class="st55" x1="1633.9" y1="494" x2="1549.6" y2="505"/>
				<ellipse class="st56" cx="1591.8" cy="499.8" rx="13.9" ry="3.1"/>
				<line class="st55" x1="1591" y1="488.5" x2="1592.5" y2="511.2"/>
				<line class="st55" x1="1506.8" y1="499.5" x2="1676.1" y2="500.3"/>
			</g>
		</g>
	</g>
	<polygon class="st58" points="959.3,755.4 959.3,788.5 1920,964 1920,930.7  "/>
	<polygon class="st19" points="959.3,755.4 959.3,755.4 0,911.5 0,925.7 959.3,763.5 1920,939 1920,930.7  "/>
	<g>
		<g>
			<g>
				<g>
					<line class="st59" x1="256.4" y1="484.6" x2="279.9" y2="468.2"/>
				</g>
				
					<ellipse transform="matrix(0.6413 -0.7673 0.7673 0.6413 -258.9779 383.0405)" class="st60" cx="280.2" cy="468.5" rx="7.2" ry="14.9"/>
			</g>
			<path class="st61" d="M253,503.7l1.1-68.8c0.2-15.2,13.5-24.8,28.6-23.1l32.9,6.3c0,0,8.5,3.6,7.6,21.2"/>
			
				<ellipse transform="matrix(0.9963 -8.590107e-02 8.590107e-02 0.9963 -42.1104 23.5922)" class="st60" cx="253.1" cy="501.1" rx="25.5" ry="7.2"/>
		</g>
		<g>
			<g>
				<g>
					<line class="st62" x1="246.3" y1="482.4" x2="217" y2="475.1"/>
				</g>
				
					<ellipse transform="matrix(0.6594 -0.7518 0.7518 0.6594 -282.9954 324.9946)" class="st60" cx="217.2" cy="474.8" rx="13.7" ry="7.8"/>
			</g>
		</g>
	</g>
	<g>
		<path class="st19" d="M734.5,0h-70.1l-11.8,383.2c-0.3,11.8,4.8,23.1,13.8,30.8l13.9,11.9l54.2-20.8V0z"/>
		<path class="st63" d="M722.3,0h-70.2v388.7l70.2-32.9v-13.9V0z"/>
		<path class="st64" d="M714.5,0h-0.8c0,0-0.5,13-0.8,31.2c-0.3,18.3-0.5,36.5-0.8,54.8c-0.3,18.3-0.5,36.5-0.8,54.8    c-0.3,18.3-0.5,36.5-0.8,54.8c-0.3,18.3-0.6,36.6-0.8,54.9c-0.3,18.2-0.5,36.4-0.8,54.6c-0.3,18.3-0.6,36.6-0.8,54.9    c-0.1,4.4-0.1,8.8-0.2,13.2C706.9,205.6,706,167.7,705.2,0h10.1H714.5z"/>
		<path class="st19" d="M696.9,0h2h0.4h-0.8h-0.8c0,0-0.5,31.3-0.8,48.6s-0.5,34.7-0.8,52s-0.5,34.7-0.8,52    c-0.3,17.3-0.5,34.7-0.8,52c-0.3,17.4-0.6,34.8-0.8,52.2c-0.3,17.3-0.5,34.5-0.8,51.8c-0.3,17.4-0.6,34.8-0.8,52.2    c-0.1,4.2-0.1,8.4-0.2,12.5C690.8,205.6,689.9,167.7,689,0h7.5H696.9z"/>
		<path class="st64" d="M671.6,0h2h0.4h-0.8h-0.8c0,0-0.5,31.3-0.8,48.6s-0.5,34.7-0.8,52s-0.5,34.7-0.8,52    c-0.3,17.3-0.5,34.7-0.8,52c-0.3,17.4-0.6,34.8-0.8,52.2c-0.3,17.3-0.5,34.5-0.8,51.8c-0.3,17.4-0.6,34.8-0.8,52.2    c-0.1,4.2-0.1,8.4-0.2,12.5c-0.9-167.7-1.8-205.6-2.7-373.3h7.5H671.6z"/>
	</g>
	<g>
		<g>
			<g>
				<g>
					<path class="st65" d="M820.1,381.6l42.7-6.9c2.1-0.3,3.6-2.2,3.6-4.3l-0.6-17.5c-0.1-2.3-2-4.2-4.4-4.1l-42.9,1.5       c-2.3,0.1-4.2,2-4.1,4.4l0.8,22.9C815.3,380.1,817.6,382,820.1,381.6z"/>
					<path class="st66" d="M822.4,380.4L862,374c2-0.3,3.4-2,3.3-4l-0.6-16.2c-0.1-2.2-1.9-3.9-4.1-3.8l-39.8,1.4       c-2.2,0.1-3.9,1.9-3.8,4.1l0.7,21.2C818,379,820.1,380.8,822.4,380.4z"/>
				</g>
				<circle class="st67" cx="820.5" cy="366" r="1.4"/>
				<circle class="st67" cx="862.7" cy="361.6" r="1.4"/>
			</g>
			<line class="st68" x1="841.4" y1="352.2" x2="842.2" y2="375.4"/>
			<line class="st69" x1="830.7" y1="358.1" x2="830.9" y2="364.1"/>
			<g>
				<line class="st69" x1="830.4" y1="370.4" x2="824.4" y2="371.5"/>
				<line class="st69" x1="837.8" y1="369" x2="831.8" y2="370.1"/>
			</g>
		</g>
		<path class="st70" d="M863.9,373.7l-13,2.1c-2.8,0.4-5.4-1.7-5.5-4.5l-0.5-15.2c-0.1-2.6,1.9-4.8,4.5-4.9l13.1-0.5    c2.6-0.1,4.8,1.9,4.9,4.5l0.5,13.5C868,371.2,866.3,373.3,863.9,373.7z"/>
		<path class="st70" d="M840.3,376.3l-13,2.1c-2.8,0.4-5.4-1.7-5.5-4.5l-0.5-15.2c-0.1-2.6,1.9-4.8,4.5-4.9l13.1-0.5    c2.6-0.1,4.8,1.9,4.9,4.5l0.5,13.5C844.3,373.9,842.6,376,840.3,376.3z"/>
	</g>
	<g>
		<g>
			<g>
				<path class="st65" d="M1886.9,507.5l-42.7-6.9c-2.1-0.3-3.6-2.2-3.6-4.3l0.6-17.5c0.1-2.3,2-4.2,4.4-4.1l42.9,1.5      c2.3,0.1,4.2,2,4.1,4.4l-0.8,22.9C1891.8,506,1889.5,507.9,1886.9,507.5z"/>
				<path class="st66" d="M1884.6,506.2l-39.6-6.4c-2-0.3-3.4-2-3.3-4l0.6-16.2c0.1-2.2,1.9-3.9,4.1-3.8l39.8,1.4      c2.2,0.1,3.9,1.9,3.8,4.1l-0.7,21.2C1889.1,504.9,1886.9,506.6,1884.6,506.2z"/>
			</g>
			<circle class="st67" cx="1886.5" cy="491.8" r="1.4"/>
			<circle class="st67" cx="1844.3" cy="487.5" r="1.4"/>
		</g>
		<line class="st68" x1="1865.6" y1="478.1" x2="1864.8" y2="501.2"/>
		<line class="st69" x1="1876.4" y1="483.9" x2="1876.2" y2="490"/>
		<g>
			<line class="st69" x1="1876.6" y1="496.2" x2="1882.6" y2="497.3"/>
			<line class="st69" x1="1869.3" y1="494.9" x2="1875.3" y2="496"/>
		</g>
	</g>
	<path class="st71" d="M836,374c-1.9,7.2,1.6,39,7.8,41.9c5.5,2.6,33.2-0.4,29.5,4.5c-3.3,4.4-9.5,5.2-15,5.6   c-14.8,1.2-29.6,2.4-44.4,3.7"/>
	<g>
		<path class="st30" d="M1441,348.7l-65.9-8.8c-4.9-0.7-8.5-5-8.6-10.5v0c-0.1-7.5,6.2-13.8,12.9-12.9l65.9,8.8    c4.9,0.7,8.5,5,8.6,10.5v0C1454,343.3,1447.7,349.6,1441,348.7z"/>
		<line class="st72" x1="1360.8" y1="335" x2="1377.9" y2="329"/>
		<path class="st1" d="M1372.8,322.6c-27.2-1.9-25.7,29-25.7,29l1.4,84.5l71,10.9l-1.5-88.7l0,0c0,0-1.9-28.7,11.9-28.8    L1372.8,322.6z"/>
		
			<ellipse transform="matrix(0.2292 -0.9734 0.9734 0.2292 765.3208 1653.8157)" class="st73" cx="1426.9" cy="343.7" rx="14.6" ry="8.3"/>
		
			<ellipse transform="matrix(0.2292 -0.9734 0.9734 0.2292 765.3208 1653.8157)" class="st74" cx="1426.9" cy="343.7" rx="7.3" ry="4.2"/>
		<line class="st72" x1="1426.9" y1="343.7" x2="1444" y2="337.7"/>
	</g>
	<g>
		<g>
			<path class="st1" d="M1381.2,494.1c0.4,3.5,6.5,6.2,13.7,6.1c7.2-0.1,12.7-3,12.2-6.4c-0.5-3.5-6.6-6.2-13.8-6.1     C1386.2,487.8,1380.8,490.7,1381.2,494.1z"/>
			<path class="st75" d="M1439.2,498.6c0,0,7.1,1.3,3.4,7c-3.7,5.7-31.1,14.8-60.5,11.3c-28.6-3.4-31.4-7-37.9-4.1     c-6.5,2.9-23.4,8.2-23.4,8.2l-11.4,3.7c0,0-6-3.4-4.7-4.5c1.3-1,38.3-12.4,38.2-14c-0.1-1.6-0.4-5.5-0.4-5.5L1439.2,498.6z"/>
			<path class="st63" d="M1346.6,451c0,0,34.8-15.8,81.4-1.4c0,0,11.1,5.5,7.1,12.3c-4.1,6.9,4.6,15.7,7.3,32.8     c2.8,17.6-49.9,24-88.3,16c0,0-9.2-3-11.8-9.9c-2.5-6.9,3.9-33,1.5-37.6C1341.6,458.5,1342.2,454.8,1346.6,451z"/>
			<path class="st76" d="M1347.9,469.9c0,0-41.9,14.2-43.2,20.5c-1.3,6.3-1.1,9.1,3,9.1c4.1,0,5.4-5.8,6.9-6.9     c1.6-1.2,33.3-17,33.3-17S1355.4,474.2,1347.9,469.9z"/>
			<path class="st77" d="M1430.3,454.1c0,0-12.7-9.4-43.7-8.9c-30.3,0.5-41.4,8.1-40.7,11.5c0.7,3.4,20,9.6,45.8,8.6     C1417.9,464.4,1434,457.6,1430.3,454.1z"/>
			<path class="st78" d="M1423.2,459.1c0,0-12.9-5.2-30.4-4.3c-17.2,0.8-37.6,4.9-33.6,7.9C1363.3,465.6,1415.1,468.8,1423.2,459.1z     "/>
			<path class="st79" d="M1431.4,451.7c0,0,6.2,5.5-1.6,8.9c-7.8,3.4-51.8,12.3-77.6,1.1c0,0,18.2,14.9,76.2,1.3     C1428.4,463.1,1442.2,459.6,1431.4,451.7z"/>
			<path class="st1" d="M1348.5,472l-37,18.7c0,0-1.9,8-2.8,6.8c-0.9-1.2,0-6.7,0-6.7L1348.5,472z"/>
			<path class="st80" d="M1430.6,466.2c0,0,10.8,26.4,9.5,31.9c-1.4,5.5-14.3,9.8-18,8.6c-3.8-1.2-8.1-34.9-6.2-36.9     C1417.7,467.7,1428.9,463.8,1430.6,466.2z"/>
			<path class="st81" d="M1355.4,469.4c0,0-2.9,30.8,2.2,35.6c5.2,4.9,17.7,4.8,17.6-0.1c-0.1-4.9-0.3-33.1-2.8-33.5     C1369.8,471.1,1355.4,469.4,1355.4,469.4z"/>
			<path class="st82" d="M1421.7,459.5c0,0-13.3-6.4-37.2-3.8c0,0-12,5-1.7,6C1393.1,462.7,1421.1,465.1,1421.7,459.5z"/>
			<path class="st1" d="M1377.9,456.6c0,0,23.9-4.3,43.8,2.9C1421.7,459.5,1406.4,450.2,1377.9,456.6z"/>
		</g>
		<path class="st83" d="M1355.3,450.7c4.5-2,9-4.1,13.5-6.1c1.6-0.7,3.4-1.6,4.4-3.8c1.6-3.6-0.1-8.7-2.6-10.8    c-2.5-2-5.5-1.9-8.3-2.2c-2.8-0.3-5.9-1.2-7.7-4.5c-2.4-4.4-1.5-11.3,1-15.6c2.5-4.3,6-6.5,9.5-8.6c6.3-3.8,12.5-7.6,18.8-11.4    c2.6-1.6,5.2-3.2,7.3-6.1c2.1-2.9,3.4-7.3,2.7-11.4c-1-5.9-5.3-8.5-8.9-11c-3.6-2.6-7.5-7.8-6.2-13.5c1.5-7.1,9.1-7.1,10.9-14    c1.1-4.2-0.5-8.9-2.5-12.2s-4.5-6.2-5.5-10.5c-1.2-4.6-0.4-9.8,1-14.2c1.4-4.4,3.4-8.3,4.9-12.7c3.6-10.8,3.7-24.2,0.2-35    c6.2,12.3,8.4,29.1,5.8,44c-1.3,7.5-3.8,15.4-2.1,22.7c1.4,6,5.1,9.9,8.3,14.1c3.2,4.2,6.1,10.3,5,16.4c-0.7,3.7-2.7,6.9-2.4,10.8    c0.5,6.1,6.1,7.3,8.5,12.2c2.3,4.5,1.1,11.3-1.3,15.6c-2.4,4.3-5.8,7-8.9,10.3c-3,3.3-5.9,7.8-6.3,13.4    c-0.5,7.6,3.7,14.1,8.2,17.3c4.5,3.2,9.6,4.4,14,7.9c6.9,5.6,11.5,17.3,11.5,29.2c0,0.5-8.7,2.1-9.5,2.2c-3.2,0.6-6.4,1.2-9.6,1.6    c-6.4,0.9-12.9,1.4-19.4,1.4c-6.5,0.1-12.9-0.3-19.3-1c-1.2-0.1-2.5-0.1-3.6-0.6c-1-0.4-1.7-0.5-2.7-0.5c-2.6,0.1-5.2-0.3-7.8-1.1    c-1.7-0.5-3.3-1.2-4.9-2.1c-0.5-0.3-1.5-0.5-1.8-1.3c-0.6-1.5,0.4-4.2,1-5.2c0.9-1.5,2.2-2.5,3.4-3.2    C1354.1,451.3,1354.7,451,1355.3,450.7z"/>
	</g>
	<g>
		<g>
			<g>
				<polygon class="st84" points="1061.2,152.7 1012.2,158.9 1029.3,161.1 1078.3,154.9     "/>
				<polygon class="st1" points="1015.6,158.9 1063,152.9 1076.8,154.7 1029.3,160.7     "/>
				<polygon class="st85" points="1029.3,253.1 1029.3,161.1 1078.3,154.9 1078.3,246.9     "/>
				<polygon class="st86" points="1012.2,250.9 1012.2,158.9 1029.3,161.1 1029.3,253.1     "/>
			</g>
		</g>
		<line class="st87" x1="1014.2" y1="169.6" x2="1025.6" y2="171.3"/>
		<line class="st87" x1="1014.2" y1="174.9" x2="1025.6" y2="176.6"/>
		<line class="st87" x1="1014.2" y1="241.4" x2="1025.6" y2="243.1"/>
	</g>
	<g>
		<g>
			<g>
				<polygon class="st88" points="1086,156.2 1037,162.4 1054.1,164.7 1103.1,158.5     "/>
				<polygon class="st1" points="1040.4,162.4 1087.8,156.5 1101.6,158.3 1054.1,164.2     "/>
				<polygon class="st89" points="1054.1,256.7 1054.1,164.7 1103.1,158.5 1103.1,250.5     "/>
				<polygon class="st90" points="1037,254.4 1037,162.4 1054.1,164.7 1054.1,256.7     "/>
			</g>
		</g>
		<line class="st87" x1="1039.1" y1="173.1" x2="1050.4" y2="174.9"/>
		<line class="st87" x1="1039.1" y1="178.4" x2="1050.4" y2="180.2"/>
		<line class="st87" x1="1039.1" y1="245" x2="1050.4" y2="246.7"/>
	</g>
	<g>
		<g>
			<g>
				<polygon class="st91" points="1110.8,159.8 1061.8,166 1079,168.2 1127.9,162.1     "/>
				<polygon class="st1" points="1065.2,166 1112.7,160.1 1126.4,161.9 1079,167.8     "/>
				<polygon class="st92" points="1079,260.2 1079,168.2 1127.9,162.1 1127.9,254.1     "/>
				<polygon class="st93" points="1061.8,258 1061.8,166 1079,168.2 1079,260.2     "/>
			</g>
		</g>
		<line class="st87" x1="1063.9" y1="176.7" x2="1075.2" y2="178.4"/>
		<line class="st87" x1="1063.9" y1="182" x2="1075.2" y2="183.7"/>
		<line class="st87" x1="1063.9" y1="248.5" x2="1075.2" y2="250.3"/>
	</g>
	<g>
		<g>
			<path class="st53" d="M734,450.2l-1.9-72.8l97.7-12.1c1.6-0.2,3,1,3,2.6v69.8L734,450.2z"/>
			<path class="st30" d="M699.4,445.7v-68.6c0-2.2,1.9-3.9,4.1-3.6l27.2,3.6c1.8,0.2,3.2,1.8,3.2,3.6v69.6L699.4,445.7z"/>
			<polygon class="st31" points="728.1,382.5 705.2,379.5 705.2,440.5 728.1,443.5    "/>
			<path class="st53" d="M731.1,377c0,0,2.8,0.6,2.8,4c5-4.3,5-4.3,5-4.3L731.1,377z"/>
			<polygon class="st94" points="798.2,360.4 702.9,373.3 732,377.4 829.7,365.3    "/>
			<path class="st53" d="M809.6,363.7l-83.8,10.9l8.2,1.1l85-10.7L809.6,363.7z M798.2,362.2l-85,10.7l8.1,1.1l83.8-10.9     L798.2,362.2z"/>
			<line class="st95" x1="714.4" y1="398.1" x2="714.4" y2="431.5"/>
			<g>
				<polygon class="st1" points="704.3,426 699.6,427.3 721.8,430.2 726.4,428.9     "/>
				<polygon class="st35" points="721.8,435.7 721.8,430.2 726.4,428.9 726.4,434.4     "/>
				<polygon class="st36" points="699.6,432.8 699.6,427.3 721.8,430.2 721.8,435.7     "/>
			</g>
			<line class="st96" x1="738.9" y1="442.6" x2="827" y2="431.5"/>
			
				<ellipse transform="matrix(0.9782 -0.2076 0.2076 0.9782 -72.2229 172.0716)" class="st40" cx="783.8" cy="430.2" rx="8.9" ry="3"/>
		</g>
		<path class="st97" d="M741,371.4l40.6-5.3C781.6,366.1,759.3,357.2,741,371.4z"/>
		<path class="st98" d="M750,373.7l40.6-5.3C790.6,368.4,768.4,359.5,750,373.7z"/>
		<polygon class="st19" points="699.4,445.7 693.3,447 734,455.1 845,438.7 827,434.1   "/>
	</g>
	<g>
		<g>
			<polygon class="st99" points="895.8,274.6 762.6,291.2 762.6,84.7 895.8,84.7    "/>
			<polygon class="st100" points="899.4,266.1 766.1,282.7 766.1,76.2 899.4,76.2    "/>
			<g>
				<g>
					<ellipse class="st101" cx="833.1" cy="132.7" rx="8.4" ry="34.2"/>
					<ellipse class="st101" cx="833.1" cy="217.7" rx="8.4" ry="34.2"/>
				</g>
				<g>
					
						<ellipse transform="matrix(0.9456 -0.3253 0.3253 0.9456 -0.4627 273.9516)" class="st1" cx="819" cy="138.4" rx="9" ry="31.9"/>
					
						<ellipse transform="matrix(0.9456 -0.3253 0.3253 0.9456 -22.8957 287.0856)" class="st1" cx="847.1" cy="212" rx="9" ry="31.9"/>
				</g>
				<g>
					
						<ellipse transform="matrix(0.7161 -0.698 0.698 0.7161 122.1806 608.228)" class="st101" cx="808.8" cy="153.9" rx="10.9" ry="26.4"/>
					
						<ellipse transform="matrix(0.7161 -0.698 0.698 0.7161 106.2977 654.2271)" class="st101" cx="857.4" cy="196.4" rx="10.9" ry="26.4"/>
				</g>
				<g>
					<ellipse class="st1" cx="805" cy="175.2" rx="22.6" ry="12.8"/>
					<ellipse class="st1" cx="861.1" cy="175.2" rx="22.6" ry="12.8"/>
				</g>
				<g>
					
						<ellipse transform="matrix(0.698 -0.7161 0.7161 0.698 103.5537 638.4507)" class="st101" cx="808.8" cy="196.4" rx="26.4" ry="10.9"/>
					
						<ellipse transform="matrix(0.698 -0.7161 0.7161 0.698 148.6807 660.4128)" class="st101" cx="857.4" cy="153.9" rx="26.4" ry="10.9"/>
				</g>
				<g>
					
						<ellipse transform="matrix(0.3253 -0.9456 0.9456 0.3253 352.1139 917.5215)" class="st1" cx="819" cy="212" rx="31.9" ry="9"/>
					
						<ellipse transform="matrix(0.3253 -0.9456 0.9456 0.3253 440.6935 894.3624)" class="st1" cx="847.1" cy="138.4" rx="31.9" ry="9"/>
				</g>
				<ellipse class="st102" cx="833.1" cy="175.2" rx="13.1" ry="19.8"/>
			</g>
		</g>
	</g>
	<path class="st103" d="M857.5,371.9c2.8,4.6,1.1,10.6-0.8,15.6c-1.9,5.1-3.9,10.9-1.3,15.7c1.7,3.2,5,5.1,8.3,6.3   c3.4,1.2,6.9,1.7,10.3,3c6.2,2.3,11.4,6.7,16.4,11c5.1,4.3,10.4,8.5,16.8,10.3c6.4,1.8,14.1,0.4,18-5"/>
	<path class="st71" d="M856.5,364.7c0.9,12.6,1.7,25.2,2.6,37.8c0.2,2.6,0.4,5.3,1.9,7.4c2.8,3.9,8.6,3.9,13.4,3.2s10.4-1.3,13.9,2   c2.6,2.4,3.2,6.3,4.9,9.4c3,5.3,9.4,8.1,15.5,8.3c6.1,0.3,12.2-1.5,18-3.3"/>
	
		<ellipse transform="matrix(0.9966 -8.297452e-02 8.297452e-02 0.9966 -31.5278 81.6757)" class="st19" cx="966.9" cy="420.2" rx="47.3" ry="14.1"/>
	<g>
		<path class="st53" d="M1000.2,410.8c0,0,7.7,0,7.3,6.8c-0.5,6.8-19.1,13.6-44.1,13.6c-25,0-40-1.8-40.9-8.2    c-0.9-6.4,11.4-10,11.4-10L1000.2,410.8z"/>
		<path class="st53" d="M948,327.4c0,0,10.9-13.8,24.7-13.1c13.8,0.7,42.1,7.3,39.2,9.4c-2.9,2.2-16.7,9.4-14.5,10.9    c2.2,1.5,3.6,81.9,3.6,81.9s-18.1,18.1-71.1,5.1C929.9,421.7,924.1,363,948,327.4z"/>
		<path class="st30" d="M946.6,341.9c0,0-13.1,37-9.4,70.3l5.8,0.7L946.6,341.9z"/>
		<polygon class="st104" points="974.9,344.8 969.1,345.6 966.9,407.9 972,407.9   "/>
		<path class="st30" d="M998.8,318c0,0-11.6,13.8-26.8,14.5c-15.2,0.7-24.7-2.2-24.7-2.2S953.1,305.7,998.8,318z"/>
		<path class="st63" d="M944.4,334.3c0,0,3.5,0,2.8,1.4c-0.7,1.4-5.1,11.5-5.1,11.5l-3.5-0.9L944.4,334.3z"/>
		<path class="st70" d="M933,428.5l-5.9-3.2c0,0-3.2,2.3-2.7,5C924.8,433,933,428.5,933,428.5z"/>
		<polygon class="st104" points="1008.1,321.5 983.9,329.9 998.8,318   "/>
		<polygon class="st105" points="973,377.6 968.4,378 966.9,407.9 972,407.9   "/>
		<path class="st30" d="M1001,416.6c0,0-24.1,17.3-71.1,5.1C929.9,421.7,976.2,439.3,1001,416.6z"/>
		<path class="st64" d="M963.5,326c0,0-4.1,2-5.7,7.8c-1.6,5.7-2.9,55.2-2.5,52.8s7.4-53.6,7.4-53.6S971.3,321.5,963.5,326z"/>
		<path class="st30" d="M940.6,352.2c0,0-5.7,10.2-7,59.3C933.7,411.5,928.8,377.6,940.6,352.2z"/>
	</g>
	<g>
		<ellipse class="st19" cx="1059.9" cy="430.6" rx="20.2" ry="6.2"/>
		<g>
			<g>
				<path class="st106" d="M1040.9,382c0,0,21.3-9.5,39.1,3.6l-4.1,45.4c0,0-20.4,9.5-33.2-0.9L1040.9,382z"/>
				<path class="st106" d="M1076.1,396.5c0,0,7.6-4.5,10.6,6.1c3,10.6,0.6,18.2-10.9,18.2l0.3-5.1c0,0,7.9,1.2,7.9-7.6      c0-8.8-7.9-7.9-7.9-7.9V396.5z"/>
				<path class="st107" d="M1043.4,382.9c0,0,21.2-7,33,3c0,0-6.1,3.3-17.6,3.3S1043.4,382.9,1043.4,382.9z"/>
			</g>
			<path class="st108" d="M1065.2,392c0,0,4.5-2,5.3-0.8c0.8,1.3-1,38.4-2.3,39.2c-1.3,0.8-2.5,2.3-2.8,0.8     C1065.2,429.6,1065.2,392,1065.2,392z"/>
			<path class="st108" d="M1078.6,397.8c0,0,11.1,4,5.3,15.9C1083.9,413.7,1092.8,404.1,1078.6,397.8z"/>
			<path class="st1" d="M1043.4,382.9c0,0,5.6,12.1,27.9,5.3C1071.3,388.2,1049.4,397.8,1043.4,382.9z"/>
		</g>
	</g>
	<g>
		<ellipse class="st19" cx="598.6" cy="383.9" rx="32.9" ry="6.5"/>
		<g>
			<path class="st106" d="M575.9,324.2c0,0-15.5,35.1-8.1,49.8c7.4,14.8,43.2,14.8,53.9,7.8c10.7-7,15.2-26.9,0.3-58.4     c0,0-29.5-8.5-45.3,0.4C576.3,323.9,576.1,324.1,575.9,324.2z"/>
			<path class="st109" d="M619.6,324.8c0,0-23.6-8.1-41.7,1c0,0,0.9,5.4,11.4,6.2C599.8,332.7,622.7,331.6,619.6,324.8z"/>
			<path class="st110" d="M598.5,327.4c0,0-0.7-12.9-3.3-19.3s-18-21-14.1-18.9c3.9,2.2,9.1,4.2,8.1,1.8c-1-2.4-13.1-6.4-17.3-7.3     c-4.2-0.9,1.7-4.7,1.7-4.7s-2.6-5.6-7.6-6c-5-0.4-13.8-5.1-13.5-6.4c0.3-1.3,4.7-3.7,9-2c4.3,1.7,11.6,8.6,12.6,6.5     c1.1-2.2-4.2-5.9-1.3-6.1c2.9-0.2,7.7,7.7,7.7,7.7s5,5.4,9.1,8.8c4,3.4,8.9,16.8,8.9,16.8s-3.9-21.4-6.1-28.7     c-2.3-7.3-17.9-14.8-14.9-18.4c3-3.6,7.3,2.7,7.3,2.7l-1.2-14.9c0,0,7-16,8.9-13.7c1.9,2.3-2.9,14.9-2.9,14.9s2.5-0.2,4.5,3.4     s-2.6,8.6-1.5,12.2s6,12.4,6.8,17c0.8,4.5,0.9,15.4,0.9,15.4s3.4-14.5,7.4-16.1s5.3-1.3,4,3c-1.3,4.3-7,16.4-7,16.4     s6-2.6,6.3,0.3c0.2,2.9-3.2,6.1-3.2,6.1s3.1,2.7,2.1,5.7c-1,3-5.8,5.5-6.7,9.3c-0.9,3.8-0.8,15.5-0.8,15.5     S598.7,330.3,598.5,327.4z"/>
			<path class="st64" d="M587.9,336.2c0,0,12.7-1.3,15.3,0.9s15.2,44.5,1.3,46.7c-13.8,2.1-28.4-2-27-13.9     C578.9,357.8,583.4,338.3,587.9,336.2z"/>
		</g>
	</g>
	<g>
		<ellipse class="st19" cx="1289.3" cy="274.5" rx="20.3" ry="4"/>
		<g>
			<path class="st111" d="M1275.3,237.6c0,0-9.6,21.7-5,30.8c4.6,9.1,26.7,9.2,33.3,4.8c6.6-4.3,9.4-16.6,0.2-36.1     c0,0-18.3-5.2-28,0.2C1275.5,237.4,1275.4,237.5,1275.3,237.6z"/>
			<path class="st112" d="M1302.3,237.9c0,0-14.6-5-25.8,0.6c0,0,0.5,3.3,7,3.8C1290,242.8,1304.2,242.2,1302.3,237.9z"/>
			<path class="st64" d="M1282.7,245c0,0,7.9-0.8,9.4,0.6c1.6,1.3,9.4,27.5,0.8,28.9s-17.6-1.2-16.7-8.6S1279.9,246.3,1282.7,245z"/>
		</g>
	</g>
	<g>
		<ellipse class="st19" cx="1091.5" cy="262.5" rx="20.3" ry="4"/>
		<g>
			<path class="st63" d="M1077.5,225.6c0,0-9.6,21.7-5,30.8c4.6,9.1,26.7,9.2,33.3,4.8c6.6-4.3,9.4-16.6,0.2-36.1     c0,0-18.3-5.2-28,0.2C1077.7,225.5,1077.6,225.5,1077.5,225.6z"/>
			<path class="st112" d="M1104.5,226c0,0-14.6-5-25.8,0.6c0,0,0.5,3.3,7,3.8C1092.2,230.9,1106.4,230.2,1104.5,226z"/>
			<path class="st64" d="M1084.9,233c0,0,7.9-0.8,9.4,0.6c1.6,1.3,9.4,27.5,0.8,28.9s-17.6-1.2-16.7-8.6S1082.1,234.4,1084.9,233z"/>
		</g>
	</g>
	<g>
		<ellipse class="st19" cx="1249.3" cy="269.7" rx="20.3" ry="4"/>
		<g>
			<path class="st113" d="M1235.2,232.8c0,0-9.6,21.7-5,30.8c4.6,9.1,26.7,9.2,33.3,4.8c6.6-4.3,9.4-16.6,0.2-36.1     c0,0-18.3-5.2-28,0.2C1235.5,232.7,1235.3,232.7,1235.2,232.8z"/>
			<path class="st112" d="M1262.2,233.2c0,0-14.6-5-25.8,0.6c0,0,0.5,3.3,7,3.8C1250,238.1,1264.1,237.4,1262.2,233.2z"/>
			<path class="st64" d="M1242.7,240.2c0,0,7.9-0.8,9.4,0.6c1.6,1.3,9.4,27.5,0.8,28.9s-17.6-1.2-16.7-8.6     S1239.8,241.6,1242.7,240.2z"/>
		</g>
	</g>
	<g>
		<ellipse class="st19" cx="1213.6" cy="232.8" rx="20.3" ry="4"/>
		<g>
			<path class="st111" d="M1199.5,195.8c0,0-9.6,21.7-5,30.8c4.6,9.1,26.7,9.2,33.3,4.8c6.6-4.3,9.4-16.6,0.2-36.1     c0,0-18.3-5.2-28,0.2C1199.8,195.7,1199.7,195.8,1199.5,195.8z"/>
			<path class="st112" d="M1226.5,196.2c0,0-14.6-5-25.8,0.6c0,0,0.5,3.3,7,3.8C1214.3,201.1,1228.4,200.4,1226.5,196.2z"/>
			<path class="st64" d="M1207,203.2c0,0,7.9-0.8,9.4,0.6c1.6,1.3,9.4,27.5,0.8,28.9s-17.6-1.2-16.7-8.6     C1201.4,216.7,1204.2,204.6,1207,203.2z"/>
		</g>
	</g>
	<g>
		<ellipse class="st19" cx="1148" cy="261.1" rx="46.5" ry="13"/>
		<g>
			<path class="st114" d="M1195,253.1c0,0-0.4,15.1-35.9,16.5c-35.5,1.4-53.2-4.4-57.6-18.4L1195,253.1z"/>
			<g>
				<g>
					<path class="st111" d="M1186.5,197.9c0,0-35.9-17-78.5,1.1c0,0-9.5,6.4-4.7,13.8c4.7,7.4-1.9,17-1.9,35.1s48.2,24.5,83.3,15.9       c0,0,8.5-3.2,10.4-10.6c1.9-7.4-6.6-36.1-4.7-41.5C1192.2,206.4,1191.3,202.1,1186.5,197.9z"/>
					<path class="st111" d="M1104.7,206.4c0,0,8.8,11,40.3,11c31.5,0,44.5-10,44.5-13c0-3-15.8-19-44.5-18       C1118.5,187.4,1102.8,203.9,1104.7,206.4z"/>
					<ellipse class="st76" cx="1146.6" cy="189.9" rx="9" ry="3"/>
					<path class="st76" d="M1153.1,182.4c0,3.3-3,7.4-6.8,7.4s-6.8-4.1-6.8-7.4c0-3.3,3-4.5,6.8-4.5S1153.1,179.2,1153.1,182.4z"/>
				</g>
				<path class="st76" d="M1176,220.3l10.4-0.5c0,0,16.9-3.5,14.4-8.4l-10.5,0.3c0,0,12-5.3,14-0.8c2,4.5-11.4,11.4-17.9,11.9      C1180,223.3,1168,223.8,1176,220.3z"/>
				<path class="st76" d="M1199.1,210.4l0.1,0.9l-9.3,1.7l0.9-1.8C1190.8,211.2,1198.7,209.2,1199.1,210.4z"/>
				<path class="st1" d="M1180.8,221.3c0,0,14.7-0.3,19.9-7.1C1200.7,214.2,1197.5,221.6,1180.8,221.3z"/>
				<path class="st114" d="M1105.2,204.1c0,0,2.4,7.6,19.9,10.8c17.5,3.2,49,2.9,63.9-10.7c0,0,0.7,0.4,0.1,1.3      s-15.5,14.6-52.1,11.9c0,0-23,0-33.1-11.5C1103.9,205.9,1104,204,1105.2,204.1z"/>
				<path class="st64" d="M1151.8,190.5c0,0,18.4,6.8,22.9,15.9c0,0-1.2,1.8-5.5,3.2c-4.3,1.3-10.4,3-11.3,2.1s-3.6-13.7-8.3-20      C1149.6,191.7,1149.7,189.9,1151.8,190.5z"/>
				<ellipse class="st64" cx="1149.3" cy="182.1" rx="1.4" ry="0.7"/>
				<path class="st64" d="M1172.9,225.2c0,0-9.2,0.3-9.5,2.8c-0.3,2.5-1.8,36.2,3.2,37.5c5,1.3,17.4-1.6,18-6.2      C1185.3,254.7,1181.2,221.9,1172.9,225.2z"/>
			</g>
		</g>
	</g>
	<g>
		<ellipse class="st19" cx="1589.4" cy="505.8" rx="49.2" ry="13.7"/>
		<g>
			<path class="st114" d="M1639.2,497.4c0,0-0.5,16-37.9,17.4c-37.5,1.4-56.2-4.7-60.9-19.5L1639.2,497.4z"/>
			<g>
				<g>
					<path class="st111" d="M1630.2,439c0,0-38-18-83,1.1c0,0-10,6.7-5,14.6s-2,18-2,37.1s51,25.8,88,16.9c0,0,9-3.4,11-11.2       s-7-38.2-5-43.8C1636.2,448,1635.2,443.5,1630.2,439z"/>
					<path class="st111" d="M1543.7,448c0,0,9.3,11.6,42.6,11.6c33.3,0,47-10.6,47-13.7c0-3.2-16.6-20.1-47-19       C1558.3,427.9,1541.7,445.4,1543.7,448z"/>
					<ellipse class="st76" cx="1588" cy="430.6" rx="9.5" ry="3.2"/>
					<path class="st76" d="M1594.9,422.7c0,3.5-3.2,7.8-7.2,7.8s-7.2-4.4-7.2-7.8s3.2-4.7,7.2-4.7S1594.9,419.2,1594.9,422.7z"/>
				</g>
				<path class="st76" d="M1619,462.7l11-0.5c0,0,17.8-3.7,15.2-8.9l-11.1,0.3c0,0,12.7-5.6,14.8-0.8c2.1,4.7-12.1,12.1-18.9,12.6      C1623.2,465.9,1610.6,466.4,1619,462.7z"/>
				<path class="st76" d="M1643.5,452.3l0.1,1l-9.9,1.8l1-1.9C1634.7,453.1,1643.1,451,1643.5,452.3z"/>
				<path class="st1" d="M1624.1,463.8c0,0,15.6-0.3,21-7.5C1645.1,456.3,1641.8,464.1,1624.1,463.8z"/>
				<path class="st114" d="M1544.3,445.6c0,0,2.5,8.1,21,11.4c18.5,3.3,51.8,3.1,67.5-11.3c0,0,0.7,0.4,0.1,1.4      c-0.6,1-16.4,15.4-55.1,12.5c0,0-24.4,0-34.9-12.1C1542.9,447.5,1543,445.4,1544.3,445.6z"/>
				<path class="st64" d="M1593.5,431.3c0,0,19.5,7.2,24.2,16.8c0,0-1.3,1.9-5.8,3.3c-4.6,1.4-11,3.2-12,2.2c-1-1-3.8-14.5-8.8-21.1      C1591.2,432.5,1591.3,430.6,1593.5,431.3z"/>
				<ellipse class="st64" cx="1590.9" cy="422.3" rx="1.5" ry="0.7"/>
				<path class="st64" d="M1615.8,467.8c0,0-9.7,0.3-10,2.9s-1.9,38.3,3.3,39.7s18.4-1.7,19.1-6.5      C1628.9,499,1624.5,464.4,1615.8,467.8z"/>
			</g>
		</g>
	</g>
	<g>
		<ellipse class="st1" cx="1217.8" cy="262.8" rx="10.3" ry="5.3"/>
		<path class="st75" d="M1182.9,267.1c0,0-5.3,1.1-1.8,5.7c3.5,4.6,25.6,11.9,48.3,9.1c22.7-2.9,24.7-6,30.2-3.5s19.9,6.8,19.9,6.8    l9.7,3.1c0,0,4.9-2.9,3.8-3.8c-1.1-0.9-32.7-10.4-32.7-11.7c0-1.3,0-4.7,0-4.7L1182.9,267.1z"/>
		<path class="st63" d="M1253.1,224.1c0,0-30.9-13.6-67.4,0.8c0,0-8.1,5.1-4.1,11c4.1,5.9-1.6,13.6-1.6,27.9s41.4,19.5,71.5,12.7    c0,0,7.3-2.5,8.9-8.5c1.6-5.9-5.7-28.8-4.1-33C1257.9,230.9,1257.1,227.5,1253.1,224.1z"/>
		<path class="st76" d="M1253.5,241.2c0,0,36.6,12,38,17.5c1.4,5.5,1.4,8-2.1,8c-3.5,0-4.9-5-6.3-6c-1.4-1-29.3-14.5-29.3-14.5    S1247.5,245.2,1253.5,241.2z"/>
		<path class="st77" d="M1184.4,229c0,0,9.1-8.7,34.5-9.1c25.5-0.3,35.6,6.3,35.2,9.4c-0.3,3.1-16,9.1-37.3,8.7    C1195.6,237.7,1182,232.2,1184.4,229z"/>
		<path class="st79" d="M1183.3,226.9c0,0-4.2,5,2.4,7.8c6.6,2.8,43.1,9.7,63.6-0.7c0,0-13.9,13.5-62.2,2.8    C1187.1,236.8,1175.7,234.1,1183.3,226.9z"/>
		<path class="st1" d="M1253.2,243.1l32.5,15.9c0,0,2.1,6.9,2.8,5.9c0.7-1-0.3-5.9-0.3-5.9L1253.2,243.1z"/>
		<path class="st80" d="M1185.7,239.6c0,0-5.2,22.6-3.5,27.1c1.7,4.5,12.2,8,14.9,6.9s2.4-29.5,0.7-31.3    C1196.1,240.6,1186.7,237.5,1185.7,239.6z"/>
		<path class="st81" d="M1247.2,241c0,0,4.9,26.7,1,30.9c-3.8,4.2-13.9,4.2-14.2,0c-0.3-4.2-2.8-28.5-0.7-28.8    S1247.2,241,1247.2,241z"/>
	</g>
	<g>
		<path class="st115" d="M857.8,383.4c0.5,6.8,1.3,13.7,1.6,20.6"/>
		<path class="st70" d="M855.1,385c-0.3,1.2-0.6,2.5-0.9,3.7c1.2-1.1,2.4-2.2,3.6-3.2c0.5,0.9,1,1.7,1.4,2.6    c0.1-0.7,0.2-1.4,0.3-2.1c1.1,0.5,2.1,0.9,3.2,1.4c-0.9-0.7-1.7-1.6-2.2-2.6c-0.3-0.5-0.4-1-0.6-1.6c-0.1-0.6-0.2-1.3-0.4-1.8    c-0.9-2.1-3.3,0.5-4.1,1.4c-0.4,0.5-0.7,1.1-1.1,1.6c-0.4,0.6-1,1.1-1.5,1.5c0.4-0.1,0.8-0.3,1.2-0.4    C854.1,385.3,855.1,385.1,855.1,385z"/>
		<path class="st70" d="M861.9,401.2c0-1.3-0.1-2.6-0.1-3.9c-0.9,1.3-1.8,2.7-2.6,4c-0.7-0.7-1.4-1.4-2-2.1c0.1,0.7,0.2,1.4,0.3,2.1    c-1.1-0.2-2.3-0.4-3.4-0.5c1.1,0.4,2,1.1,2.8,2c0.4,0.4,0.7,0.9,1,1.4c0.3,0.6,0.5,1.2,0.9,1.7c1.4,1.8,3.1-1.3,3.6-2.4    c0.3-0.6,0.4-1.2,0.7-1.9c0.3-0.7,0.7-1.3,1.1-1.9c-0.4,0.2-0.7,0.5-1.1,0.7C862.8,400.5,861.9,401,861.9,401.2z"/>
	</g>
	<g>
		<ellipse class="st19" cx="1204.2" cy="439.6" rx="13" ry="3.2"/>
		<ellipse class="st19" cx="1223.4" cy="453.7" rx="13" ry="3.2"/>
		<path class="st19" d="M1230.9,443.9c0,0,18.8,7.6,22.7,5.6c2.6-1.3,8.1-5,11.4-7.2c1.2-0.8,1-2.6-0.3-3.1l-3.6-1.4l-31.3,0.9    L1230.9,443.9z"/>
		<g>
			<g>
				<path class="st116" d="M1232.3,442.8c0,0,0.7-62,1.9-64.5c1.2-2.4,8-6.6,8-6.6l1.7-27.6h9.7l0.6,27.4c0,0,9.1,4.9,9.1,6.7      c0,1.8,0.6,62.8,0.6,62.8s-11,7.3-12.8,6.7C1249.4,447.1,1232.3,442.8,1232.3,442.8z"/>
				<rect x="1241.4" y="335" class="st53" width="14.6" height="11"/>
				<polygon class="st117" points="1262.4,389.7 1254.9,392.5 1254.5,422.6 1262.7,417.1     "/>
				<path class="st118" d="M1252.2,444.2v-62.6l-2.7-8.9c0,0,0.9-1.1,1.6-0.2c0.7,0.9,2.5,8.9,2.5,8.9l-0.2,61.7      C1253.3,443,1252,446.2,1252.2,444.2z"/>
				<path class="st119" d="M1232.6,441.6l18.2,4.1l3.3-0.5l9.9-5.1l0,0.9l-9.1,5.8c0,0-2,1.5-4.7,0.7c-2.7-0.8-17.9-4.6-17.9-4.6      L1232.6,441.6z"/>
				<polygon class="st120" points="1243.8,345.8 1253.7,345.9 1253.7,349.8 1243.5,349.7     "/>
			</g>
			<g>
				<path class="st121" d="M1207.8,403.5c0,0-11.3-0.2-12.6,2.4s2.4,4.3,2,5.6c-0.4,1.3-3.3,9.7-4.8,27.3c0,0,9.7,5.9,23.8,0.6      c0,0-2.4-18.9-5.8-27.8C1210.4,411.4,1218.4,404.9,1207.8,403.5z"/>
				<path class="st122" d="M1197.4,407.4c0,0,5.8,2.4,13.4,0C1210.8,407.4,1203.4,411.6,1197.4,407.4z"/>
				<path class="st1" d="M1203,413.1"/>
				<ellipse class="st123" cx="1200.1" cy="405.9" rx="1" ry="0.6"/>
				<ellipse class="st123" cx="1208.9" cy="406.2" rx="0.8" ry="0.4"/>
				<ellipse class="st123" cx="1204.3" cy="405.1" rx="0.7" ry="0.4"/>
				<ellipse class="st123" cx="1203.8" cy="407" rx="0.7" ry="0.4"/>
			</g>
			<g>
				<path class="st124" d="M1226.8,417.7c0,0-11.3-0.2-12.6,2.4s2.4,4.3,2,5.6c-0.4,1.3-3.3,9.7-4.8,27.3c0,0,9.7,5.9,23.8,0.6      c0,0-2.4-18.9-5.8-27.8C1229.4,425.7,1237.3,419.2,1226.8,417.7z"/>
				<path class="st122" d="M1216.4,421.6c0,0,5.8,2.4,13.4,0C1229.7,421.6,1222.7,426.3,1216.4,421.6z"/>
				<path class="st1" d="M1221.9,427.4"/>
				<ellipse class="st123" cx="1219.1" cy="420.2" rx="1" ry="0.6"/>
				<ellipse class="st123" cx="1227.8" cy="420.5" rx="0.8" ry="0.4"/>
				<ellipse class="st123" cx="1223.2" cy="419.4" rx="0.7" ry="0.4"/>
				<ellipse class="st123" cx="1222.7" cy="421.3" rx="0.7" ry="0.4"/>
			</g>
		</g>
	</g>
	<path class="st125" d="M783.8,376.4l40.6-5c1.4-0.2,2.6,0.9,2.6,2.3v41.2l-3.7-32.5c-0.4-3.3-3.2-5.9-6.6-5.9H783.8z"/>
	<g>
		<g>
			<polygon class="st8" points="978.3,115.5 1066.2,172.8 1326.1,209.7 1326.1,136.2 1069.4,95.6    "/>
			<g>
				<polygon class="st47" points="1068.4,83.9 1326.1,116.4 1236,128.2 978.3,95.6     "/>
				<polygon class="st1" points="1236,148 1236,128.2 978.3,95.6 978.3,115.5     "/>
				<polygon class="st37" points="1326.1,136.2 1326.1,116.4 1236,128.2 1236,148     "/>
			</g>
		</g>
		<g>
			<ellipse class="st1" cx="1035.5" cy="86.4" rx="6.8" ry="3.5"/>
			<path class="st75" d="M1012.5,89.2c0,0-3.5,0.7-1.2,3.8c2.3,3.1,17,7.9,32,6s16.4-3.9,20-2.3c3.7,1.6,13.2,4.5,13.2,4.5l6.4,2     c0,0,3.2-1.9,2.5-2.5c-0.7-0.6-21.6-6.9-21.6-7.7s0-3.1,0-3.1L1012.5,89.2z"/>
			<path class="st63" d="M1058.9,60.8c0,0-20.4-9-44.6,0.6c0,0-5.4,3.4-2.7,7.3c2.7,3.9-1.1,9-1.1,18.5s27.4,12.9,47.3,8.4     c0,0,4.8-1.7,5.9-5.6c1.1-3.9-3.8-19.1-2.7-21.9C1062.1,65.3,1061.6,63,1058.9,60.8z"/>
			<path class="st76" d="M1059.2,72.1c0,0,24.2,7.9,25.2,11.6c0.9,3.6,0.9,5.3-1.4,5.3c-2.3,0-3.2-3.3-4.2-4s-19.4-9.6-19.4-9.6     S1055.2,74.7,1059.2,72.1z"/>
			<path class="st77" d="M1013.4,64c0,0,6-5.8,22.9-6c16.9-0.2,23.6,4.2,23.3,6.2s-10.6,6-24.7,5.8     C1020.8,69.8,1011.8,66.1,1013.4,64z"/>
			<path class="st79" d="M1012.7,62.6c0,0-2.8,3.3,1.6,5.2c4.4,1.8,28.5,6.4,42.1-0.5c0,0-9.2,9-41.2,1.8     C1015.2,69.2,1007.7,67.4,1012.7,62.6z"/>
			<path class="st1" d="M1059,73.4l21.5,10.6c0,0,1.4,4.6,1.8,3.9s-0.2-3.9-0.2-3.9L1059,73.4z"/>
			<path class="st80" d="M1014.3,71c0,0-3.4,14.9-2.3,17.9c1.1,3,8,5.3,9.9,4.6c1.8-0.7,1.6-19.5,0.5-20.7     C1021.2,71.7,1015,69.6,1014.3,71z"/>
			<path class="st81" d="M1055,71.9c0,0,3.2,17.7,0.7,20.5c-2.5,2.8-9.2,2.8-9.4,0c-0.2-2.8-1.8-18.9-0.5-19.1     C1047.2,73.1,1055,71.9,1055,71.9z"/>
		</g>
		<g>
			<ellipse class="st1" cx="1078.5" cy="90.7" rx="7.9" ry="3.4"/>
			<path class="st75" d="M1052.6,94.6c0,0-20,8.1-16.9,11.6c3.1,3.5,6.1,2,6.5,0.2c0.4-1.8,11.8-6.7,11.8-6.7s55.1,15,59-7.6     C1115.4,78,1059.5,90.9,1052.6,94.6z"/>
			<path class="st111" d="M1105.4,59c0,0-24.1-10.6-52.6,0.7c0,0-6.3,4-3.2,8.6c3.2,4.6-1.3,10.6-1.3,21.8s32.3,15.2,55.8,9.9     c0,0,5.7-2,7-6.6c1.3-4.6-4.4-22.5-3.2-25.8C1109.2,64.3,1108.6,61.7,1105.4,59z"/>
			<path class="st80" d="M1063,72.2c0,0,2.9,24.5-1.7,24.5c-4.6,0-4.5-1-4.2-10c0.3-9,0.4-16.7,3.5-15.7     C1063.6,71.9,1063,70.3,1063,72.2z"/>
			<path class="st81" d="M1086.4,73.9c0,0,13.9-3.7,14.5-0.9c0.6,2.8,0.6,5.3-3.7,6.5c-4.3,1.2-9.3,3.1-9.9,1.2     S1084.6,74.2,1086.4,73.9z"/>
			<path class="st76" d="M1055.8,75.2c0,0-30.1,10.6-29.8,15.5s4.7,4.7,5.3,3.7c0.6-0.9,25.4-17.4,25.4-17.4L1055.8,75.2z"/>
			<path class="st111" d="M1050.6,64.4c0,0,5.9,6.8,27,6.8s29.8-6.2,29.8-8.1s-10.6-11.8-29.8-11.2     C1059.8,52.5,1049.3,62.8,1050.6,64.4z"/>
			<ellipse class="st76" cx="1078.6" cy="54.1" rx="6.1" ry="1.9"/>
			<path class="st76" d="M1083,49.4c0,2-2,4.6-4.5,4.6c-2.5,0-4.5-2.6-4.5-4.6c0-2,2-2.8,4.5-2.8C1081,46.7,1083,47.4,1083,49.4z"/>
			<path class="st126" d="M1052.1,62.1c0,0,12.1,12.7,45.1,6.5c0,0-31.9,8.5-46.7-4.3C1050.6,64.4,1050.6,62.4,1052.1,62.1z"/>
			<path class="st1" d="M1051.8,77.9c0,0-19.2,6.8-23.8,15.1l-0.9-2.2C1027.1,90.9,1034.5,84.4,1051.8,77.9z"/>
			<path class="st80" d="M1070.5,57.6c-0.1-0.1-0.3-0.2-0.4-0.3c-4.8,1.4-10.1,4-11.5,6.3c-1.9,3.1,8.4,5,9.2,3.1     c0.5-1.3,3.2-5.4,5-8.1C1072,58.3,1071.2,58,1070.5,57.6z"/>
			<path class="st79" d="M1074.6,48.4l2.2,1C1076.9,49.4,1076.7,46.7,1074.6,48.4z"/>
		</g>
		<g>
			<ellipse class="st1" cx="1142.6" cy="94.2" rx="10.3" ry="5.3"/>
			<path class="st75" d="M1107.8,98.5c0,0-5.3,1.1-1.8,5.7s25.6,11.9,48.3,9.1c22.7-2.9,24.7-6,30.2-3.5s19.9,6.8,19.9,6.8l9.7,3.1     c0,0,4.9-2.9,3.8-3.8c-1.1-0.9-32.7-10.4-32.7-11.7s0-4.7,0-4.7L1107.8,98.5z"/>
			<path class="st63" d="M1177.9,55.5c0,0-30.9-13.6-67.4,0.8c0,0-8.1,5.1-4.1,11c4.1,5.9-1.6,13.6-1.6,27.9s41.4,19.5,71.5,12.7     c0,0,7.3-2.5,8.9-8.5s-5.7-28.8-4.1-33C1182.8,62.3,1182,58.9,1177.9,55.5z"/>
			<path class="st76" d="M1178.3,72.6c0,0,36.6,12,38,17.5s1.4,8-2.1,8c-3.5,0-4.9-5-6.3-6c-1.4-1-29.3-14.5-29.3-14.5     S1172.4,76.6,1178.3,72.6z"/>
			<path class="st77" d="M1109.2,60.4c0,0,9.1-8.7,34.5-9.1c25.5-0.3,35.6,6.3,35.2,9.4c-0.3,3.1-16,9.1-37.3,8.7     S1106.8,63.5,1109.2,60.4z"/>
			<path class="st79" d="M1108.1,58.3c0,0-4.2,5,2.4,7.8s43.1,9.7,63.6-0.7c0,0-13.9,13.5-62.2,2.8     C1111.9,68.2,1100.5,65.5,1108.1,58.3z"/>
			<path class="st1" d="M1178,74.5l32.5,15.9c0,0,2.1,6.9,2.8,5.9s-0.3-5.9-0.3-5.9L1178,74.5z"/>
			<path class="st80" d="M1110.5,71c0,0-5.2,22.6-3.5,27.1c1.7,4.5,12.2,8,14.9,6.9c2.8-1,2.4-29.5,0.7-31.3S1111.6,68.9,1110.5,71z     "/>
			<path class="st81" d="M1172,72.4c0,0,4.9,26.7,1,30.9c-3.8,4.2-13.9,4.2-14.2,0c-0.3-4.2-2.8-28.5-0.7-28.8     C1160.2,74.1,1172,72.4,1172,72.4z"/>
		</g>
		<g>
			<ellipse class="st1" cx="1229.9" cy="105.6" rx="10.7" ry="4.6"/>
			<path class="st75" d="M1194.7,110.9c0,0-27.2,10.9-22.9,15.7c4.3,4.8,8.3,2.7,8.8,0.3c0.5-2.4,16-9.1,16-9.1s74.7,20.3,80-10.3     C1279.9,88.4,1204,105.8,1194.7,110.9z"/>
			<path class="st111" d="M1266.3,62.7c0,0-32.7-14.3-71.3,0.9c0,0-8.6,5.4-4.3,11.6c4.3,6.3-1.7,14.3-1.7,29.6s43.8,20.6,75.6,13.4     c0,0,7.7-2.7,9.5-9c1.7-6.3-6-30.5-4.3-34.9C1271.5,69.8,1270.6,66.2,1266.3,62.7z"/>
			<path class="st80" d="M1208.9,80.5c0,0,3.9,33.2-2.3,33.2s-6.1-1.4-5.7-13.5s0.5-22.6,4.7-21.3     C1209.7,80.1,1208.9,78,1208.9,80.5z"/>
			<path class="st81" d="M1240.6,82.8c0,0,18.9-5,19.7-1.3c0.8,3.8,0.8,7.1-5,8.8s-12.6,4.2-13.4,1.7S1238.1,83.2,1240.6,82.8z"/>
			<path class="st76" d="M1199.1,84.6c0,0-40.8,14.3-40.4,21c0.4,6.7,6.3,6.3,7.2,5.1s34.5-23.6,34.5-23.6L1199.1,84.6z"/>
			<path class="st111" d="M1191.9,69.9c0,0,8,9.3,36.6,9.3c28.6,0,40.4-8.4,40.4-10.9s-14.3-16-40.4-15.2     C1204.5,53.8,1190.3,67.8,1191.9,69.9z"/>
			<ellipse class="st76" cx="1230" cy="56" rx="8.2" ry="2.5"/>
			<path class="st76" d="M1236,49.7c0,2.8-2.8,6.2-6.2,6.2c-3.4,0-6.2-3.5-6.2-6.2s2.8-3.8,6.2-3.8C1233.2,45.9,1236,46.9,1236,49.7     z"/>
			<path class="st126" d="M1194.1,66.8c0,0,16.3,17.2,61.2,8.8c0,0-43.3,11.5-63.3-5.8C1191.9,69.9,1192,67.3,1194.1,66.8z"/>
			<path class="st1" d="M1193.7,88.2c0,0-26,9.2-32.3,20.5l-1.3-2.9C1160.2,105.8,1170.2,97,1193.7,88.2z"/>
			<path class="st80" d="M1219,60.7c-0.2-0.1-0.3-0.2-0.5-0.3c-6.5,1.9-13.6,5.4-15.6,8.6c-2.6,4.2,11.5,6.8,12.5,4.2     c0.7-1.8,4.3-7.3,6.7-10.9C1221,61.7,1220,61.2,1219,60.7z"/>
			<path class="st79" d="M1224.6,48.3l3,1.3C1227.6,49.6,1227.4,45.9,1224.6,48.3z"/>
		</g>
	</g>
	<path class="st127" d="M1080,668.3L1080,668.3c-2.7-0.5-4.7-2.8-4.7-5.6v-54.9c0-3.5,3.2-6.2,6.7-5.6l0,0c2.7,0.5,4.7,2.8,4.7,5.6   v54.9C1086.7,666.3,1083.5,668.9,1080,668.3z"/>
	<path class="st127" d="M451.9,735.2L451.9,735.2c2.7-0.5,4.7-2.8,4.7-5.6v-54.9c0-3.5-3.2-6.2-6.7-5.6h0c-2.7,0.5-4.7,2.8-4.7,5.6   v54.9C445.2,733.2,448.4,735.8,451.9,735.2z"/>
	<path class="st127" d="M1743,791L1743,791c-2.7-0.5-4.7-2.8-4.7-5.6v-54.9c0-3.5,3.2-6.2,6.7-5.6l0,0c2.7,0.5,4.7,2.8,4.7,5.6v54.9   C1749.7,788.9,1746.5,791.6,1743,791z"/>
	<path class="st127" d="M1799.7,665.7L1799.7,665.7c0-3.5,3.1-6.1,6.5-5.6l55.2,8.3c2.8,0.4,4.8,2.8,4.8,5.6l0,0   c0,3.5-3.1,6.1-6.5,5.6l-55.2-8.3C1801.8,670.9,1799.7,668.5,1799.7,665.7z"/>
	<path class="st6" d="M1583.3,631.1L1583.3,631.1c0-3.5,3.1-6.1,6.5-5.6l55.2,8.3c2.8,0.4,4.8,2.8,4.8,5.6l0,0   c0,3.5-3.1,6.1-6.5,5.6l-55.2-8.3C1585.4,636.2,1583.3,633.9,1583.3,631.1z"/>
	<path class="st127" d="M1140.6,561.5L1140.6,561.5c0-3.5,3.1-6.1,6.5-5.6l55.2,8.3c2.8,0.4,4.8,2.8,4.8,5.6l0,0   c0,3.5-3.1,6.1-6.5,5.6l-55.2-8.3C1142.6,566.6,1140.6,564.2,1140.6,561.5z"/>
	<path class="st127" d="M989.8,535.9L989.8,535.9c0-3.5,3.1-6.1,6.5-5.6l55.2,8.3c2.8,0.4,4.8,2.8,4.8,5.6l0,0   c0,3.5-3.1,6.1-6.5,5.6l-55.2-8.3C991.9,541,989.8,538.7,989.8,535.9z"/>
	<line class="st39" x1="0" y1="925.5" x2="0" y2="911.5"/>
	<g>
		<ellipse class="st19" cx="169.7" cy="978.3" rx="51.6" ry="8.9"/>
		<g>
			<circle class="st1" cx="168.8" cy="923.2" r="59.3"/>
		</g>
		<path class="st128" d="M217,906.4l-21.6-0.7l-16.8-23.9l4.8-10.7l16.6,1.7c-7.7-4.7-16.6-7.8-26.1-8.6l8.5,6.5l-4.8,10.7    l-28.6,8.8l-9.7-7.2l8-15c-11.2,4.4-20.7,12.1-27.4,21.9l1,1.5c-4.7,8.2-7.1,17.5-7.1,27.1c0,2.7,0.2,5.4,0.6,8l-3.7,7.1    c2.3,12.8,8.7,24.1,17.7,32.7l9.2-2.5c8.5,6,18.8,9.5,29.9,9.8l8.2,8.4c14.6-1.7,27.6-8.6,37-18.9l-0.8-10    c5.6-7,9.6-15.3,11.3-24.5l4.8-0.8c0.1-1.6,0.2-3.1,0.2-4.7c0-11.2-3.1-21.7-8.5-30.6L217,906.4z M115.3,926.3    c-0.4-2.5-0.6-5.1-0.6-7.7c0-9.4,2.4-18.5,7-26.6l16.8-8.1l10.2,7.5l-0.4,29.4l-19.5,17.1L115.3,926.3z M167.4,972.7    c-10.8-0.3-20.9-3.7-29.2-9.5l-8.8-24.6l19.8-17.3l27.7,9.4l8.5,23.6L167.4,972.7z M211,952.5l-24.8,1.1l-8.4-23.2l17.7-23.7    l21.4,0.7l5.1,21.1C220.4,937.5,216.5,945.7,211,952.5z"/>
		<path class="st129" d="M183.3,871.1l16.6,1.7c-7.7-4.7-16.6-7.8-26.1-8.6l8.5,6.5L183.3,871.1z M121.7,892l16.8-8.1l0.7-0.8l8-15    c-11.2,4.4-20.7,12.1-27.4,21.9l1,1.5L121.7,892z M148.7,891.4l-0.4,29.4l0.9,0.6l27.7,9.4l1-0.4l17.7-23.7l-0.2-1l-16.8-23.9    l-1-0.4l-28.6,8.8L148.7,891.4z M129.4,938.6l-0.7-0.8l-13.5-11.5l-1,0.2l-3.7,7.1c2.3,12.8,8.7,24.1,17.7,32.7l9.2-2.5l0.8-0.7    L129.4,938.6z M219.6,892.6l-2.7,13.8l0,1l5.1,21.1l1,0.2l4.8-0.8c0.1-1.6,0.2-3.1,0.2-4.7C228.1,912,225,901.5,219.6,892.6z     M211,952.5l-24.8,1.1l-0.8,0.7l-17.9,18.3l-0.1,1l8.2,8.4c14.6-1.7,27.6-8.6,37-18.9l-0.8-10L211,952.5z"/>
	</g>
	<polygon class="st25" points="845,740.4 631.5,776.1 631.5,772.6 845,736.9  "/>
	<path class="st130" d="M720.1,739.8c1.5,0.2,3.1,0.7,3.8,1.9c0.8,1.5,0.4,3.8,2,4.4c1.3,0.6,2.7-0.8,4.2-0.9c1.2,0,2.3,1,2.8,2.1   s0.4,2.4,0.4,3.6c-0.1,3.9-0.2,7.8-0.2,11.7c0,1.4,0.4,3.2,1.7,3.2c1.4,0,1.7-1.9,1.6-3.3c-0.2-3.2-0.4-6.5-0.6-9.7   c-0.2-2.5,0-5.5,2.2-6.7c1.2-0.6,2.7-0.4,4.1-0.6c2.4-0.3,4.5-1.8,6.5-3.3c4.3-3.2,8.9-6.8,10.3-12c0,0.1-1.1,0.4-1.3,0.4   c-0.4,0.1-0.9,0.3-1.3,0.4c-0.9,0.3-1.8,0.5-2.7,0.8c-1.8,0.5-3.6,0.9-5.4,1.3c-3.6,0.8-7.3,1.3-11,1.6s-7.4,0.4-11.2,0.2   c-1.9-0.1-3.7-0.2-5.5-0.4c-1.5-0.2-2.9-0.5-4.2,0.4c-0.8,0.6-1.6,1.7-1.2,2.8c0.6,1.4,2.6,1.6,4,1.8   C719.3,739.8,719.7,739.8,720.1,739.8z"/>
	<g>
		<g>
			<path class="st30" d="M729.2,735.6c-34.9,0-60.2-25.8-60.2-61.4c0-40.8,33.1-80.4,73.9-88.5c4.9-1,9.7-1.4,14.4-1.4     c34.9,0,60.2,25.8,60.2,61.4c0,40.8-33.1,80.4-73.9,88.5C738.8,735.1,733.9,735.6,729.2,735.6     C729.2,735.6,729.2,735.6,729.2,735.6z"/>
			<path class="st25" d="M757.3,586.3c33.2,0,58.2,24.3,58.2,59.4c0,39.9-32.4,78.6-72.3,86.5c-4.8,0.9-9.5,1.4-14,1.4     c-33.2,0-58.2-24.3-58.2-59.4c0-39.9,32.4-78.6,72.3-86.5C748,586.7,752.7,586.3,757.3,586.3 M757.3,582.3     c-4.9,0-9.8,0.5-14.8,1.5c-20.2,4-39.2,15.6-53.4,32.6c-14.2,17.1-22.1,37.6-22.1,57.8c0,36.8,26.2,63.4,62.2,63.4     c4.9,0,9.8-0.5,14.8-1.5c20.2-4,39.2-15.6,53.4-32.6c14.2-17.1,22.1-37.6,22.1-57.8C819.5,609,793.3,582.3,757.3,582.3     L757.3,582.3z"/>
		</g>
		<g>
			<path class="st25" d="M758.8,578c36.9,0,64.7,27.1,64.7,66.1c0,44.4-36,87.4-80.3,96.2c-5.3,1.1-10.6,1.6-15.6,1.6     c-36.9,0-64.7-27.1-64.7-66.1c0-44.4,36-87.4,80.3-96.2C748.6,578.6,753.8,578,758.8,578 M758.8,577.1c-5.2,0-10.5,0.5-15.8,1.6     c-44.7,8.8-81.1,52.4-81.1,97.1c0,38.8,27.6,67,65.7,67c5.2,0,10.5-0.5,15.8-1.6c44.7-8.8,81.1-52.4,81.1-97.1     C824.5,605.3,796.9,577.1,758.8,577.1L758.8,577.1z"/>
		</g>
		
			<ellipse transform="matrix(0.6716 -0.7409 0.7409 0.6716 -244.8857 767.4396)" class="st131" cx="743.2" cy="660" rx="65" ry="53.4"/>
		
			<ellipse transform="matrix(0.6716 -0.7409 0.7409 0.6716 -244.8857 767.4396)" class="st132" cx="743.2" cy="660" rx="57" ry="46.8"/>
		<path class="st133" d="M746.3,617.7c16.7,2.2,28.7,15.5,28.7,34c0,23.1-18.7,45.4-41.8,50c-1,0.2-2,0.4-3.1,0.5    c4.1,0.5,8.5,0.4,13.1-0.5c23.1-4.5,41.8-26.9,41.8-50C785,629.7,767.9,615,746.3,617.7z"/>
		<g>
			<g class="st19">
				<path d="M819.8,677.5l-13,1.9v-59l9.4-1.3c4.8-0.7,9.5,1.5,9.5,4.5V673C825.7,675.1,823.3,677,819.8,677.5z"/>
			</g>
			<path class="st134" d="M821.1,672.4l-10.3,1.7v-54.9l7.5-1.3c3.8-0.6,7.5,1.4,7.5,4.1v46.1C825.7,670.3,823.8,672,821.1,672.4z"/>
		</g>
		<g class="st19">
			<path d="M691,674.2c0-39.9,32.4-78.6,72.3-86.5c1.3-0.3,2.6-0.5,3.8-0.7c-7.5-1.1-15.5-1-23.8,0.7c-39.9,7.9-72.3,46.6-72.3,86.5     c0,38.6,30.3,64.2,68.4,58.7C711.2,728.6,691,705.7,691,674.2z"/>
		</g>
		<path class="st1" d="M813.6,620.7c0,0,9.6-2.5,9.6,3.4s0,42.8,0,42.8l-2.5-42.8C820.7,624.1,821,620.4,813.6,620.7z"/>
	</g>
	<path class="st19" d="M1848.9,946.8c-12.7-18.9-92.4-74.1-116.8-71c0,0-464.1,57-536.5,85.9c0,0,18.8-6.5,0,0   c-6.3,2.2-11.1,6.4-14.6,11.1c-9.1,11.9-10.9,28.1-4.6,41.7c6.6,14.3,21.3,22.1,55.1,26.6c60.4,8.1,137,3.5,181.1-2.3   c44.1-5.8,372.6-60.4,387.7-63.8c15.1-3.5,51.1-15.1,53.4-19.7C1854.8,952.8,1851.9,949.4,1848.9,946.8z"/>
	<polygon class="st135" points="1248.5,646 1248.5,821.1 1290.7,808.2 1301.8,646  "/>
	<g>
		<g>
			<g>
				<path class="st136" d="M1318.1,983.1c-1.1,0-2.2-0.4-3-1.2c-1.8-1.7-1.8-4.5-0.1-6.2L1672.5,602c1.7-1.8,4.5-1.8,6.2-0.1      c1.8,1.7,1.8,4.5,0.1,6.2l-357.6,373.6C1320.4,982.6,1319.2,983.1,1318.1,983.1z"/>
			</g>
			<g>
				<path class="st7" d="M1362.1,1029.8c-1.1,0-2.1-0.4-3-1.2l-86.2-79.8c-1.8-1.7-1.9-4.4-0.2-6.2c1.7-1.8,4.4-1.9,6.2-0.2      l86.2,79.8c1.8,1.7,1.9,4.4,0.2,6.2C1364.5,1029.3,1363.3,1029.8,1362.1,1029.8z"/>
			</g>
			<g>
				<path class="st136" d="M1737.1,962.1c-1.1,0-2.1-0.4-3-1.2l-86.2-79.8c-1.8-1.7-1.9-4.4-0.2-6.2c1.7-1.8,4.4-1.9,6.2-0.2      l86.2,79.8c1.8,1.7,1.9,4.4,0.2,6.2C1739.4,961.6,1738.2,962.1,1737.1,962.1z"/>
			</g>
			<g>
				<path class="st7" d="M1701.3,928.8c-0.9,0-1.8-0.3-2.6-0.8L1341,669.3c-2-1.4-2.4-4.2-1-6.2c1.4-2,4.2-2.4,6.2-1l357.6,258.7      c2,1.4,2.4,4.2,1,6.2C1704,928.1,1702.6,928.8,1701.3,928.8z"/>
			</g>
		</g>
		<path class="st63" d="M1717.2,547.6c0,0-494.7,60.7-542.4,88.6c-2.4,1.4-3.7,2.7-3.7,4c0,25.5-44.7,60.7,70.3,73.4    s600.3-76.6,593.9-92.6S1742.8,544.4,1717.2,547.6z"/>
		<path class="st137" d="M1172.6,637.8c0,0-18.8,24,9.1,43.7c27.9,19.7,118.4,25.5,193.9,12.8c75.5-12.8,397-55.7,419.1-65    c22.1-9.3,33.7-15.1,33.7-15.1s12.8,8.1,10.4,12.8s-38.3,16.3-53.4,19.7c-15.1,3.5-343.6,58-387.7,63.8s-120.7,10.4-181.1,2.3    C1156.1,704.8,1148.4,669.5,1172.6,637.8z"/>
	</g>
	<path class="st138" d="M1556.4,654c0,0-85.6-73.6-87.8-73.2c-2.2,0.3-239,27.3-260.8,44.6c-20.4,35.9,22.7,54.7,22.7,54.7   l96.8,19.8c0,0,26.9-2.3,54.5-6.6l-18.2-21.7L1556.4,654z"/>
	<path class="st139" d="M1327.3,886.3l42.3-12.9l12.2-180.1c-27.6,4.3-54.5,6.6-54.5,6.6V886.3z"/>
	<path class="st63" d="M1175.8,635.7c0,0-17.1,6.9-7.4,30.7c8,20.5,30.7,4.7,30.7,4.7L1175.8,635.7z"/>
	<path class="st140" d="M1713.8,552l-72.3,9.8c-2.9,0.4-3.8,4.2-1.3,5.8l92.6,61.1c4.3,2.8,9.4,4.2,14.6,3.9   c13.2-0.8,40.2-4.1,67.7-18.2c2.1-1.1,2.3-4,0.4-5.4c-37.9-27.8-60.7-45.4-90.7-55.9C1721.2,551.9,1717.5,551.5,1713.8,552z"/>
	<g>
		<path class="st141" d="M1643.3,987.9c0,0-65.4,22.9-61.3,34.8c3.9,11.1-9.9,14.7,230.3,23.6c17.8-0.8,30.1-11.8,19.8-23.6    s-29.5-29.6-29.5-29.6L1643.3,987.9z"/>
		<g>
			<g>
				<path class="st106" d="M1626.6,882.3c0,0-36.5,34.9-32.7,40s6.5,6.3,8,24.1c1.5,17.8,4.8,71.4,12.4,72.6      c7.7,1.2,190.3,11.5,190.3,11.5s12.8-0.2,12.7-5.3c-0.1-5.1,8-71.6,14.3-75.5c6.3-3.9,7.5-9,7.5-9s-33.9-51.9-40.3-53.1      C1792.6,886.5,1634.2,877.1,1626.6,882.3z"/>
				<path class="st107" d="M1621.5,922.3l-17.5-1.1c0,0-3.1-0.8-0.9-3c2.2-2.2,25.4-31.8,29.3-32.3c3.9-0.5,160.1,3.1,163.6,5.7      c3.5,2.6,33.8,42.4,31.2,44.6C1824.7,938.4,1621.5,922.3,1621.5,922.3z"/>
				<path class="st63" d="M1786.5,900.8c0,0,10-3.9,13.8-0.2c3.8,3.7,19.9,27.4,14.9,31.3c-5,3.8-37.1,0.5-37.1,0.5L1786.5,900.8z"/>
				<path class="st142" d="M1745.4,896.6c0,0,32.7-7.9,42.8-1.9c10.1,6,10.1,37.9,4.9,40.2c-5.2,2.3-22.7,4.2-23.9,10.8      s-1.1,49-0.2,52.5c0,0-22.3-0.1-25-2.3c-2.7-2.2-0.3-54.2,0.5-59.5c0.8-5.3-44.3-13-44.3-13L1745.4,896.6z"/>
				<path class="st143" d="M1744.2,934.7c0,0,1.5-10.5,11.5-12.7c0,0,5.4-0.5,0.8-2.9c-4.6-2.4-12.8-19.9-12.8-19.9l-34,25.5      C1709.8,924.7,1733.3,929.8,1744.2,934.7z"/>
				<path class="st117" d="M1615.6,920.9c0,0,16.3-27.2,43-32.6c26.7-5.5,62.3-14.9,73.9-8.6s12.8,42.8,10.3,47.9      C1740.4,932.8,1619.9,924.6,1615.6,920.9z"/>
				<path class="st144" d="M1794.4,933.2c0,0,6.9-16.4-3-35.1c0,0,13.5,6.5,9.3,35.4C1800.7,933.5,1793.6,936.1,1794.4,933.2z"/>
			</g>
			<path class="st145" d="M1604.2,926.6l126.2,8c0,0,6,2.9,1.6,4.5c-4.5,1.6-126.9-7.3-126.9-7.3S1595.2,925.3,1604.2,926.6z"/>
			<path class="st145" d="M1796.1,939c0,0,37.3-2,35.8,1s-2.9,5.3-5.9,5.3c-3,0-31.4-2.6-31.4-2.6S1790.2,941.3,1796.1,939z"/>
			<path class="st107" d="M1793.1,934.9c0,0-18.7,3.7-22.3,8.2c-3.7,4.5-1.8,55.1-1.8,55.1l-25-2.3c0,0,6.6,6.4,13.3,7.9     c6.7,1.4,17.2,4.2,18.7-0.2c1.4-4.5-0.7-50,2.3-54.5C1781.3,944.5,1793.1,934.9,1793.1,934.9z"/>
			<path class="st146" d="M1605,987.8c0,0,4.8,24.6,15.3,27.4s179.2,13.3,185.9,11c6.7-2.3,14.5-31.5,14.5-31.5l-3.3,30.6     c0,0-7.5,5.8-12.7,5.3s-181.4-10.9-181.4-10.9s-11.9,2.4-12.8-8C1609.7,1001.2,1605,987.8,1605,987.8z"/>
		</g>
	</g>
	<path class="st147" d="M1531.6,529.2c0-6.1,6.2-10.8,12.3-10.8c8,0.1,12.5,5.9,17.8,10.9c1,1,2.2,1.8,3.1,3   c2.8,3.6,4.2,8.7,6.1,12.8c4.2,9.2,8.7,18.3,14.1,26.9c5,8.1,10.8,15.8,17.5,22.6c25,25,63.9,35,97.9,25.3c5.7-1.6,11.4-3.9,15.7-8   c4.3-4.1,6.9-10.4,5.2-16.1c-2-6.8-9.2-10.7-16.1-12.5c-6.9-1.9-14.2-2.6-20.2-6.6c-5.9-3.9-9.6-12.6-5.2-18.2   c3.5-4.5,10.2-4.8,15.9-4.6c36.1,1,72.2,1.9,108.4,2.9c12,0.3,25,0.3,34.6-6.9c7.8-5.9,11.8-15.7,12.9-25.4   c0.7-6.4,0.2-12.9-0.7-19.3c-0.4-2.7-1.4-5.8-1-8.5c0.2-0.8,0.6-1.6,0.9-2.4c1-2.7,1.4-5.6,1.7-8.4"/>
	<g>
		<path class="st99" d="M1424.7,621.9l-4.6,4.5c0,0,31.7,34.5,125.1-10.3c-66.2-18.2-66.2-18.2-66.2-18.2L1424.7,621.9z"/>
		<g>
			<path class="st148" d="M1547.1,550.1c-13.2-16.1-12.8-18.8-27.8-17.6c-15,1.2-111.6,23.7-95.8,93c0,0,35.1,16.4,64.4,7.7     s64.2-19.2,64.2-19.2S1560.3,566.2,1547.1,550.1z M1448.4,592.6c0,0,9.9-23.9,29.1-31.7s41.1-11.4,44,8.2     S1454.6,607.2,1448.4,592.6z"/>
			<path class="st149" d="M1521.4,569.1c-1.8-12.4-11.3-15.6-22.8-14.2c6.8-0.1,10.7,2.4,10.1,6.9c-1.1,8.1-55.3,22.6-55.3,22.6     s1-2.7,3.6-6.5c-5.7,7.6-8.6,14.6-8.6,14.6C1454.6,607.2,1524.2,588.7,1521.4,569.1z"/>
			<path class="st149" d="M1423.5,625.5l-2-9.6c0,0,42.3,26.3,111.9,4C1533.4,619.9,1468,654.1,1423.5,625.5z"/>
			<path class="st111" d="M1426.7,588.8c0,0,5.4,5.4,11.3-0.2c5.9-5.6,0.4-16.4,0.4-16.4S1428.7,582.1,1426.7,588.8z"/>
			<polygon class="st63" points="1448.9,562.1 1453,567.3 1472.7,554.6 1470.2,548.8    "/>
			<path class="st13" d="M1520.9,534c0,0,5.1,9.7,8.3,8.6c3.2-1.1,3.2-4.7,3.2-4.7l4.1-11l-5.9-7.4     C1530.6,519.5,1524.3,528.1,1520.9,534z"/>
			<path class="st150" d="M1432.6,605.4c0,0-0.8-2.5,0-8.2c0.8-5.8,18.2-40.2,58.2-51.6c0,0-40.1,24-48.2,47.1     C1442.5,592.7,1437.2,615.9,1432.6,605.4z"/>
			<path class="st150" d="M1442.8,613.3c0,0,60.6,8.3,100.9-18.2c0,0,4.4-8.1-1.9-10.3S1515.5,602.9,1442.8,613.3z"/>
		</g>
	</g>
	<path class="st1" d="M1843.1,499.5l13,2.1c2.8,0.4,5.4-1.7,5.5-4.5l0.5-15.2c0.1-2.6-1.9-4.8-4.5-4.9l-13.1-0.5   c-2.6-0.1-4.8,1.9-4.9,4.5l-0.5,13.5C1839.1,497.1,1840.7,499.1,1843.1,499.5z"/>
	<path class="st99" d="M104.5,568l-6,1.3c-1.3,0.3-1.4,2.1-0.1,2.5l63.6,19.9v28.1l1.6-0.4l0.2-27.9L104.5,568z"/>
	<path class="st151" d="M168.6,708.7c36.6-0.3,74.2-4.1,99.7-29.6c1.3-1.3,2.1-3.1,2.1-5v-99.5l-106.6,16.9l-0.7,111.7   C163.1,706.3,165.6,708.8,168.6,708.7z"/>
	<path class="st152" d="M168.6,688.7c-2.8,0-5.1-2-5.4-4.7l-0.1,9.2c0,3,2.4,5.5,5.5,5.5c36.6-0.3,74.2-4.1,99.7-29.6   c1.3-1.3,2.1-3.1,2.1-5v-10c0,1.9-0.8,3.7-2.1,5C242.8,684.6,205.2,688.4,168.6,688.7z"/>
	<path class="st152" d="M168.6,668.7c-2.8,0-5.1-2-5.4-4.7l-0.1,9.2c0,3,2.4,5.5,5.5,5.5c36.6-0.3,74.2-4.1,99.7-29.6   c1.3-1.3,2.1-3.1,2.1-5v-10c0,1.9-0.8,3.7-2.1,5C242.8,664.6,205.2,668.4,168.6,668.7z"/>
	<path class="st153" d="M101.6,571.9l62.2,19.7l106.6-16.9L202.5,554c-4.3-1.3-8.8-1.6-13.2-1L102,566.2   C98.9,566.6,98.6,570.9,101.6,571.9z"/>
	<g>
		<g>
			<ellipse class="st19" cx="126.7" cy="579.7" rx="20.2" ry="6.2"/>
			<g>
				<g>
					<path class="st106" d="M107.8,530.5c0,0,21.3-9.5,39.1,3.6l-4.1,45.4c0,0-20.4,9.5-33.2-0.9L107.8,530.5z"/>
					<path class="st106" d="M143.1,545c0,0,7.6-4.5,10.6,6.1s0.6,18.2-10.9,18.2l0.3-5.1c0,0,7.9,1.2,7.9-7.6s-7.9-7.9-7.9-7.9V545z       "/>
					<path class="st107" d="M110.4,531.4c0,0,21.2-7,33,3c0,0-6.1,3.3-17.6,3.3S110.4,531.4,110.4,531.4z"/>
				</g>
				<path class="st108" d="M132.2,540.5c0,0,4.5-2,5.3-0.8c0.8,1.3-1,38.4-2.3,39.2c-1.3,0.8-2.5,2.3-2.8,0.8      C132.2,578.1,132.2,540.5,132.2,540.5z"/>
				<path class="st108" d="M145.6,546.3c0,0,11.1,4,5.3,15.9C150.9,562.2,159.7,552.6,145.6,546.3z"/>
				<path class="st1" d="M110.4,531.4c0,0,5.6,12.1,27.9,5.3C138.2,536.7,116.4,546.3,110.4,531.4z"/>
			</g>
		</g>
		<path class="st83" d="M115,526.6c1.3-0.9,2.7-1.8,4-2.7c0.5-0.3,1-0.7,1.3-1.7c0.5-1.6,0-3.8-0.8-4.7c-0.7-0.9-1.6-0.8-2.5-1    c-0.8-0.1-1.7-0.5-2.3-2c-0.7-1.9-0.4-4.9,0.3-6.8c0.7-1.9,1.8-2.9,2.8-3.8c1.8-1.7,3.7-3.3,5.5-5c0.8-0.7,1.6-1.4,2.2-2.7    s1-3.2,0.8-5c-0.3-2.6-1.6-3.7-2.6-4.8c-1.1-1.1-2.2-3.4-1.8-5.9c0.4-3.1,2.7-3.1,3.2-6.1c0.3-1.8-0.2-3.9-0.8-5.4    c-0.6-1.5-1.3-2.7-1.6-4.6c-0.3-2-0.1-4.3,0.3-6.2c0.4-1.9,1-3.7,1.4-5.6c1.1-4.7,1.1-10.6,0-15.4c1.8,5.4,2.5,12.7,1.7,19.3    c-0.4,3.3-1.1,6.7-0.6,10c0.4,2.6,1.5,4.3,2.5,6.2c0.9,1.8,1.8,4.5,1.5,7.2c-0.2,1.6-0.8,3-0.7,4.7c0.1,2.7,1.8,3.2,2.5,5.3    c0.7,2,0.3,5-0.4,6.9c-0.7,1.9-1.7,3.1-2.6,4.5c-0.9,1.4-1.8,3.4-1.9,5.9c-0.2,3.3,1.1,6.2,2.4,7.6c1.3,1.4,2.8,1.9,4.1,3.5    c2,2.4,3.4,7.6,3.4,12.8c0,0.2-2.6,0.9-2.8,1c-0.9,0.3-1.9,0.5-2.8,0.7c-1.9,0.4-3.8,0.6-5.7,0.6c-1.9,0-3.8-0.1-5.7-0.4    c-0.3-0.1-0.7,0-1.1-0.3c-0.3-0.2-0.5-0.2-0.8-0.2c-0.8,0-1.6-0.1-2.3-0.5c-0.5-0.2-1-0.5-1.5-0.9c-0.1-0.1-0.5-0.2-0.5-0.5    c-0.2-0.6,0.1-1.8,0.3-2.3c0.3-0.7,0.6-1.1,1-1.4C114.6,526.9,114.8,526.8,115,526.6z"/>
	</g>
	<path class="st154" d="M671,836.7l143-25c23.4,0,46.1,9.4,69.4,7.4c9.1-0.8,19.1-1.8,26.1,5.5c3.7,3.8,4.3,9.8,1,13.9   c-3.6,4.5-9.7,3.7-15,4.6c-5.2,0.8-11,5.6-7.7,10.6c1.3,1.9,3.5,3,5.8,3.1l35.5,1.5c3.7,0.2,7.3,1.4,10.2,3.7   c9.4,7.6,2.5,18.5-6,21c-6.5,2-13.5,0.5-20.2-1c-54-11.6-109.3-17.6-164.5-17.9c-2.3,0-4.6,0.8-6.3,2.3c-4.5,4.2-0.9,9.6,3.5,10.9   c1.4,0.4,2.9,0.5,4.4,0.5c3.6-0.2,5,4.8,1.7,6.4c0,0-0.1,0-0.1,0c-2.8,1.3-6,1.2-9.1,1.1c-19-0.6-38-1.3-57-1.9   c-3.1-0.1-6-1.6-7.7-4.1c-4.4-6.6,5-11.2,2.7-17.3c-0.6-1.5-1.8-2.7-3.3-3.5c-4.8-2.5-10.4-0.6-15.3-2.5   c-6.2-2.5-6.9-10.9-1.4-14.8C663.9,839.2,667.6,837.6,671,836.7z"/>
	<ellipse class="st154" cx="662.9" cy="865.6" rx="14" ry="3.8"/>
	<ellipse class="st154" cx="852" cy="811.8" rx="7" ry="1.9"/>
	<g>
		<polygon class="st29" points="554.2,578.1 554.2,850.2 631.5,808.8 631.5,546.2   "/>
		<rect x="554.2" y="578.1" class="st29" width="3.8" height="272.1"/>
		<polygon class="st155" points="631.5,808.8 557.9,850.2 557.9,578.1 631.5,546.2   "/>
		<path class="st127" d="M570.8,727.8L570.8,727.8c-1.6-0.5-2.8-2.8-2.8-5.6v-54.9c0-3.5,1.9-6.2,4-5.6l0,0c1.6,0.5,2.8,2.8,2.8,5.6    v54.9C574.8,725.7,572.9,728.4,570.8,727.8z"/>
	</g>
	<polygon class="st29" points="865.5,757.2 947.7,744.3 865.5,730  "/>
	<g>
		<polygon class="st29" points="865.5,636 947.7,623.1 865.5,608.8   "/>
		<polygon class="st4" points="865.5,636 865.5,643.6 947.7,631.2 947.7,623.1   "/>
	</g>
	<g>
		<ellipse class="st19" cx="909.9" cy="620.8" rx="20.2" ry="6.2"/>
		<g>
			<g>
				<path class="st106" d="M891.1,571.6c0,0,21.3-9.5,39.1,3.6l-4.1,45.4c0,0-20.4,9.5-33.2-0.9L891.1,571.6z"/>
				<path class="st106" d="M926.4,586.1c0,0,7.6-4.5,10.6,6.1c3,10.6,0.6,18.2-10.9,18.2l0.3-5.1c0,0,7.9,1.2,7.9-7.6      s-7.9-7.9-7.9-7.9V586.1z"/>
				<path class="st107" d="M893.7,572.5c0,0,21.2-7,33,3c0,0-6.1,3.3-17.6,3.3C897.6,578.8,893.7,572.5,893.7,572.5z"/>
			</g>
			<path class="st108" d="M915.4,581.6c0,0,4.5-2,5.3-0.8c0.8,1.3-1,38.4-2.3,39.2c-1.3,0.8-2.5,2.3-2.8,0.8     C915.4,619.2,915.4,581.6,915.4,581.6z"/>
			<path class="st108" d="M928.8,587.4c0,0,11.1,4,5.3,15.9C934.1,603.3,943,593.7,928.8,587.4z"/>
			<path class="st1" d="M893.7,572.5c0,0,5.6,12.1,27.9,5.3C921.5,577.8,899.7,587.4,893.7,572.5z"/>
		</g>
	</g>
	<g>
		<g>
			<g>
				<polygon class="st1" points="888.4,671 924.6,675.6 911.9,677.2 875.8,672.7     "/>
				<polygon class="st156" points="911.9,745.2 911.9,677.2 875.8,672.7 875.8,740.6     "/>
				<polygon class="st157" points="924.6,743.6 924.6,675.6 911.9,677.2 911.9,745.2     "/>
			</g>
		</g>
	</g>
	<g class="st141">
		<path class="st30" d="M701.9,835.6c0.5-0.4,1-0.8,1.5-1.2C702.8,834.8,702.4,835.2,701.9,835.6z"/>
		<path class="st30" d="M699.1,838c0.5-0.4,0.9-0.8,1.4-1.3C700.1,837.1,699.6,837.6,699.1,838z"/>
		<path class="st30" d="M696.5,840.5c0.4-0.4,0.9-0.9,1.3-1.3C697.4,839.6,696.9,840,696.5,840.5z"/>
		<path class="st30" d="M704.7,833.3c0.5-0.4,1-0.8,1.5-1.2C705.7,832.5,705.2,832.9,704.7,833.3z"/>
		<path class="st30" d="M689.2,848.6c0.4-0.5,0.8-1,1.2-1.4C689.9,847.7,689.6,848.2,689.2,848.6z"/>
		<path class="st30" d="M693.9,843.1c0.4-0.5,0.9-0.9,1.3-1.4C694.8,842.2,694.4,842.7,693.9,843.1z"/>
		<path class="st30" d="M691.5,845.8c0.4-0.5,0.8-0.9,1.2-1.4C692.3,844.9,691.9,845.4,691.5,845.8z"/>
		<path class="st30" d="M681.1,860.8c0.3-0.5,0.6-1,0.9-1.6C681.7,859.7,681.4,860.3,681.1,860.8z"/>
		<path class="st30" d="M687,851.6c0.4-0.5,0.7-1,1.1-1.5C687.7,850.6,687.3,851.1,687,851.6z"/>
		<path class="st30" d="M682.9,857.6c0.3-0.5,0.6-1,1-1.5C683.6,856.6,683.3,857.1,682.9,857.6z"/>
		<path class="st30" d="M701.7,853.1c10.7-12.1,25.3-20.7,41.6-23c27.2-3.8,50,11.4,56.8,35.4c2.3,0.2,4.5,0.3,6.8,0.5v-17.8    l1.2-0.2c-7.6-14.3-20.6-24.8-36.5-29.4l-47.2,8.2C715.2,834,707.4,843,701.7,853.1z"/>
		<path class="st30" d="M707.6,831.1c0.5-0.4,1.1-0.8,1.6-1.1C708.7,830.4,708.2,830.8,707.6,831.1z"/>
		<path class="st30" d="M684.9,854.6c0.3-0.5,0.7-1,1-1.5C685.6,853.5,685.2,854,684.9,854.6z"/>
		<path class="st25" d="M810,847.6l2.1-0.4c-3-6-6.9-11.5-11.7-16.2c-6-6-13-10.6-20.8-13.8l-3.8,0.7    C790.8,823.2,802.8,833.7,810,847.6z"/>
		<path class="st25" d="M705.7,830.1l-4.4,0.8c-4.3,3.4-8.4,7.3-12.2,11.6c-4.3,4.9-8.1,10.2-11.2,15.8c0.6,0.3,1.2,0.8,1.6,1.3    C686,848,695,837.8,705.7,830.1z"/>
		<path class="st25" d="M680.8,861.3c0.1-0.2,0.2-0.3,0.3-0.5c0.3-0.5,0.6-1,0.9-1.6c0.3-0.5,0.6-1.1,0.9-1.6c0.3-0.5,0.6-1,1-1.5    c0.3-0.5,0.7-1,1-1.5c0.3-0.5,0.7-1,1-1.5c0.3-0.5,0.7-1,1.1-1.5c0.4-0.5,0.7-1,1.1-1.5c0.4-0.5,0.7-1,1.1-1.4    c0.4-0.5,0.8-1,1.2-1.4c0.4-0.5,0.8-0.9,1.2-1.4c0.4-0.5,0.8-0.9,1.2-1.4c0.4-0.4,0.8-0.9,1.2-1.3c0.4-0.5,0.9-0.9,1.3-1.4    c0.4-0.4,0.8-0.8,1.3-1.3c0.4-0.4,0.9-0.9,1.3-1.3c0.4-0.4,0.9-0.8,1.3-1.2c0.5-0.4,0.9-0.8,1.4-1.3c0.4-0.4,0.9-0.8,1.3-1.1    c0.5-0.4,1-0.8,1.5-1.2c0.5-0.4,0.9-0.7,1.4-1.1c0.5-0.4,1-0.8,1.5-1.2c0.5-0.3,0.9-0.7,1.4-1c0.5-0.4,1.1-0.8,1.6-1.1    c0.4-0.3,0.8-0.5,1.1-0.8l-4.6,0.8c-10.7,7.8-19.7,17.9-26.1,29.4C680.1,860,680.5,860.6,680.8,861.3z"/>
		<path class="st25" d="M808,848l2-0.4c-7.2-13.9-19.3-24.4-34.2-29.7l-4.2,0.7C787.5,823.1,800.4,833.6,808,848z"/>
		<path class="st25" d="M694.4,832l-1.7,0.3c-7.6,7.1-14.2,15.4-19.2,24.5c0.3,0,0.6,0.1,1,0.2C679.7,847.7,686.5,839.2,694.4,832z"/>
		<path class="st25" d="M816.7,846.3l1-0.2c-3.3-7.1-7.8-13.6-13.4-19.2c-4.5-4.5-9.7-8.4-15.3-11.4l-1.5,0.3    C800.3,822.5,810.5,833,816.7,846.3z"/>
		<path class="st30" d="M693.2,883.2c5.7-23.1,25.9-42.4,50-45.8c22.5-3.1,41.6,8.6,48.7,27.6c2.7,0.2,5.4,0.3,8.2,0.5    c-6.8-24.1-29.7-39.2-56.8-35.4c-16.2,2.3-30.9,10.9-41.6,23c-5.3,9.3-8.8,19.5-10.1,30C692.1,883.1,692.7,883.1,693.2,883.2z"/>
		<path class="st131" d="M693.2,883.2c5.7-23.1,25.9-42.4,50-45.8c22.5-3.1,41.6,8.6,48.7,27.6c2.7,0.2,5.4,0.3,8.2,0.5    c-6.8-24.1-29.7-39.2-56.8-35.4c-16.2,2.3-30.9,10.9-41.6,23c-5.3,9.3-8.8,19.5-10.1,30C692.1,883.1,692.7,883.1,693.2,883.2z"/>
		<path class="st30" d="M752,883.7C752.1,883.7,752.1,883.7,752,883.7c3.4-1.6,2-6.6-1.7-6.4c-1.5,0.1-3,0-4.4-0.5    c-4.4-1.3-8.1-6.7-3.5-10.9c1.7-1.6,4-2.3,6.3-2.3c6.3,0,12.6,0.1,18.9,0.3c-7.5-9.9-20.1-15.3-34.4-13.3c-1,0.1-2,0.3-3.1,0.6    c4.1-1.9,8.5-3.3,13.1-3.9c16-2.2,30,4.9,36.9,17.1c3.9,0.2,7.8,0.4,11.7,0.6c-7.1-19.1-26.2-30.8-48.7-27.6    c-24.1,3.4-44.3,22.7-50,45.8c16.6,0.6,33.2,1.1,49.8,1.7C746,884.9,749.2,885,752,883.7z"/>
		<path class="st131" d="M752,883.7C752.1,883.7,752.1,883.7,752,883.7c3.4-1.6,2-6.6-1.7-6.4c-1.5,0.1-3,0-4.4-0.5    c-4.4-1.3-8.1-6.7-3.5-10.9c1.7-1.6,4-2.3,6.3-2.3c6.3,0,12.6,0.1,18.9,0.3c-7.5-9.9-20.1-15.3-34.4-13.3c-1,0.1-2,0.3-3.1,0.6    c4.1-1.9,8.5-3.3,13.1-3.9c16-2.2,30,4.9,36.9,17.1c3.9,0.2,7.8,0.4,11.7,0.6c-7.1-19.1-26.2-30.8-48.7-27.6    c-24.1,3.4-44.3,22.7-50,45.8c16.6,0.6,33.2,1.1,49.8,1.7C746,884.9,749.2,885,752,883.7z"/>
		<path class="st132" d="M752,883.7C752.1,883.7,752.1,883.7,752,883.7c3.4-1.6,2-6.6-1.7-6.4c-1.5,0.1-3,0-4.4-0.5    c-4.4-1.3-8.1-6.7-3.5-10.9c1.7-1.6,4-2.3,6.3-2.3c6.3,0,12.6,0.1,18.9,0.3c-7.5-9.9-20.1-15.3-34.4-13.3c-1,0.1-2,0.3-3.1,0.6    c4.1-1.9,8.5-3.3,13.1-3.9c16-2.2,30,4.9,36.9,17.1c3.9,0.2,7.8,0.4,11.7,0.6c-7.1-19.1-26.2-30.8-48.7-27.6    c-24.1,3.4-44.3,22.7-50,45.8c16.6,0.6,33.2,1.1,49.8,1.7C746,884.9,749.2,885,752,883.7z"/>
		<path class="st133" d="M743.2,847.3c-4.6,0.6-8.9,2-13.1,3.9c1-0.2,2-0.4,3.1-0.6c14.3-2,26.9,3.4,34.4,13.3    c4.2,0.1,8.3,0.3,12.5,0.5C773.2,852.1,759.3,845,743.2,847.3z"/>
		<path d="M814.1,851.5l4.5-0.8c-0.6-1.5-1.2-3-1.9-4.4l-4.6,0.9C812.8,848.6,813.5,850,814.1,851.5z"/>
		<path d="M821.1,850.3c2.7-0.5,4.7,0.6,4.7,2.6v-4.7c0-2.1-2.4-3.1-5.9-2.5l-2.1,0.4c0.7,1.5,1.3,2.9,1.9,4.5L821.1,850.3z"/>
		<path d="M806.8,848.2V866c1.3,0.1,2.6,0.2,3.9,0.3v-12.6c-0.8-2-1.7-3.9-2.7-5.8L806.8,848.2z"/>
		<path d="M812,851.8l2.1-0.3c-0.6-1.5-1.3-2.9-2-4.3l-2.1,0.4C810.7,849,811.4,850.4,812,851.8z"/>
		<path d="M810.7,853.8v-1.7l1.3-0.2c-0.6-1.4-1.3-2.9-2-4.3l-2,0.4C809,849.8,809.9,851.8,810.7,853.8z"/>
		<path d="M818.6,850.7l1-0.2c-0.6-1.5-1.2-3-1.9-4.5l-1,0.2C817.4,847.7,818,849.2,818.6,850.7z"/>
		<path class="st134" d="M818.5,867c1.3,0.1,2.7,0.2,4,0.4l0.1-1.8c-0.8-5.2-2.2-10.2-4-14.9l-4.5,0.8    C816.2,856.4,817.6,861.6,818.5,867z"/>
		<path class="st134" d="M821.1,850.3l-1.5,0.2c1.4,3.6,2.5,7.3,3.3,11.1l0.4-6.6c0,0,0,3.4,0,8.4c0.3,1.3,0.5,2.7,0.6,4.1    c0.6,0.1,1.2,0.1,1.9,0.2v-14.9C825.7,850.9,823.8,849.9,821.1,850.3z"/>
		<path class="st134" d="M814.4,866.7c-0.8-4.5-2-8.9-3.7-12.9v12.6C812,866.4,813.2,866.6,814.4,866.7z"/>
		<path class="st134" d="M816.5,866.9c0.7,0.1,1.4,0.1,2.1,0.2c-0.9-5.4-2.4-10.6-4.4-15.5l-2.1,0.3    C814.1,856.5,815.6,861.6,816.5,866.9z"/>
		<path class="st134" d="M810.7,852.1v1.7c1.6,4.1,2.9,8.4,3.7,12.9c0.7,0.1,1.4,0.1,2,0.2c-0.9-5.3-2.4-10.3-4.4-15L810.7,852.1z"/>
		<path class="st134" d="M823.9,867.6c-0.2-1.4-0.4-2.7-0.6-4.1c0,1.3,0,2.6,0,4C823.4,867.5,823.6,867.5,823.9,867.6z"/>
		<path class="st134" d="M822.6,865.6l0.2-4c-0.8-3.8-1.9-7.5-3.3-11.1l-1,0.2C820.5,855.4,821.8,860.4,822.6,865.6z"/>
		<path d="M680.9,861.5c2.3,6.1-7.1,10.7-2.7,17.3c1.7,2.5,4.6,4,7.7,4.1c0,0,0,0,0.1,0c2.6-11,8.1-21.3,15.7-29.8    c5.7-10.1,13.5-19.1,22.7-26.2l-14,2.4c-0.4,0.3-0.8,0.5-1.2,0.8c-0.5,0.4-1.1,0.7-1.6,1.1c-0.5,0.3-0.9,0.7-1.4,1    c-0.5,0.4-1,0.8-1.5,1.2c-0.5,0.4-0.9,0.7-1.4,1.1c-0.5,0.4-1,0.8-1.5,1.2c-0.4,0.4-0.9,0.8-1.3,1.1c-0.5,0.4-0.9,0.8-1.4,1.3    c-0.4,0.4-0.9,0.8-1.3,1.2c-0.5,0.4-0.9,0.9-1.3,1.3c-0.4,0.4-0.8,0.8-1.3,1.3c-0.4,0.4-0.9,0.9-1.3,1.4c-0.4,0.4-0.8,0.9-1.2,1.3    c-0.4,0.5-0.8,0.9-1.2,1.4c-0.4,0.5-0.8,0.9-1.2,1.4c-0.4,0.5-0.8,1-1.2,1.4c-0.4,0.5-0.7,1-1.1,1.4c-0.4,0.5-0.7,1-1.1,1.5    c-0.4,0.5-0.7,1-1.1,1.5c-0.3,0.5-0.7,1-1,1.5c-0.3,0.5-0.7,1-1,1.5c-0.3,0.5-0.6,1-1,1.5c-0.3,0.5-0.6,1.1-0.9,1.6    c-0.3,0.5-0.6,1-0.9,1.6c-0.1,0.2-0.2,0.3-0.3,0.5C680.9,861.4,680.9,861.5,680.9,861.5z"/>
		<path d="M703.3,834.4c0.5-0.4,0.9-0.7,1.4-1.1C704.2,833.6,703.8,834,703.3,834.4z"/>
		<path d="M681.1,860.8c-0.1,0.2-0.2,0.3-0.3,0.5c0,0,0,0,0,0C680.9,861.1,681,861,681.1,860.8z"/>
		<path d="M706.2,832.1c0.5-0.3,0.9-0.7,1.4-1C707.2,831.5,706.7,831.8,706.2,832.1z"/>
		<path d="M710.4,829.3L710.4,829.3c-0.4,0.3-0.8,0.5-1.2,0.8C709.6,829.8,710,829.5,710.4,829.3z"/>
		<path d="M700.5,836.7c0.4-0.4,0.9-0.8,1.3-1.1C701.4,836,701,836.3,700.5,836.7z"/>
		<path d="M683.9,856.1c0.3-0.5,0.7-1,1-1.5C684.6,855.1,684.2,855.6,683.9,856.1z"/>
		<path d="M685.9,853.1c0.3-0.5,0.7-1,1.1-1.5C686.6,852.1,686.3,852.6,685.9,853.1z"/>
		<path d="M688.1,850.1c0.4-0.5,0.7-1,1.1-1.4C688.8,849.1,688.4,849.6,688.1,850.1z"/>
		<path d="M682,859.2c0.3-0.5,0.6-1.1,0.9-1.6C682.6,858.2,682.3,858.7,682,859.2z"/>
		<path d="M690.3,847.2c0.4-0.5,0.8-0.9,1.2-1.4C691.1,846.3,690.7,846.7,690.3,847.2z"/>
		<path d="M697.8,839.2c0.4-0.4,0.9-0.8,1.3-1.2C698.7,838.4,698.2,838.8,697.8,839.2z"/>
		<path d="M695.2,841.8c0.4-0.4,0.8-0.8,1.3-1.3C696.1,840.9,695.6,841.3,695.2,841.8z"/>
		<path d="M692.7,844.4c0.4-0.4,0.8-0.9,1.2-1.3C693.5,843.5,693.1,844,692.7,844.4z"/>
		<path d="M691.6,883.1c1.3-10.6,4.9-20.8,10.1-30c-7.5,8.5-13,18.8-15.7,29.8C687.9,883,689.7,883,691.6,883.1z"/>
		<path class="st1" d="M822.9,867.5c-0.1-0.6-0.2-1.2-0.3-1.8l-0.1,1.8C822.6,867.4,822.8,867.4,822.9,867.5z"/>
		<path class="st1" d="M823.2,855.1l-0.4,6.6c0.1,0.6,0.3,1.2,0.4,1.8C823.2,858.5,823.2,855.1,823.2,855.1z"/>
		<path class="st1" d="M822.9,867.5c0.1,0,0.2,0,0.3,0c0-1.4,0-2.8,0-4c-0.1-0.6-0.3-1.2-0.4-1.8l-0.2,4    C822.7,866.2,822.8,866.8,822.9,867.5z"/>
	</g>
	<path class="st64" d="M677.1,844c-2.3,0.6-5.1,1.9-5,4.3c0.1,1.9,2.2,3.2,4.1,3.3c1.9,0.1,3.9-0.5,5.8-0.4c4.3,0.2,8.2,4.2,8.1,8.5   c0,3.3-2,6.6-0.9,9.6c0.7,2.2,3.1,3.7,5.4,3.5c2.3-0.2,4.3-2.2,4.5-4.5c0.2-2.4-1.4-4.6-1.4-7.1c0.1-2.8,2.6-5,5.2-5.9   c1.6-0.5,3.3-0.5,5-0.9c1-0.2,2-0.6,3-0.8c1.8-0.2,3.6-0.1,5.4-0.2c1.9-0.1,3.8-0.2,5.6-0.3c7.6-0.5,15.2-1.6,22.7-3.2   c1.3-0.3,2.7-0.6,3.5-1.7c0.6-0.9,0.6-2.1,0-3c-0.5-0.7-1.5-0.6-2.2-0.4c-1.2,0.3-2.3,0.8-3.5,1.1c-1.6,0.4-3.3,0.3-5,0.4   c-1.9,0.1-3.9,0.1-5.8,0.2c-1.1,0-2.4,0-3-1c-0.4-0.7-0.1-1.6,0.4-2.2c0.5-0.6,1.2-1,1.9-1.3c3.2-1.6,6.4-2.9,9.8-4.1   c1.7-0.6,3.3-1.1,5-1.5c0.8-0.2,1.7-0.3,2.5-0.6c0.9-0.4,1.9-1.8,1.4-2.8c-0.5-1.1-2-1-3.2-0.9c-3.4,0.6-6.7,1.1-10.1,1.7   c-1.7,0.3-3.4,0.5-5.1,0.8c-0.6,0.1-1,0.3-1.6,0.5c-0.6,0.2-1.3,0.2-1.9,0.3c-1.9,0.3-3.9,0.5-5.8,0.8c-4,0.5-8,1-11.9,1.6   c-4,0.5-8,1-12,1.6c-1.6,0.2-3.2,0.4-4.9,0.5c-1.1,0-2.3,0.1-3.4,0.4c-3.8,0.9-7.6,2.1-11.4,3.2C678.1,843.7,677.6,843.8,677.1,844   z"/>
	<path class="st64" d="M821.3,827.5c-1.2,0.1-2.5,0.3-3.4,1.2c-0.9,0.8-1,2.6,0.1,3.1c1,0.5,2.3-0.2,3.2,0.5   c0.9,0.6,0.7,2.1-0.1,2.8c-0.8,0.7-1.9,0.9-3,1c-10.1,1.2-20.3,2.3-30.4,3.5c-1.1,0.1-2.5,0.4-2.9,1.4c-0.4,1,0.2,2.1,1.1,2.7   c0.9,0.6,2,0.6,3,0.7c4.5,0.4,9,0.7,13.5,1.1c2.2,0.2,4.3,0.4,6.5,0.5c1.5,0.1,3.2,0.5,4.7,0.3c1.6-0.1,3.4,0.2,5,0.4   c3.6,0.4,7.3,0.7,10.9,1.1c2.1,0.2,4.1,0.4,6.2,0.6c1.1,0.1,2.3,0.2,3.3,0.8c1,0.6,1.8,1.7,1.6,2.8c-0.3,1.5-2.1,2.4-2.3,3.9   c-0.2,2,2.3,3,4.3,3.3c3.6,0.6,7.2,1.1,10.8,1.7c0.7,0.1,1.4,0.2,2,0.5c0.4,0.2,0.9,0.4,1.3,0.5c1.6,0.4,3.5,0.3,5.2,0.5   c7.3,0.6,14.6,1.2,21.8,1.7c0,0,0.1,0,0.1,0c1.2,0.1,2.6,0.1,3.3-0.9c1.1-1.5-0.6-3.4-2.1-4.3c-5-3.2-10.5-5.5-16.3-6.6   c-1.8-0.4-3.6-0.8-4.9-2.2c-1.1-1.1-1.1-2.9,0.2-4c1.2-1,2.8-1.2,4.4-1.2s3.1,0.2,4.6-0.2c0.6-0.2,1.3-0.6,1.3-1.3   c0-0.8-1.1-1.2-1.9-1.3c-3.3-0.4-6.5-0.5-9.8-1c-1-0.1-2-0.3-2.8-0.8c-0.8-0.5-1.4-1.5-1.2-2.5c0.2-0.8,1.1-1.4,1.9-1.1   c0.2,0.1,0.3,0.2,0.5,0.2c0.4,0.1,1.3-0.4,1.7-0.5c0.7-0.2,1.4-0.4,2-0.6c2.9-0.9,5.7-1.8,8.6-2.7c1.1-0.4,2.6-1.3,2.1-2.4   c-0.3-0.8-1.3-1-2.2-1c-3.8-0.2-7.6-0.4-11.4-0.7c-3.8-0.2-7.6-0.4-11.4-0.7c-3.7-0.2-7.5-0.3-11.2-0.7c-2.2-0.2-4.3-1-6.4-1.2   c-3.3-0.2-6.8,0.5-10.1,0.9C822.2,827.4,821.8,827.5,821.3,827.5z"/>
	<g>
		<path class="st103" d="M886.7,589.9c0-5.5-3.1-7.2-5.4-7.7l-1.4,15.3C882.1,597.5,886.7,596.6,886.7,589.9z"/>
		<path class="st19" d="M865.5,616.5v2.7c9.7-0.4,17.2-3,17.2-6.1c0-1.3-1.4-2.6-3.8-3.6l-0.3,3.4    C878.5,612.9,872.8,615.6,865.5,616.5z"/>
		<path class="st106" d="M878.5,602.6l0.3-5.1c0,0,0.4,0.1,1.1,0.1l1.4-15.3c-1.4-0.3-2.5-0.2-2.5-0.2v-3.6c0,0,1.2-0.7,2.9-0.9    l0.9-10c-5.6-4.2-11.6-6.1-17.2-6.7v1.8c4.8,0.5,9.8,1.9,13.7,5.2c0,0-4.7,2.6-13.7,3.2v0.9c2.5-0.3,5.4-0.9,8.5-1.8    c0,0-3.7,1.6-8.5,2.5V607c0.9,0,1.7,0.1,2.6,0.2c-0.1-10.9-0.1-33.4-0.1-33.4s4.5-2,5.3-0.8c0.6,1-0.4,24.4-1.4,34.6    c2.8,0.4,5.2,1.1,7,1.9l0.6-7C879.1,602.6,878.9,602.6,878.5,602.6z"/>
		<path class="st106" d="M871,612.2c-1.3,0.8-2.5,2.3-2.8,0.8c-0.1-0.3-0.1-2.6-0.1-5.8c-0.8-0.1-1.7-0.1-2.6-0.2v9.5    c7.3-1,13.1-3.6,13.1-3.6l0.3-3.4c-1.8-0.8-4.2-1.4-7-1.9C871.5,610.3,871.2,612.1,871,612.2z"/>
		<path class="st106" d="M882.8,580.3c12,6.3,3.8,15.2,3.8,15.2C891.1,586.4,885.6,582,882.8,580.3c-0.4-0.2-0.8-0.4-1.3-0.6    l-0.2,2.4c2.3,0.5,5.4,2.2,5.4,7.7c0,6.7-4.6,7.6-6.8,7.6l-0.5,5.1c10.7-0.4,12.9-7.8,10-18.1c-1.8-6.3-5.2-7.3-7.7-7l-0.2,2.3    C881.8,579.8,882.2,580,882.8,580.3z"/>
		<path class="st106" d="M878.8,582c0,0,1.1-0.1,2.5,0.2l0.2-2.4c-0.1,0-0.1-0.1-0.2-0.1c0,0,0.1,0,0.2,0.1l0.2-2.3    c-1.7,0.2-2.9,0.9-2.9,0.9V582z"/>
		<path class="st106" d="M878.8,597.4l-0.3,5.1c0.3,0,0.6,0,0.9,0l0.5-5.1C879.3,597.5,878.8,597.4,878.8,597.4z"/>
		<path class="st107" d="M879.1,567.8c-3.9-3.3-8.8-4.7-13.7-5.2v8.4C874.4,570.3,879.1,567.8,879.1,567.8z"/>
		<path class="st106" d="M873.2,573.1c-0.8-1.3-5.3,0.8-5.3,0.8s0,22.4,0.1,33.4c1.3,0.1,2.6,0.3,3.7,0.5    C872.8,597.5,873.8,574.1,873.2,573.1z"/>
		<path class="st108" d="M873.2,573.1c-0.8-1.3-5.3,0.8-5.3,0.8s0,22.4,0.1,33.4c1.3,0.1,2.6,0.3,3.7,0.5    C872.8,597.5,873.8,574.1,873.2,573.1z"/>
		<path class="st106" d="M871,612.2c0.3-0.2,0.5-1.9,0.8-4.6c-1.2-0.2-2.4-0.3-3.7-0.5c0,3.2,0.1,5.5,0.1,5.8    C868.4,614.5,869.7,613,871,612.2z"/>
		<path class="st108" d="M871,612.2c0.3-0.2,0.5-1.9,0.8-4.6c-1.2-0.2-2.4-0.3-3.7-0.5c0,3.2,0.1,5.5,0.1,5.8    C868.4,614.5,869.7,613,871,612.2z"/>
		<path class="st106" d="M881.5,579.7L881.5,579.7c0.4,0.2,0.9,0.4,1.3,0.6C882.2,580,881.8,579.8,881.5,579.7z"/>
		<path class="st108" d="M881.5,579.7L881.5,579.7c0.4,0.2,0.9,0.4,1.3,0.6C882.2,580,881.8,579.8,881.5,579.7z"/>
		<path class="st106" d="M886.6,595.5c0,0,8.2-8.9-3.8-15.2C885.6,582,891.1,586.4,886.6,595.5z"/>
		<path class="st108" d="M886.6,595.5c0,0,8.2-8.9-3.8-15.2C885.6,582,891.1,586.4,886.6,595.5z"/>
		<path class="st106" d="M881.3,579.6c0.1,0,0.1,0.1,0.2,0.1l0,0C881.4,579.7,881.3,579.6,881.3,579.6z"/>
		<path class="st108" d="M881.3,579.6c0.1,0,0.1,0.1,0.2,0.1l0,0C881.4,579.7,881.3,579.6,881.3,579.6z"/>
		<path class="st1" d="M874,570c-3.2,1-6,1.6-8.5,1.8v0.7C870.3,571.7,874,570,874,570z"/>
	</g>
	<path class="st158" d="M174.7,571.6c9.9-2.8,20.2-3.9,30.5-3.3c-7.6-1.8-15.5-3.6-23.3-2.6c-5,0.6-9.8,2.4-14.6,4.2   c-3.4,1.3-6.9,2.6-10.3,3.9c-1.7,0.6-3.4,1.3-5.1,1.9c-1.1,0.4-3,0.8-3.9,1.5c0.9,0.3,2.1,0,3-0.1c1.9-0.1,3.7-0.2,5.6-0.5   c4-0.7,7.8-1.9,11.6-3C170.3,572.9,172.5,572.2,174.7,571.6z"/>
	<path class="st19" d="M699.4,404c0,0,4.5-31.9,35.6-31.8c-32.2-2-32.2-2-32.2-2l-3.5,17.1V404z"/>
	<path class="st63" d="M652.1,388.7c0,0-1.8,15,31.9,21.4c9.3-14.8,15.8-34.7,51-38c-4-7.2-12.7-16.4-12.7-16.4l-40.2-2.4   L652.1,388.7z"/>
	<path class="st19" d="M721.7,359.8c-20.3,1.6-39.7,11.8-52.6,27.5c-1.4,1.7-2.8,3.4-4.8,4.2c-2,0.7-4.8-0.2-5.1-2.3   c10.6-9.4,22.3-17.4,34.9-23.7c4.1-2.1,8.4-4,12.6-5.9c2.5-1.1,5-2.2,7.4-3.3c1.7-0.8,3.5-1.9,4.9-0.1   C720,357.3,720.8,358.6,721.7,359.8z"/>
	<g class="st19">
		<g>
			<path class="st159" d="M754.3,324.5c0,6-8.7,6-8.7,12c0,6,8.7,6,8.7,12s-8.7,6-8.7,12"/>
		</g>
		<g>
			<path class="st159" d="M765.6,322.7c0,6-8.7,6-8.7,12c0,6,8.7,6,8.7,12c0,6-8.7,6-8.7,12"/>
		</g>
		<g>
			<path class="st159" d="M776.9,320.9c0,6-8.7,6-8.7,12c0,6,8.7,6,8.7,12s-8.7,6-8.7,12"/>
		</g>
	</g>
	<g>
		<polygon class="st1" points="612.1,135.9 607.5,88.1 0,146.6 0,194.8   "/>
	</g>
	<polygon class="st160" points="0,41.5 0,433.2 609.8,359.1 609.8,6  "/>
</g>
</svg>